<svg xmlns="http://www.w3.org/2000/svg" viewBox="0 0 166 380"><path d="M148 182l-1.6 14.8c-.2 1.5-2 2.3-3.2 1.3l-3.7-3.1c-.4-.3-.6-.7-.7-1.2l-1.4-10.3-3.5 6-3 1.5 2-5-.5-8 1.3-3c1.7-3.9 1.4-8.5-.7-12.2l-9.9-17.2c-1.6-2.8-2.5-5.8-2.7-9l-.7-12.2-7.8-17.8-3.4 14.4c-1.8 7.8-1.6 15.9.8 23.5l4.7 15.4c2.7 8.9 3.6 18.2 2.4 27.4l-5.3 42.5-3 16.5 5.7 18.1c1.2 3.9 1.5 8 1 12l-2.4 16.6v.1l-1.8 32 6.4 16.2c1 2.6-.3 5.6-3 6.5l-9.5 3.2c-3.4 1.1-6.8-1.5-6.5-5.1l1.2-15.3 3-9.5-8.6-41.5c-1.9-6.4-2.2-13.1-.9-19.6l1.5-7.6-10.5-76c-.8.6-1.3 1.6-1.5 2.6L72 253.5l1.5 7.6c1.3 6.5 1 13.3-.9 19.6L64 322.3l3 9.5 1.2 15.3c.3 3.5-3.2 6.2-6.5 5.1l-9.5-3.2c-2.7-.9-4.1-3.9-3-6.5l6.4-16.2-1.8-32v-.1l-2.4-16.6c-.6-4-.2-8.1 1-12l5.7-18.1L55 231l-5.3-42.5c-1.1-9.2-.3-18.6 2.4-27.4l4.7-15.4c2.4-7.6 2.6-15.8.8-23.5l-3.4-14.4-7.8 17.8-.7 12.2c-.2 3.2-1.1 6.3-2.7 9L33.1 164c-2.1 3.7-2.4 8.2-.7 12.2l1.3 3-.5 8 2 5-3-1.5-3.5-6-1.4 10.3c-.1.5-.3.9-.7 1.2l-3.7 3.1c-1.2 1-3 .3-3.2-1.3l-1.4-15 4.6-6.9c1.8-2.7 2.9-5.9 3.2-9.1l2.6-27.3c.2-2.1.8-4.2 1.7-6.1l6.1-12.6 5.9-39.3c.4-2.7 1.8-5.1 3.8-6.9l5.9-5c2.2-1.8 4.9-2.7 7.8-2.6 3 .2 5.8-.9 8-2.8l4.9-4.4c1-.9 1.5-2.3 1.2-3.7l-.4-1.9c-.2-.8-.6-1.5-1.2-2-4.8-4-7.9-10.5-7.9-17.8 0-12.2 8.5-22 19-22s19 9.8 19 22c0 7.8-3.5 14.7-8.8 18.6-.7.5-1.2 1.3-1.4 2.2-.3 1.4.2 2.8 1.2 3.7l4.9 4.4c2.2 2 5.1 3 8 2.8 2.8-.2 5.6.8 7.8 2.6l5.9 5c2.1 1.7 3.4 4.2 3.8 6.9l5.9 39.3 6.1 12.6c.9 1.9 1.5 3.9 1.7 6.1l2.6 27.3c.3 3.3 1.4 6.4 3.2 9.1l4.6 6.8z" fill="#c0d5d0"/></svg>