<?xml version="1.0" encoding="utf-8"?>
<!-- Generator: Adobe Illustrator 21.1.0, SVG Export Plug-In . SVG Version: 6.00 Build 0)  -->
<svg version="1.1" id="Layer_1" xmlns="http://www.w3.org/2000/svg" xmlns:xlink="http://www.w3.org/1999/xlink" x="0px" y="0px"
	 viewBox="0 0 319 336" style="enable-background:new 0 0 319 336;" xml:space="preserve">
<style type="text/css">
	.st0{fill:#194151;}
	.st1{opacity:0.42;}
	.st2{fill:#E8C488;}
	.st3{fill:#ADC4BE;}
	.st4{opacity:0.66;fill:#C0D5D0;}
	.st5{fill:#C16C37;}
	.st6{opacity:0.55;fill:#C16C37;}
	.st7{fill:#C0D5D0;}
	.st8{opacity:0.5;fill:#C0D5D0;}
	.st9{opacity:0.49;fill:#C0D5D0;}
	.st10{fill:#F8F6E8;}
	.st11{fill:#BFB9A5;}
	.st12{opacity:0.5;}
	.st13{fill:#ECE9DC;}
	.st14{fill:#E75F67;}
</style>
<g>
	<g>
		<path class="st0" d="M130.9,136.1c-19.8-8.3-41.8-12.4-61.3-3.2c-16,7.6-29.3,24.2-35.4,44.4c-1.9,6.4-3.2,13-4.4,19.6
			c-0.9,4.8-1.8,9.8-1.6,14.7c0.2,4.5,1.4,8.8,2.8,12.9c10.3,29.6,33.8,49.2,58.4,57.9c24.6,8.7,50.6,8,76.1,7.3
			c15.5-0.4,31.1-0.8,46.1-5.3c31.2-9.2,57.7-34.9,79-65.6c2.2-3.2,0.2-7.6-3.5-8c0,0-0.1,0-0.1,0c-17.4-1.6-30.7-19.8-40.9-37.7
			c-10.2-17.9-20.2-37.8-36.3-46.4c-6.2-3.3-13.1-4.7-19.8-5c-9.8-0.4-19.7,1.4-29.1,5.4"/>
	</g>
	<g class="st1">
		<path class="st0" d="M148.7,141.8c-13.1-8.9,42.2,107.6,44.5,118.8c4.3,20.6,22.5,19.6,31.1-8.9c7.4-24.5,8.7-35.5,4.8-71.3
			c-1.8-16.5-12.8-29.3-23.2-38.1c-4-3.4-8.7-5.2-13.5-6.2c-6.9-1.4-14.2-0.9-21.3,1.4"/>
	</g>
	<g class="st1">
		<path class="st0" d="M123.5,144.6c-14.3-8.3-30.2-12.4-44.3-3.2c-11.6,7.6-21.2,24.2-25.6,44.4c-1.4,6.4-2.3,13-3.2,19.6
			c-0.7,4.8-1.3,9.8-1.1,14.7c0.2,4.5,1,8.8,2,12.9c7.4,29.6,24.4,49.2,42.2,57.9"/>
	</g>
	<circle class="st2" cx="71.5" cy="216.3" r="14"/>
	<path class="st3" d="M109.5,223.9l-49.8-12.7c-1.7-0.4-2.7-2.2-2.3-3.9l13.4-52.7c3.4-13.3,17-21.4,30.3-18l7.7,2
		c13.3,3.4,21.4,17,18,30.3l-13.4,52.7C113,223.3,111.2,224.3,109.5,223.9z"/>
	<g>
		<path class="st0" d="M56.9,207.3c-0.4,1.7,0.6,3.4,2.3,3.9l49.8,12.7c1.7,0.4,3.4-0.6,3.9-2.3l0.6-2.5c-0.8,0.8-1.9,1.1-3,0.8
			l-49.8-12.7c-1.7-0.4-2.7-2.2-2.3-3.9"/>
	</g>
	<circle class="st2" cx="204.9" cy="216.3" r="14"/>
	<path class="st3" d="M166.9,223.9l49.8-12.7c1.7-0.4,2.7-2.2,2.3-3.9l-13.4-52.7c-3.4-13.3-17-21.4-30.3-18l-7.7,2
		c-13.3,3.4-21.4,17-18,30.3l13.4,52.7C163.5,223.3,165.2,224.3,166.9,223.9z"/>
	<path class="st4" d="M154.9,225.9l49.8-12.7c1.7-0.4,2.7-2.2,2.3-3.9l-12.3-30.7c0,0,2-10.7-1.1-22s-17-21.4-30.3-18l-7.7,2
		c-13.3,3.4-21.4,17-18,30.3l13.4,52.7C151.5,225.3,153.2,226.3,154.9,225.9z"/>
	<path class="st5" d="M103,117.1l-3,0c-10,1.9-16.8-4.7-18.7-14.7l-6-15.8C73.4,76.5,80,66.8,90,64.9l0,0c10-1.9,19.8,4.7,21.7,14.7
		l3,15.8C116.6,105.4,113,115.2,103,117.1z"/>
	<path class="st6" d="M115,115.6l-1.3,0.8c-8.7,5.3-20.2,2.6-25.5-6.1L77.7,93c-5.3-8.7-2.6-20.2,6.1-25.5l1.3-0.8
		c8.7-5.3,20.2-2.6,25.5,6.1l10.5,17.2C126.5,98.8,123.7,110.2,115,115.6z"/>
	<path class="st4" d="M119,225.9l-49.8-12.7c-1.7-0.4-2.7-2.2-2.3-3.9l12.3-30.7c0,0-2-10.7,1.1-22c3.1-11.3,17-21.4,30.3-18l7.7,2
		c13.3,3.4,21.4,17,18,30.3l-13.4,52.7C122.5,225.3,120.7,226.3,119,225.9z"/>
	<g>
		<path class="st0" d="M219.5,207.3c0.4,1.7-0.6,3.4-2.3,3.9l-49.8,12.7c-1.7,0.4-3.4-0.6-3.9-2.3l-0.6-2.5c0.8,0.8,1.9,1.1,3,0.8
			l49.8-12.7c1.7-0.4,2.7-2.2,2.3-3.9"/>
	</g>
	<path class="st7" d="M214,302.2c0,2.4-1.7,4.4-3.9,4.4H64.5c-2.1,0-3.9-2-3.9-4.4c0-14.6,2.6-60.2,2.6-60.4
		c2.1-21.8,7.2-39.6,18.5-54.1c0.9-1.1,1.8-2.2,2.7-3.3c-2.3-4.7-3.6-10.2-3.6-15.9v-0.3c0-18.2,13-33.1,28.8-33.1h52.2
		c15.8,0,28.8,14.9,28.8,33.1v0.3c0,4.8-0.9,9.3-2.5,13.4c1.6,1.6,3.1,3.4,4.5,5.2c11.8,14.7,18.2,33.5,19,55.6L214,302.2z"/>
	<path class="st8" d="M213.7,302.5c0,2.4-1.7,4.4-3.9,4.4H69.2c30.8-6.5,126.4-32.5,141.8-73.1L213.7,302.5z"/>
	<path class="st9" d="M141,182.8c15-6.1,39.7-39.8,39.7-39.8c9.6,10.1,10.2,21,10,26c0,0,0.1,6-2.5,12.8
		C189.8,183.4,140,183.9,141,182.8z"/>
	<path class="st10" d="M197.7,278.3c0,1.9-1.3,3.4-3,3.4H81.3c-1.7,0-3-1.5-3-3.4c0-11.4,2-46.9,2-47c1.7-17,5.6-30.8,14.4-42.1
		c0.7-0.9,1.4-1.7,2.1-2.6c-1.8-3.7,82-5.2,80.7-2c1.2,1.3,2.4,2.6,3.5,4c9.2,11.5,14.1,26.1,14.8,43.2L197.7,278.3z"/>
	<path class="st7" d="M50.7,241.7c0,0.3,0,0.5,0,0.8L50.7,241.7L50.7,241.7z"/>
	<g>
		<polygon class="st10" points="152.3,129.3 152.3,148.8 119.5,148.8 119.5,129.3 104.2,130.3 104.2,186.5 167.7,186.5 167.7,130.3 
					"/>
	</g>
	<g>
		<path class="st0" d="M131.3,134.7c13.2,0,14.4-0.2,2,5.7c-12.6,5.9-29.4,0.5-38.6-8.4c-1.8-1.7,7.3-4.5,8.7-6.6
			C103.4,125.4,117.4,134.7,131.3,134.7z"/>
	</g>
	<g>
		<path class="st0" d="M137.8,133.7c-13.2,0-14.4-0.2-2,5.7c12.6,5.9,30.4,4.5,39.6-4.4c1.8-1.7-7.3-7.5-8.7-9.6
			C166.7,125.4,151.7,133.7,137.8,133.7z"/>
	</g>
	<path class="st2" d="M181.4,81c0,31.1-21.5,56.3-48,56.3s-48-24.1-48-56.3c0-31.1,21.5-56.3,48-56.3S181.4,49.9,181.4,81z"/>
	<g>
		<path class="st5" d="M152.8,68.1c-3.9,0.3-7.6,1.5-10.7,3.4c-0.3,0.2-0.6-0.2-0.4-0.5c3.9-3.6,9-6,14.7-6.4
			c13.3-1,24.9,8.9,25.9,22.2c0.6,7.3-0.2,14.2-5,19c-0.3,0.3-0.6-0.1-0.5-0.4c2.8-4.3,2.3-9.7,1.9-15.2
			C177.7,77,166.1,67.1,152.8,68.1z"/>
	</g>
	<g>
		<path class="st5" d="M143.2,35.2c0-3-0.2-5.9-0.6-8.7c-3.1-0.7-6.3-1.1-9.5-1.1c-26.5,0-48,25.2-48,56.3c0,3,0.2,5.9,0.6,8.7
			c3.1,0.7,6.3,1.1,9.5,1.1C121.8,91.5,143.2,66.3,143.2,35.2z"/>
	</g>
	<g>
		<path class="st5" d="M123.4,33.3c0-3,0.2-6,0.6-8.9c3.2-0.8,6.4-1.1,9.8-1.1C161,23.3,183,49.1,183,81c0,3-0.2,6-0.6,8.9
			c-3.2,0.8-6.4,1.1-9.8,1.1C145.4,91.1,123.4,65.3,123.4,33.3z"/>
	</g>
	<circle class="st0" cx="116.3" cy="99.3" r="6.3"/>
	<polygon class="st0" points="110.4,97.9 108.4,93.2 114.5,94.7 	"/>
	<g>
		<circle class="st0" cx="149.5" cy="99.3" r="6.3"/>
		<polygon class="st0" points="155.4,97.9 157.4,93.2 151.3,94.7 		"/>
	</g>
	<g>
		<path class="st5" d="M161.2,51.9c3.9,0,7.7,0.9,11,2.6c0.3,0.2,0.6-0.3,0.3-0.5c-4.1-3.3-9.4-5.3-15.1-5.3
			c-13.3,0-24.2,10.8-24.2,24.1c0,7.3,3.3,13.9,8.5,18.3c0.3,0.2,0.6-0.1,0.4-0.4c-3.2-4.1-5-9.2-5-14.7
			C137,62.7,147.8,51.9,161.2,51.9z"/>
	</g>
	<g>
		<path class="st5" d="M120.9,47.9c3.7,1.3,6.9,3.4,9.5,6c0.2,0.3,0.6-0.1,0.5-0.4c-2.8-4.5-7.2-8.1-12.6-9.9
			c-12.6-4.4-26.4,2.3-30.7,14.9c-2.4,6.9-1.4,14.2,2,20.1c0.2,0.3,0.6,0.1,0.5-0.2c-1.7-4.9-1.8-10.3,0-15.6
			C94.5,50.2,108.2,43.5,120.9,47.9z"/>
	</g>
	<g>
		<path class="st5" d="M114,65.8c3.9,0.6,7.4,2.1,10.5,4.2c0.3,0.2,0.6-0.2,0.4-0.4c-3.6-3.9-8.5-6.6-14.2-7.4
			c-13.2-2-25.5,7.1-27.4,20.3c-1.1,7.2,0.2,14.6,4.7,19.7c0.2,0.3,0.7,0,0.5-0.3c-2.5-4.5-1.7-10.2-0.8-15.7
			C89.5,73,100.8,63.9,114,65.8z"/>
	</g>
	<path class="st0" d="M126,123.8l-9.8-4.5c-1.6-1.2-1.5-3.3,0.6-3.3c0,0,10.5,1.3,16.2,1.6c5.7,0.2,14.9-0.8,14.9-0.8
		c2,0,1.9,2.1,0.5,3.3l-7.4,3.6C136.6,126.1,130.9,126,126,123.8z"/>
	<path class="st11" d="M131.5,112.9l-2.8-1.3c-0.4-0.4-0.4-0.9,0.2-0.9c0,0,3,0.4,4.6,0.4c1.6,0.1,4.2-0.2,4.2-0.2
		c0.6,0,0.5,0.6,0.1,0.9l-2.1,1C134.5,113.6,132.9,113.5,131.5,112.9z"/>
	<g class="st12">
		<path class="st5" d="M137.8,58.2c10.4,0.8,20.4,2.8,29.8,5.9c2.8,0.9,7.8-7.9,9.6-9.9l-4.1-8.4c2-2.3-72.3,9.7-72.3,9.7
			c1.4,2.3,3.4,4.5,6.2,4.1C116.9,57.9,127.2,57.4,137.8,58.2z"/>
	</g>
	<g>
		<path class="st13" d="M134,137.4c13.2,0,14.4-0.2,2,5.7c-12.6,5.9-29.4,0.5-38.6-8.4c-1.8-1.7,6.3-3.5,7.7-5.6
			C105.1,129,120.1,137.4,134,137.4z"/>
	</g>
	<g>
		<path class="st13" d="M136.4,136.4c-13.2,0-14.4-0.2-2,5.7c12.6,5.9,30.4,4.5,39.6-4.4c1.8-1.7-7.3-7.5-8.7-9.6
			C165.3,128,150.3,136.4,136.4,136.4z"/>
	</g>
	<g>
		<path class="st0" d="M139.2,199.9h-7.1c-1.9,0-3.4-1.5-3.4-3.4V172c0-1.9,1.5-3.4,3.4-3.4h7.1c1.9,0,3.4,1.5,3.4,3.4v24.6
			C142.6,198.4,141.1,199.9,139.2,199.9z"/>
		<path class="st0" d="M151.3,180.7v7.1c0,1.9-1.5,3.4-3.4,3.4h-24.6c-1.9,0-3.4-1.5-3.4-3.4v-7.1c0-1.9,1.5-3.4,3.4-3.4H148
			C149.8,177.3,151.3,178.8,151.3,180.7z"/>
	</g>
	<g>
		<path class="st13" d="M147,27.4c12.9,10.1,21.4,27.3,21.4,46.9c0,31.1-21.5,56.3-48,56.3c-4.8,0-9.5-0.8-13.9-2.4
			c7.6,5.9,16.7,9.4,26.6,9.4c26.5,0,48-25.2,48-56.3C181,55.9,166.7,34.4,147,27.4z"/>
	</g>
	<g>
		<path class="st10" d="M134.5,54c9,0,17.8,1.1,26.1,3.1c2.4,0.6,5-0.3,6.4-2.2l7.7-10.5c1.5-2.1,1.2-4.9-0.8-6.6
			c-10.2-8.8-24.1-14.2-39.4-14.2C119,23.6,105,29.1,94.8,38c-2,1.7-2.3,4.5-0.8,6.6l7.6,10.4c1.4,1.9,4,2.7,6.4,2.2
			C116.5,55.1,125.3,54,134.5,54z"/>
	</g>
	<g>
		<path class="st13" d="M135.8,54c9,0,17.8,1.1,26.1,3.1c2.4,0.6,5-0.3,6.4-2.2l4.4-5.9c-11-5.1-24.2-6.8-37.6-4.1
			c-10.1,2.1-19.1,6.4-26.5,12.3c0.3,0,0.5-0.1,0.8-0.1C117.8,55.1,126.7,54,135.8,54z"/>
	</g>
	<g>
		<path class="st0" d="M134.8,30.8c15.1,0,29.4,5.1,39.8,13.5l0.8-1c1.6-2.1,1.2-5-0.8-6.8c-10.5-9-24-14.5-39.7-14.5
			c-15.8,0-30.8,5.6-41.3,14.8c-2.1,1.8-2.4,4.6-0.8,6.8l1.8,2.5c0.1-0.1,0.2-0.3,0.4-0.4C105.4,36.4,119,30.8,134.8,30.8z"/>
	</g>
	<g>
		<path class="st13" d="M149.3,171.8c-10.8,7.5-36.2,11.8-36.2,11.8h54.5v-29.2C167.7,154.3,160.2,164.3,149.3,171.8z"/>
	</g>
	<g>
		<path class="st14" d="M127.7,124.3c4.5,1.6,9.5,1.5,13.5-0.7l0.2-0.1c-1.6-0.8-3.8-1.2-6.2-1.2
			C132.1,122.3,129.4,123.1,127.7,124.3z"/>
	</g>
	<path class="st13" d="M197.8,279.3c0,1.9-1.3,3.4-3,3.4h-52.7c26.3-10.7,42.8-17.2,54.3-34L197.8,279.3z"/>
</g>
</svg>
