<?xml version="1.0" encoding="utf-8"?>
<!-- Generator: Adobe Illustrator 21.1.0, SVG Export Plug-In . SVG Version: 6.00 Build 0)  -->
<svg version="1.1" id="Layer_1" xmlns="http://www.w3.org/2000/svg" xmlns:xlink="http://www.w3.org/1999/xlink" x="0px" y="0px"
	 viewBox="0 0 206 320" style="enable-background:new 0 0 206 320;" xml:space="preserve">
<style type="text/css">
	.st0{fill:#E8C488;}
	.st1{fill:#ADC4BE;}
	.st2{fill:#194151;}
	.st3{opacity:0.66;fill:#C0D5D0;}
	.st4{fill:#C16C37;}
	.st5{opacity:0.55;fill:#C16C37;}
	.st6{fill:#C0D5D0;}
	.st7{opacity:0.49;fill:#C0D5D0;}
	.st8{opacity:0.5;fill:#C0D5D0;}
	.st9{fill:#F8F6E8;}
	.st10{opacity:0.5;}
	.st11{fill:#ECE9DC;}
	.st12{fill:#E75F67;}
</style>
<g>
	<circle class="st0" cx="44.8" cy="201.6" r="14"/>
	<path class="st1" d="M82.8,209.2l-49.8-12.7c-1.7-0.4-2.7-2.2-2.3-3.9l13.4-52.7c3.4-13.3,17-21.4,30.3-18l7.7,2
		c13.3,3.4,21.4,17,18,30.3l-13.4,52.7C86.3,208.6,84.5,209.6,82.8,209.2z"/>
	<g>
		<path class="st2" d="M30.3,192.6c-0.4,1.7,0.6,3.4,2.3,3.9l49.8,12.7c1.7,0.4,3.4-0.6,3.9-2.3l0.6-2.5c-0.8,0.8-1.9,1.1-3,0.8
			l-49.8-12.7c-1.7-0.4-2.7-2.2-2.3-3.9"/>
	</g>
	<circle class="st0" cx="178.3" cy="201.6" r="14"/>
	<path class="st1" d="M140.2,209.2l49.8-12.7c1.7-0.4,2.7-2.2,2.3-3.9l-13.4-52.7c-3.4-13.3-17-21.4-30.3-18l-7.7,2
		c-13.3,3.4-21.4,17-18,30.3l13.4,52.7C136.8,208.6,138.5,209.6,140.2,209.2z"/>
	<path class="st3" d="M128.2,211.2l49.8-12.7c1.7-0.4,2.7-2.2,2.3-3.9L168,163.9c0,0,2-10.7-1.1-22c-3.1-11.3-17-21.4-30.3-18
		l-7.7,2c-13.3,3.4-21.4,17-18,30.3l13.4,52.7C124.8,210.6,126.5,211.6,128.2,211.2z"/>
	<path class="st4" d="M76.3,102.4l-3,0c-10,1.9-16.8-4.7-18.7-14.7l-6-15.8c-1.9-10,4.7-19.8,14.7-21.7l0,0
		c10-1.9,19.8,4.7,21.7,14.7l3,15.8C89.9,90.8,86.3,100.5,76.3,102.4z"/>
	<path class="st5" d="M88.2,100.9l-1.3,0.8c-8.7,5.3-20.2,2.6-25.5-6.1L50.9,78.3c-5.3-8.7-2.6-20.2,6.1-25.5l1.3-0.8
		c8.7-5.3,20.2-2.6,25.5,6.1l10.5,17.2C99.7,84.1,96.9,95.6,88.2,100.9z"/>
	<path class="st3" d="M92.3,211.2l-49.8-12.7c-1.7-0.4-2.7-2.2-2.3-3.9l12.3-30.7c0,0-2-10.7,1.1-22c3.1-11.3,17-21.4,30.3-18l7.7,2
		c13.3,3.4,21.4,17,18,30.3l-13.4,52.7C95.8,210.6,94,211.6,92.3,211.2z"/>
	<g>
		<path class="st2" d="M192.8,192.6c0.4,1.7-0.6,3.4-2.3,3.9l-49.8,12.7c-1.7,0.4-3.4-0.6-3.9-2.3l-0.6-2.5c0.8,0.8,1.9,1.1,3,0.8
			l49.8-12.7c1.7-0.4,2.7-2.2,2.3-3.9"/>
	</g>
	<path class="st6" d="M187.4,287.5c0,2.4-1.7,4.4-3.9,4.4H37.9c-2.1,0-3.9-2-3.9-4.4c0-14.6,2.6-60.2,2.6-60.4
		c2.1-21.8,7.2-39.6,18.5-54.1c0.9-1.1,1.8-2.2,2.7-3.3c-2.3-4.7-3.6-10.2-3.6-15.9v-0.3c0-18.2,13-33.1,28.8-33.1h52.2
		c15.8,0,28.8,14.9,28.8,33.1v0.3c0,4.8-0.9,9.3-2.5,13.4c1.6,1.6,3.1,3.4,4.5,5.2c11.8,14.7,18.2,33.5,19,55.6L187.4,287.5z"/>
	<path class="st7" d="M114.3,168.2c15-6.1,39.7-39.8,39.7-39.8c9.6,10.1,10.2,21,10,26c0,0,0.1,6-2.5,12.8
		C163.1,168.7,113.4,169.2,114.3,168.2z"/>
	<path class="st8" d="M187,287.2c0,2.4-1.7,4.4-3.9,4.4H42.5c30.8-6.5,126.4-32.5,141.8-73.1L187,287.2z"/>
	<path class="st9" d="M171,263.7c0,1.9-1.3,3.4-3,3.4H54.6c-1.7,0-3-1.5-3-3.4c0-11.4,2-46.9,2-47c1.7-17,5.6-30.8,14.4-42.1
		c0.7-0.9,1.4-1.7,2.1-2.6c-1.8-3.7,82-5.2,80.7-2c1.2,1.3,2.4,2.6,3.5,4c9.2,11.5,14.1,26.1,14.8,43.2L171,263.7z"/>
	<path class="st6" d="M24,227c0,0.3,0,0.5,0,0.8L24,227L24,227z"/>
	<g>
		<polygon class="st9" points="125.7,114.6 125.7,134.1 92.9,134.1 92.9,114.6 77.5,115.6 77.5,171.8 141,171.8 141,115.6 		"/>
	</g>
	<g>
		<path class="st2" d="M104.6,120c13.2,0,14.4-0.2,2,5.7c-12.6,5.9-29.4,2.5-38.6-6.4c-1.8-1.7,7.3-6.5,8.7-8.6
			C76.8,110.7,90.8,120,104.6,120z"/>
	</g>
	<g>
		<path class="st2" d="M111.1,119c-13.2,0-14.4-0.2-2,5.7c12.6,5.9,30.4,5.5,39.6-3.4c1.8-1.7-9.3-8.5-10.7-10.6
			C138,110.7,125,119,111.1,119z"/>
	</g>
	<path class="st0" d="M154.7,69.4c0,29.5-21.5,53.5-48,53.5s-48-23-48-53.5c0-29.5,21.5-53.5,48-53.5S154.7,39.9,154.7,69.4z"/>
	<g>
		<path class="st4" d="M126.2,53.4c-3.9,0.3-7.6,1.5-10.7,3.4c-0.3,0.2-0.6-0.2-0.4-0.5c3.9-3.6,9-6,14.7-6.4
			c13.3-1,24.9,8.9,25.9,22.2c0.6,7.3-0.2,14.2-5,19c-0.3,0.3-0.6-0.1-0.5-0.4c2.8-4.3,2.3-9.7,1.9-15.2
			C151.1,62.3,139.5,52.4,126.2,53.4z"/>
	</g>
	<g>
		<path class="st4" d="M116.6,26c0-2.8-0.2-5.6-0.6-8.3c-3.1-0.7-6.3-1.1-9.5-1.1c-26.5,0-48,24-48,53.5c0,2.8,0.2,5.6,0.6,8.3
			c3.1,0.7,6.3,1.1,9.5,1.1C95.1,79.5,116.6,55.5,116.6,26z"/>
	</g>
	<g>
		<path class="st4" d="M96.7,24.2c0-2.9,0.2-5.7,0.6-8.5c3.2-0.7,6.4-1.1,9.8-1.1c27.2,0,49.2,24.6,49.2,54.9c0,2.9-0.2,5.7-0.6,8.5
			c-3.2,0.7-6.4,1.1-9.8,1.1C118.8,79.1,96.7,54.5,96.7,24.2z"/>
	</g>
	<circle class="st2" cx="89.7" cy="84.6" r="6.3"/>
	<polygon class="st2" points="83.7,83.3 81.8,78.5 87.8,80 	"/>
	<g>
		<circle class="st2" cx="122.8" cy="84.6" r="6.3"/>
		<polygon class="st2" points="128.7,83.3 130.7,78.5 124.6,80 		"/>
	</g>
	<g>
		<path class="st4" d="M134.5,37.3c3.9,0,7.7,0.9,11,2.6c0.3,0.2,0.6-0.3,0.3-0.5c-4.1-3.3-9.4-5.3-15.1-5.3
			c-13.3,0-24.2,10.8-24.2,24.1c0,7.3,3.3,13.9,8.5,18.3c0.3,0.2,0.6-0.1,0.4-0.4c-3.2-4.1-5-9.2-5-14.7
			C110.3,48,121.2,37.3,134.5,37.3z"/>
	</g>
	<g>
		<path class="st4" d="M94.2,33.2c3.7,1.3,6.9,3.4,9.5,6c0.2,0.3,0.6-0.1,0.5-0.4c-2.8-4.5-7.2-8.1-12.6-9.9
			C79,24.6,65.2,31.3,60.9,43.8c-2.4,6.9-1.4,14.2,2,20.1c0.2,0.3,0.6,0.1,0.5-0.2c-1.7-4.9-1.8-10.3,0-15.6
			C67.8,35.5,81.6,28.9,94.2,33.2z"/>
	</g>
	<g>
		<path class="st4" d="M87.3,51.2c3.9,0.6,7.4,2.1,10.5,4.2c0.3,0.2,0.6-0.2,0.4-0.4c-3.6-3.9-8.5-6.6-14.2-7.4
			c-13.2-2-25.5,7.1-27.4,20.3c-1.1,7.2,0.2,14.6,4.7,19.7c0.2,0.3,0.7,0,0.5-0.3c-2.5-4.5-1.7-10.2-0.8-15.7
			C62.8,58.3,74.1,49.2,87.3,51.2z"/>
	</g>
	<path class="st2" d="M99.4,109.1l-9.8-4.5c-1.6-1.2-1.5-3.3,0.6-3.3c0,0,10.5,1.3,16.2,1.6c5.7,0.2,14.9-0.8,14.9-0.8
		c2,0,1.9,2.1,0.5,3.3l-7.4,3.6C110,111.5,104.2,111.3,99.4,109.1z"/>
	<g class="st10">
		<path class="st4" d="M111.1,49.6c10.4,0.8,20.4,2.8,29.8,5.9c2.8,0.9,7.6-10.2,9.4-12.3l-4.9-8C156,22.8,67.6,47.7,74.1,46.8
			c1.4,2.3,3.4,4.5,6.2,4.1C90.3,49.2,100.6,48.8,111.1,49.6z"/>
	</g>
	<g>
		<path class="st11" d="M107.3,122.7c13.2,0,14.4-0.2,2,5.7c-12.6,5.9-29.4,0.5-38.6-8.4c-1.8-1.7,6.3-3.5,7.7-5.6
			C78.4,114.4,93.4,122.7,107.3,122.7z"/>
	</g>
	<g>
		<path class="st11" d="M109.8,121.7c-13.2,0-14.4-0.2-2,5.7c12.6,5.9,30.4,4.5,39.6-4.4c1.8-1.7-7.3-7.5-8.7-9.6
			C138.7,113.4,123.7,121.7,109.8,121.7z"/>
	</g>
	<g>
		<path class="st2" d="M112.6,185.3h-7.1c-1.9,0-3.4-1.5-3.4-3.4v-24.6c0-1.9,1.5-3.4,3.4-3.4h7.1c1.9,0,3.4,1.5,3.4,3.4v24.6
			C115.9,183.7,114.4,185.3,112.6,185.3z"/>
		<path class="st2" d="M124.7,166v7.1c0,1.9-1.5,3.4-3.4,3.4H96.7c-1.9,0-3.4-1.5-3.4-3.4V166c0-1.9,1.5-3.4,3.4-3.4h24.6
			C123.2,162.7,124.7,164.2,124.7,166z"/>
	</g>
	<g>
		<path class="st11" d="M120.3,18.5c12.9,9.6,21.4,26,21.4,44.5c0,29.5-21.5,53.5-48,53.5c-4.8,0-9.5-0.8-13.9-2.3
			c7.6,5.7,16.7,9,26.6,9c26.5,0,48-24,48-53.5C154.4,45.6,140,25.2,120.3,18.5z"/>
	</g>
	<g>
		<path class="st9" d="M107.8,45.3c9,0,17.8,1.1,26.1,3.1c2.4,0.6,5-0.3,6.4-2.2l7.7-10.5c1.5-2.1,1.2-4.9-0.8-6.6
			c-10.2-8.8-24.1-14.2-39.4-14.2c-15.4,0-29.4,5.5-39.7,14.4c-2,1.7-2.3,4.5-0.8,6.6L75,46.3c1.4,1.9,4,2.7,6.4,2.2
			C89.8,46.4,98.7,45.3,107.8,45.3z"/>
	</g>
	<g>
		<path class="st11" d="M109.1,45.3c9,0,17.8,1.1,26.1,3.1c2.4,0.6,5-0.3,6.4-2.2l4.4-5.9c-11-5.1-24.2-6.8-37.6-4.1
			C98.3,38.3,89.3,42.7,82,48.6c0.3,0,0.5-0.1,0.8-0.1C91.2,46.4,100,45.3,109.1,45.3z"/>
	</g>
	<g>
		<path class="st2" d="M108.2,22.1c15.1,0,29.4,5.1,39.8,13.5l0.8-1c1.6-2.1,1.2-5-0.8-6.8c-10.5-9-24-14.5-39.7-14.5
			c-15.8,0-30.8,5.6-41.3,14.8c-2.1,1.8-2.4,4.6-0.8,6.8l1.8,2.5c0.1-0.1,0.2-0.3,0.4-0.4C78.7,27.8,92.3,22.1,108.2,22.1z"/>
	</g>
	<g>
		<path class="st11" d="M122.7,157.1c-10.8,7.5-36.2,11.8-36.2,11.8H141v-29.2C141,139.6,133.5,149.6,122.7,157.1z"/>
	</g>
	<path class="st11" d="M171.2,264c0,1.9-1.3,3.4-3,3.4h-52.7c26.3-10.7,42.8-17.2,54.3-34L171.2,264z"/>
	<g>
		<path class="st12" d="M101,109.6c4.5,1.6,9.5,1.5,13.5-0.7l0.2-0.1c-1.6-0.8-3.8-1.2-6.2-1.2C105.5,107.6,102.7,108.4,101,109.6z"
			/>
	</g>
</g>
</svg>
