<svg id="Layer_1" xmlns="http://www.w3.org/2000/svg" viewBox="0 0 206 320"><style>.st0{fill:#e8c488}.st1{fill:#adc4be}.st2{fill:#194151}.st3{opacity:.66;fill:#c0d5d0}.st4{fill:#c16c37}.st6{fill:#c0d5d0}.st9{fill:#f8f6e8}.st11{fill:#ece9dc}</style><circle class="st0" cx="44.8" cy="201.6" r="14"/><path class="st1" d="M82.8 209.2L33 196.5c-1.7-.4-2.7-2.2-2.3-3.9l13.4-52.7c3.4-13.3 17-21.4 30.3-18l7.7 2c13.3 3.4 21.4 17 18 30.3l-13.4 52.7c-.4 1.7-2.2 2.7-3.9 2.3z"/><path class="st2" d="M30.3 192.6c-.4 1.7.6 3.4 2.3 3.9l49.8 12.7c1.7.4 3.4-.6 3.9-2.3l.6-2.5c-.8.8-1.9 1.1-3 .8l-49.8-12.7c-1.7-.4-2.7-2.2-2.3-3.9"/><circle class="st0" cx="178.3" cy="201.6" r="14"/><path class="st1" d="M140.2 209.2l49.8-12.7c1.7-.4 2.7-2.2 2.3-3.9l-13.4-52.7c-3.4-13.3-17-21.4-30.3-18l-7.7 2c-13.3 3.4-21.4 17-18 30.3l13.4 52.7c.5 1.7 2.2 2.7 3.9 2.3z"/><path class="st3" d="M128.2 211.2l49.8-12.7c1.7-.4 2.7-2.2 2.3-3.9L168 163.9s2-10.7-1.1-22-17-21.4-30.3-18l-7.7 2c-13.3 3.4-21.4 17-18 30.3l13.4 52.7c.5 1.7 2.2 2.7 3.9 2.3z"/><path class="st4" d="M76.3 102.4h-3c-10 1.9-16.8-4.7-18.7-14.7l-6-15.8c-1.9-10 4.7-19.8 14.7-21.7 10-1.9 19.8 4.7 21.7 14.7l3 15.8c1.9 10.1-1.7 19.8-11.7 21.7z"/><path d="M88.2 100.9l-1.3.8c-8.7 5.3-20.2 2.6-25.5-6.1L50.9 78.3c-5.3-8.7-2.6-20.2 6.1-25.5l1.3-.8c8.7-5.3 20.2-2.6 25.5 6.1l10.5 17.2c5.4 8.8 2.6 20.3-6.1 25.6z" opacity=".55" fill="#c16c37"/><path class="st3" d="M92.3 211.2l-49.8-12.7c-1.7-.4-2.7-2.2-2.3-3.9l12.3-30.7s-2-10.7 1.1-22 17-21.4 30.3-18l7.7 2c13.3 3.4 21.4 17 18 30.3l-13.4 52.7c-.4 1.7-2.2 2.7-3.9 2.3z"/><path class="st2" d="M192.8 192.6c.4 1.7-.6 3.4-2.3 3.9l-49.8 12.7c-1.7.4-3.4-.6-3.9-2.3l-.6-2.5c.8.8 1.9 1.1 3 .8l49.8-12.7c1.7-.4 2.7-2.2 2.3-3.9"/><path class="st6" d="M187.4 287.5c0 2.4-1.7 4.4-3.9 4.4H37.9c-2.1 0-3.9-2-3.9-4.4 0-14.6 2.6-60.2 2.6-60.4 2.1-21.8 7.2-39.6 18.5-54.1l2.7-3.3c-2.3-4.7-3.6-10.2-3.6-15.9v-.3c0-18.2 13-33.1 28.8-33.1h52.2c15.8 0 28.8 14.9 28.8 33.1v.3c0 4.8-.9 9.3-2.5 13.4 1.6 1.6 3.1 3.4 4.5 5.2 11.8 14.7 18.2 33.5 19 55.6l2.4 59.5z"/><path d="M114.3 168.2c15-6.1 39.7-39.8 39.7-39.8 9.6 10.1 10.2 21 10 26 0 0 .1 6-2.5 12.8 1.6 1.5-48.1 2-47.2 1z" opacity=".49" fill="#c0d5d0"/><path d="M187 287.2c0 2.4-1.7 4.4-3.9 4.4H42.5c30.8-6.5 126.4-32.5 141.8-73.1l2.7 68.7z" opacity=".5" fill="#c0d5d0"/><path class="st9" d="M171 263.7c0 1.9-1.3 3.4-3 3.4H54.6c-1.7 0-3-1.5-3-3.4 0-11.4 2-46.9 2-47 1.7-17 5.6-30.8 14.4-42.1.7-.9 1.4-1.7 2.1-2.6-1.8-3.7 82-5.2 80.7-2 1.2 1.3 2.4 2.6 3.5 4 9.2 11.5 14.1 26.1 14.8 43.2l1.9 46.5z"/><path class="st6" d="M24 227v.8-.8z"/><path class="st9" d="M125.7 114.6v19.5H92.9v-19.5l-15.4 1v56.2H141v-56.2z"/><path class="st2" d="M104.6 120c13.2 0 14.4-.2 2 5.7-12.6 5.9-29.4 2.5-38.6-6.4-1.8-1.7 7.3-6.5 8.7-8.6.1 0 14.1 9.3 27.9 9.3z"/><path class="st2" d="M111.1 119c-13.2 0-14.4-.2-2 5.7 12.6 5.9 30.4 5.5 39.6-3.4 1.8-1.7-9.3-8.5-10.7-10.6 0 0-13 8.3-26.9 8.3z"/><path class="st0" d="M154.7 69.4c0 29.5-21.5 53.5-48 53.5s-48-23-48-53.5c0-29.5 21.5-53.5 48-53.5s48 24 48 53.5z"/><path class="st4" d="M126.2 53.4c-3.9.3-7.6 1.5-10.7 3.4-.3.2-.6-.2-.4-.5 3.9-3.6 9-6 14.7-6.4 13.3-1 24.9 8.9 25.9 22.2.6 7.3-.2 14.2-5 19-.3.3-.6-.1-.5-.4 2.8-4.3 2.3-9.7 1.9-15.2-1-13.2-12.6-23.1-25.9-22.1zM116.6 26c0-2.8-.2-5.6-.6-8.3-3.1-.7-6.3-1.1-9.5-1.1-26.5 0-48 24-48 53.5 0 2.8.2 5.6.6 8.3 3.1.7 6.3 1.1 9.5 1.1 26.5 0 48-24 48-53.5z"/><path class="st4" d="M96.7 24.2c0-2.9.2-5.7.6-8.5 3.2-.7 6.4-1.1 9.8-1.1 27.2 0 49.2 24.6 49.2 54.9 0 2.9-.2 5.7-.6 8.5-3.2.7-6.4 1.1-9.8 1.1-27.1 0-49.2-24.6-49.2-54.9z"/><circle class="st2" cx="89.7" cy="84.6" r="6.3"/><path class="st2" d="M83.7 83.3l-1.9-4.8 6 1.5z"/><circle class="st2" cx="122.8" cy="84.6" r="6.3"/><path class="st2" d="M128.7 83.3l2-4.8-6.1 1.5z"/><path class="st4" d="M134.5 37.3c3.9 0 7.7.9 11 2.6.3.2.6-.3.3-.5-4.1-3.3-9.4-5.3-15.1-5.3-13.3 0-24.2 10.8-24.2 24.1 0 7.3 3.3 13.9 8.5 18.3.3.2.6-.1.4-.4-3.2-4.1-5-9.2-5-14.7-.1-13.4 10.8-24.1 24.1-24.1zm-40.3-4.1c3.7 1.3 6.9 3.4 9.5 6 .2.3.6-.1.5-.4-2.8-4.5-7.2-8.1-12.6-9.9-12.6-4.3-26.4 2.4-30.7 14.9-2.4 6.9-1.4 14.2 2 20.1.2.3.6.1.5-.2-1.7-4.9-1.8-10.3 0-15.6 4.4-12.6 18.2-19.2 30.8-14.9z"/><path class="st4" d="M87.3 51.2c3.9.6 7.4 2.1 10.5 4.2.3.2.6-.2.4-.4-3.6-3.9-8.5-6.6-14.2-7.4-13.2-2-25.5 7.1-27.4 20.3-1.1 7.2.2 14.6 4.7 19.7.2.3.7 0 .5-.3-2.5-4.5-1.7-10.2-.8-15.7 1.8-13.3 13.1-22.4 26.3-20.4z"/><path class="st2" d="M99.4 109.1l-9.8-4.5c-1.6-1.2-1.5-3.3.6-3.3 0 0 10.5 1.3 16.2 1.6 5.7.2 14.9-.8 14.9-.8 2 0 1.9 2.1.5 3.3l-7.4 3.6c-4.4 2.5-10.2 2.3-15 .1z"/><path class="st4" d="M111.1 49.6c10.4.8 20.4 2.8 29.8 5.9 2.8.9 7.6-10.2 9.4-12.3l-4.9-8C156 22.8 67.6 47.7 74.1 46.8c1.4 2.3 3.4 4.5 6.2 4.1 10-1.7 20.3-2.1 30.8-1.3z" opacity=".5"/><path class="st11" d="M107.3 122.7c13.2 0 14.4-.2 2 5.7-12.6 5.9-29.4.5-38.6-8.4-1.8-1.7 6.3-3.5 7.7-5.6 0 0 15 8.3 28.9 8.3z"/><path class="st11" d="M109.8 121.7c-13.2 0-14.4-.2-2 5.7 12.6 5.9 30.4 4.5 39.6-4.4 1.8-1.7-7.3-7.5-8.7-9.6 0 0-15 8.3-28.9 8.3z"/><path class="st2" d="M112.6 185.3h-7.1c-1.9 0-3.4-1.5-3.4-3.4v-24.6c0-1.9 1.5-3.4 3.4-3.4h7.1c1.9 0 3.4 1.5 3.4 3.4v24.6c-.1 1.8-1.6 3.4-3.4 3.4z"/><path class="st2" d="M124.7 166v7.1c0 1.9-1.5 3.4-3.4 3.4H96.7c-1.9 0-3.4-1.5-3.4-3.4V166c0-1.9 1.5-3.4 3.4-3.4h24.6c1.9.1 3.4 1.6 3.4 3.4z"/><path class="st11" d="M120.3 18.5c12.9 9.6 21.4 26 21.4 44.5 0 29.5-21.5 53.5-48 53.5-4.8 0-9.5-.8-13.9-2.3 7.6 5.7 16.7 9 26.6 9 26.5 0 48-24 48-53.5 0-24.1-14.4-44.5-34.1-51.2z"/><path class="st9" d="M107.8 45.3c9 0 17.8 1.1 26.1 3.1 2.4.6 5-.3 6.4-2.2l7.7-10.5c1.5-2.1 1.2-4.9-.8-6.6-10.2-8.8-24.1-14.2-39.4-14.2-15.4 0-29.4 5.5-39.7 14.4-2 1.7-2.3 4.5-.8 6.6L75 46.3c1.4 1.9 4 2.7 6.4 2.2 8.4-2.1 17.3-3.2 26.4-3.2z"/><path class="st11" d="M109.1 45.3c9 0 17.8 1.1 26.1 3.1 2.4.6 5-.3 6.4-2.2l4.4-5.9c-11-5.1-24.2-6.8-37.6-4.1-10.1 2.1-19.1 6.5-26.4 12.4.3 0 .5-.1.8-.1 8.4-2.1 17.2-3.2 26.3-3.2z"/><path class="st2" d="M108.2 22.1c15.1 0 29.4 5.1 39.8 13.5l.8-1c1.6-2.1 1.2-5-.8-6.8-10.5-9-24-14.5-39.7-14.5-15.8 0-30.8 5.6-41.3 14.8-2.1 1.8-2.4 4.6-.8 6.8l1.8 2.5c.1-.1.2-.3.4-.4 10.3-9.2 23.9-14.9 39.8-14.9z"/><path class="st11" d="M122.7 157.1c-10.8 7.5-36.2 11.8-36.2 11.8H141v-29.2c0-.1-7.5 9.9-18.3 17.4zM171.2 264c0 1.9-1.3 3.4-3 3.4h-52.7c26.3-10.7 42.8-17.2 54.3-34l1.4 30.6z"/><path d="M101 109.6c4.5 1.6 9.5 1.5 13.5-.7l.2-.1c-1.6-.8-3.8-1.2-6.2-1.2-3 0-5.8.8-7.5 2z" fill="#e75f67"/></svg>