<?xml version="1.0" encoding="utf-8"?>
<!-- Generator: Adobe Illustrator 21.1.0, SVG Export Plug-In . SVG Version: 6.00 Build 0)  -->
<svg version="1.1" id="Layer_1" xmlns="http://www.w3.org/2000/svg" xmlns:xlink="http://www.w3.org/1999/xlink" x="0px" y="0px"
	 viewBox="0 0 150.8 152.1" style="enable-background:new 0 0 150.8 152.1;" xml:space="preserve">
<style type="text/css">
	.st0{fill:#C16C37;}
	.st1{opacity:0.55;fill:#C16C37;}
	.st2{fill:#194151;}
	.st3{fill:#E8C488;}
	.st4{opacity:0.5;}
	.st5{fill:#ECE9DC;}
	.st6{fill:#F8F6E8;}
	.st7{fill:#E75F67;}
</style>
<path class="st0" d="M48.5,105.3l-3,0c-10,1.9-16.8-4.7-18.7-14.7l-6-15.8C18.9,64.7,25.5,55,35.5,53l0,0c10-1.9,19.8,4.7,21.7,14.7
	l3,15.8C62.1,93.6,58.5,103.3,48.5,105.3z"/>
<path class="st1" d="M60.2,103l-1.3,0.8c-8.7,5.3-20.2,2.6-25.5-6.1L22.8,80.4C17.5,71.7,20.3,60.3,29,55l1.3-0.8
	c8.7-5.3,20.2-2.6,25.5,6.1l10.5,17.2C71.6,86.2,68.8,97.7,60.2,103z"/>
<g>
	<path class="st2" d="M76.8,122.9c13.2,0,14.4-0.2,2,5.7c-12.6,5.9-29.4,2.5-38.6-6.4c-1.8-1.7,7.3-6.5,8.7-8.6
		C48.9,113.5,62.9,122.9,76.8,122.9z"/>
</g>
<g>
	<path class="st2" d="M83.3,121.9c-13.2,0-14.4-0.2-2,5.7c12.6,5.9,30.4,5.5,39.6-3.4c1.8-1.7-9.3-8.5-10.7-10.6
		C110.2,113.5,97.2,121.9,83.3,121.9z"/>
</g>
<path class="st3" d="M126.9,72.3c0,29.5-21.5,53.5-48,53.5s-48-23-48-53.5c0-29.5,21.5-53.5,48-53.5S126.9,42.7,126.9,72.3z"/>
<g>
	<path class="st0" d="M98.3,56.3c-3.9,0.3-7.6,1.5-10.7,3.4c-0.3,0.2-0.6-0.2-0.4-0.5c3.9-3.6,9-6,14.7-6.4
		c13.3-1,24.9,8.9,25.9,22.2c0.6,7.3-0.2,14.2-5,19c-0.3,0.3-0.6-0.1-0.5-0.4c2.8-4.3,2.3-9.7,1.9-15.2
		C123.2,65.2,111.6,55.3,98.3,56.3z"/>
</g>
<g>
	<path class="st0" d="M88.7,28.8c0-2.8-0.2-5.6-0.6-8.3c-3.1-0.7-6.3-1.1-9.5-1.1c-26.5,0-48,24-48,53.5c0,2.8,0.2,5.6,0.6,8.3
		c3.1,0.7,6.3,1.1,9.5,1.1C67.3,82.3,88.7,58.4,88.7,28.8z"/>
</g>
<g>
	<path class="st0" d="M68.9,27c0-2.9,0.2-5.7,0.6-8.5c3.2-0.7,6.4-1.1,9.8-1.1c27.2,0,49.2,24.6,49.2,54.9c0,2.9-0.2,5.7-0.6,8.5
		c-3.2,0.7-6.4,1.1-9.8,1.1C90.9,81.9,68.9,57.3,68.9,27z"/>
</g>
<circle class="st2" cx="61.8" cy="87.5" r="6.3"/>
<polygon class="st2" points="55.9,86.1 53.9,81.4 60,82.9 "/>
<g>
	<circle class="st2" cx="95" cy="87.5" r="6.3"/>
	<polygon class="st2" points="100.9,86.1 102.9,81.4 96.8,82.9 	"/>
</g>
<g>
	<path class="st0" d="M106.7,40.1c3.9,0,7.7,0.9,11,2.6c0.3,0.2,0.6-0.3,0.3-0.5c-4.1-3.3-9.4-5.3-15.1-5.3
		c-13.3,0-24.2,10.8-24.2,24.1c0,7.3,3.3,13.9,8.5,18.3c0.3,0.2,0.6-0.1,0.4-0.4c-3.2-4.1-5-9.2-5-14.7
		C82.5,50.9,93.3,40.1,106.7,40.1z"/>
</g>
<g>
	<path class="st0" d="M66.4,36c3.7,1.3,6.9,3.4,9.5,6c0.2,0.3,0.6-0.1,0.5-0.4c-2.8-4.5-7.2-8.1-12.6-9.9
		c-12.6-4.4-26.4,2.3-30.7,14.9c-2.4,6.9-1.4,14.2,2,20.1c0.2,0.3,0.6,0.1,0.5-0.2c-1.7-4.9-1.8-10.3,0-15.6
		C40,38.4,53.7,31.7,66.4,36z"/>
</g>
<g>
	<path class="st0" d="M59.5,54c3.9,0.6,7.4,2.1,10.5,4.2c0.3,0.2,0.6-0.2,0.4-0.4c-3.6-3.9-8.5-6.6-14.2-7.4
		c-13.2-2-25.5,7.1-27.4,20.3c-1.1,7.2,0.2,14.6,4.7,19.7c0.2,0.3,0.7,0,0.5-0.3c-2.5-4.5-1.7-10.2-0.8-15.7
		C35,61.1,46.3,52.1,59.5,54z"/>
</g>
<path class="st2" d="M71.5,112l-9.8-4.5c-1.6-1.2-1.5-3.3,0.6-3.3c0,0,10.5,1.3,16.2,1.6s14.9-0.8,14.9-0.8c2,0,1.9,2.1,0.5,3.3
	l-7.4,3.6C82.1,114.3,76.4,114.2,71.5,112z"/>
<g class="st4">
	<path class="st0" d="M83.3,52.4c10.4,0.8,20.4,2.8,29.8,5.9c2.8,0.9,6.8-6.9,8.6-8.9l-4.1-8.4c2-2.3-71.3,8.7-71.3,8.7
		c1.4,2.3,3.4,4.5,6.2,4.1C62.4,52.1,72.7,51.6,83.3,52.4z"/>
</g>
<g>
	<path class="st5" d="M92.5,21.4c12.9,9.6,21.4,26,21.4,44.5c0,29.5-21.5,53.5-48,53.5c-4.8,0-9.5-0.8-13.9-2.3
		c7.6,5.7,16.7,9,26.6,9c26.5,0,48-24,48-53.5C126.5,48.4,112.2,28,92.5,21.4z"/>
</g>
<g>
	<path class="st6" d="M80,48.2c9,0,17.8,1.1,26.1,3.1c2.4,0.6,5-0.3,6.4-2.2l7.7-10.5c1.5-2.1,1.2-4.9-0.8-6.6
		C109.2,23.2,95.3,17.8,80,17.8c-15.4,0-29.4,5.5-39.7,14.4c-2,1.7-2.3,4.5-0.8,6.6l7.6,10.4c1.4,1.9,4,2.7,6.4,2.2
		C62,49.3,70.8,48.2,80,48.2z"/>
</g>
<g>
	<path class="st5" d="M81.3,48.2c9,0,17.8,1.1,26.1,3.1c2.4,0.6,5-0.3,6.4-2.2l4.4-5.9c-11-5.1-24.2-6.8-37.6-4.1
		c-10.1,2.1-19.1,6.4-26.5,12.3c0.3,0,0.5-0.1,0.8-0.1C63.3,49.3,72.2,48.2,81.3,48.2z"/>
</g>
<g>
	<path class="st2" d="M80.3,25c15.1,0,29.4,5.1,39.8,13.5l0.8-1c1.6-2.1,1.2-5-0.8-6.8c-10.5-9-24-14.5-39.7-14.5
		c-15.8,0-30.8,5.6-41.3,14.8c-2.1,1.8-2.4,4.6-0.8,6.8l1.8,2.5c0.1-0.1,0.2-0.3,0.4-0.4C50.9,30.6,64.5,25,80.3,25z"/>
</g>
<g>
	<path class="st7" d="M73.2,112.5c4.5,1.6,9.5,1.5,13.5-0.7l0.2-0.1c-1.6-0.8-3.8-1.2-6.2-1.2C77.6,110.4,74.9,111.2,73.2,112.5z"/>
</g>
</svg>
