<svg id="Layer_1" xmlns="http://www.w3.org/2000/svg" viewBox="0 0 150.8 152.1"><style>.st0{fill:#c16c37}.st2{fill:#194151}.st5{fill:#ece9dc}</style><path class="st0" d="M48.5 105.3h-3c-10 1.9-16.8-4.7-18.7-14.7l-6-15.8C18.9 64.7 25.5 55 35.5 53c10-1.9 19.8 4.7 21.7 14.7l3 15.8c1.9 10.1-1.7 19.8-11.7 21.8z"/><path d="M60.2 103l-1.3.8c-8.7 5.3-20.2 2.6-25.5-6.1L22.8 80.4C17.5 71.7 20.3 60.3 29 55l1.3-.8c8.7-5.3 20.2-2.6 25.5 6.1l10.5 17.2c5.3 8.7 2.5 20.2-6.1 25.5z" opacity=".55" fill="#c16c37"/><path class="st2" d="M76.8 122.9c13.2 0 14.4-.2 2 5.7-12.6 5.9-29.4 2.5-38.6-6.4-1.8-1.7 7.3-6.5 8.7-8.6 0-.1 14 9.3 27.9 9.3z"/><path class="st2" d="M83.3 121.9c-13.2 0-14.4-.2-2 5.7 12.6 5.9 30.4 5.5 39.6-3.4 1.8-1.7-9.3-8.5-10.7-10.6 0-.1-13 8.3-26.9 8.3z"/><path d="M126.9 72.3c0 29.5-21.5 53.5-48 53.5s-48-23-48-53.5c0-29.5 21.5-53.5 48-53.5s48 23.9 48 53.5z" fill="#e8c488"/><path class="st0" d="M98.3 56.3c-3.9.3-7.6 1.5-10.7 3.4-.3.2-.6-.2-.4-.5 3.9-3.6 9-6 14.7-6.4 13.3-1 24.9 8.9 25.9 22.2.6 7.3-.2 14.2-5 19-.3.3-.6-.1-.5-.4 2.8-4.3 2.3-9.7 1.9-15.2-1-13.2-12.6-23.1-25.9-22.1zm-9.6-27.5c0-2.8-.2-5.6-.6-8.3-3.1-.7-6.3-1.1-9.5-1.1-26.5 0-48 24-48 53.5 0 2.8.2 5.6.6 8.3 3.1.7 6.3 1.1 9.5 1.1 26.6 0 48-23.9 48-53.5z"/><path class="st0" d="M68.9 27c0-2.9.2-5.7.6-8.5 3.2-.7 6.4-1.1 9.8-1.1 27.2 0 49.2 24.6 49.2 54.9 0 2.9-.2 5.7-.6 8.5-3.2.7-6.4 1.1-9.8 1.1-27.2 0-49.2-24.6-49.2-54.9z"/><circle class="st2" cx="61.8" cy="87.5" r="6.3"/><path class="st2" d="M55.9 86.1l-2-4.7 6.1 1.5z"/><circle class="st2" cx="95" cy="87.5" r="6.3"/><path class="st2" d="M100.9 86.1l2-4.7-6.1 1.5z"/><path class="st0" d="M106.7 40.1c3.9 0 7.7.9 11 2.6.3.2.6-.3.3-.5-4.1-3.3-9.4-5.3-15.1-5.3-13.3 0-24.2 10.8-24.2 24.1 0 7.3 3.3 13.9 8.5 18.3.3.2.6-.1.4-.4-3.2-4.1-5-9.2-5-14.7-.1-13.3 10.7-24.1 24.1-24.1zM66.4 36c3.7 1.3 6.9 3.4 9.5 6 .2.3.6-.1.5-.4-2.8-4.5-7.2-8.1-12.6-9.9-12.6-4.4-26.4 2.3-30.7 14.9-2.4 6.9-1.4 14.2 2 20.1.2.3.6.1.5-.2-1.7-4.9-1.8-10.3 0-15.6C40 38.4 53.7 31.7 66.4 36z"/><path class="st0" d="M59.5 54c3.9.6 7.4 2.1 10.5 4.2.3.2.6-.2.4-.4-3.6-3.9-8.5-6.6-14.2-7.4-13.2-2-25.5 7.1-27.4 20.3-1.1 7.2.2 14.6 4.7 19.7.2.3.7 0 .5-.3-2.5-4.5-1.7-10.2-.8-15.7C35 61.1 46.3 52.1 59.5 54z"/><path class="st2" d="M71.5 112l-9.8-4.5c-1.6-1.2-1.5-3.3.6-3.3 0 0 10.5 1.3 16.2 1.6s14.9-.8 14.9-.8c2 0 1.9 2.1.5 3.3l-7.4 3.6c-4.4 2.4-10.1 2.3-15 .1z"/><path class="st0" d="M83.3 52.4c10.4.8 20.4 2.8 29.8 5.9 2.8.9 6.8-6.9 8.6-8.9l-4.1-8.4c2-2.3-71.3 8.7-71.3 8.7 1.4 2.3 3.4 4.5 6.2 4.1 9.9-1.7 20.2-2.2 30.8-1.4z" opacity=".5"/><path class="st5" d="M92.5 21.4c12.9 9.6 21.4 26 21.4 44.5 0 29.5-21.5 53.5-48 53.5-4.8 0-9.5-.8-13.9-2.3 7.6 5.7 16.7 9 26.6 9 26.5 0 48-24 48-53.5-.1-24.2-14.4-44.6-34.1-51.2z"/><path d="M80 48.2c9 0 17.8 1.1 26.1 3.1 2.4.6 5-.3 6.4-2.2l7.7-10.5c1.5-2.1 1.2-4.9-.8-6.6-10.2-8.8-24.1-14.2-39.4-14.2-15.4 0-29.4 5.5-39.7 14.4-2 1.7-2.3 4.5-.8 6.6l7.6 10.4c1.4 1.9 4 2.7 6.4 2.2 8.5-2.1 17.3-3.2 26.5-3.2z" fill="#f8f6e8"/><path class="st5" d="M81.3 48.2c9 0 17.8 1.1 26.1 3.1 2.4.6 5-.3 6.4-2.2l4.4-5.9c-11-5.1-24.2-6.8-37.6-4.1-10.1 2.1-19.1 6.4-26.5 12.3.3 0 .5-.1.8-.1 8.4-2 17.3-3.1 26.4-3.1z"/><path class="st2" d="M80.3 25c15.1 0 29.4 5.1 39.8 13.5l.8-1c1.6-2.1 1.2-5-.8-6.8-10.5-9-24-14.5-39.7-14.5-15.8 0-30.8 5.6-41.3 14.8-2.1 1.8-2.4 4.6-.8 6.8l1.8 2.5c.1-.1.2-.3.4-.4C50.9 30.6 64.5 25 80.3 25z"/><path d="M73.2 112.5c4.5 1.6 9.5 1.5 13.5-.7l.2-.1c-1.6-.8-3.8-1.2-6.2-1.2-3.1-.1-5.8.7-7.5 2z" fill="#e75f67"/></svg>