<svg id="Layer_1" xmlns="http://www.w3.org/2000/svg" viewBox="0 0 319 336"><style>.st0{fill:#194151}.st1{opacity:.42}.st2{fill:#e8c488}.st3{fill:#adc4be}.st4{opacity:.66;fill:#c0d5d0;enable-background:new}.st5{fill:#c16c37}.st7{fill:#c0d5d0}.st10{fill:#f8f6e8}.st14{fill:#ece9dc}</style><g class="cape"><path class="st0" d="M102.7,114.1c-19.8-8.3-41.8-12.4-61.3-3.2c-16,7.6-29.3,24.2-35.4,44.4c-1.9,6.4-3.2,13-4.4,19.6c-0.9,4.8-1.8,9.8-1.6,14.7c0.2,4.5,1.4,8.8,2.8,12.9c10.3,29.6,33.8,49.2,58.4,57.9s50.6,8,76.1,7.3c15.5-0.4,31.1-0.8,46.1-5.3c31.2-9.2,74.9-39.5,96.2-70.2c2.2-3.2,0.2-7.6-3.5-8H276c-17.4-1.6-47.9-15.2-58.1-33.1c-10.2-17.9-20.2-37.8-36.3-46.4c-6.2-3.3-13.1-4.7-19.8-5c-9.8-0.4-19.7,1.4-29.1,5.4" d="M148.7 141.8c-13.1-8.9 42.2 107.6 44.5 118.8 4.3 20.6 22.5 19.6 31.1-8.9 7.4-24.5 8.7-35.5 4.8-71.3-1.8-16.5-12.8-29.3-23.2-38.1-4-3.4-8.7-5.2-13.5-6.2-6.9-1.4-14.2-.9-21.3 1.4"/></g><g class="st1"><path class="st0" d="M123.5 144.6c-14.3-8.3-30.2-12.4-44.3-3.2-11.6 7.6-21.2 24.2-25.6 44.4-1.4 6.4-2.3 13-3.2 19.6-.7 4.8-1.3 9.8-1.1 14.7.2 4.5 1 8.8 2 12.9 7.4 29.6 24.4 49.2 42.2 57.9"/></g><circle class="st2" cx="71.5" cy="216.3" r="14"/><path class="st3" d="M109.5 223.9l-49.8-12.7c-1.7-.4-2.7-2.2-2.3-3.9l13.4-52.7c3.4-13.3 17-21.4 30.3-18l7.7 2c13.3 3.4 21.4 17 18 30.3l-13.4 52.7c-.4 1.7-2.2 2.7-3.9 2.3z"/><path class="st0" d="M56.9 207.3c-.4 1.7.6 3.4 2.3 3.9l49.8 12.7c1.7.4 3.4-.6 3.9-2.3l.6-2.5c-.8.8-1.9 1.1-3 .8l-49.8-12.7c-1.7-.4-2.7-2.2-2.3-3.9"/><circle class="st2" cx="204.9" cy="216.3" r="14"/><path class="st3" d="M166.9 223.9l49.8-12.7c1.7-.4 2.7-2.2 2.3-3.9l-13.4-52.7c-3.4-13.3-17-21.4-30.3-18l-7.7 2c-13.3 3.4-21.4 17-18 30.3l13.4 52.7c.5 1.7 2.2 2.7 3.9 2.3z"/><path class="st4" d="M154.9 225.9l49.8-12.7c1.7-.4 2.7-2.2 2.3-3.9l-12.3-30.7s2-10.7-1.1-22-17-21.4-30.3-18l-7.7 2c-13.3 3.4-21.4 17-18 30.3l13.4 52.7c.5 1.7 2.2 2.7 3.9 2.3z"/><path class="st5" d="M103 117.1h-3c-10 1.9-16.8-4.7-18.7-14.7l-6-15.8C73.4 76.5 80 66.8 90 64.9s19.8 4.7 21.7 14.7l3 15.8c1.9 10-1.7 19.8-11.7 21.7z"/><path d="M115 115.6l-1.3.8c-8.7 5.3-20.2 2.6-25.5-6.1L77.7 93c-5.3-8.7-2.6-20.2 6.1-25.5l1.3-.8c8.7-5.3 20.2-2.6 25.5 6.1L121.1 90c5.4 8.8 2.6 20.2-6.1 25.6z" opacity=".55" fill="#c16c37"/><path class="st4" d="M119 225.9l-49.8-12.7c-1.7-.4-2.7-2.2-2.3-3.9l12.3-30.7s-2-10.7 1.1-22 17-21.4 30.3-18l7.7 2c13.3 3.4 21.4 17 18 30.3l-13.4 52.7c-.4 1.7-2.2 2.7-3.9 2.3z"/><path class="st0" d="M219.5 207.3c.4 1.7-.6 3.4-2.3 3.9l-49.8 12.7c-1.7.4-3.4-.6-3.9-2.3l-.6-2.5c.8.8 1.9 1.1 3 .8l49.8-12.7c1.7-.4 2.7-2.2 2.3-3.9"/><path class="st7" d="M214 302.2c0 2.4-1.7 4.4-3.9 4.4H64.5c-2.1 0-3.9-2-3.9-4.4 0-14.6 2.6-60.2 2.6-60.4 2.1-21.8 7.2-39.6 18.5-54.1l2.7-3.3c-2.3-4.7-3.6-10.2-3.6-15.9v-.3c0-18.2 13-33.1 28.8-33.1h52.2c15.8 0 28.8 14.9 28.8 33.1v.3c0 4.8-.9 9.3-2.5 13.4 1.6 1.6 3.1 3.4 4.5 5.2 11.8 14.7 18.2 33.5 19 55.6l2.4 59.5z"/><path d="M213.7 302.5c0 2.4-1.7 4.4-3.9 4.4H69.2c30.8-6.5 126.4-32.5 141.8-73.1l2.7 68.7z" opacity=".5" fill="#c0d5d0"/><path d="M141 182.8c15-6.1 39.7-39.8 39.7-39.8 9.6 10.1 10.2 21 10 26 0 0 .1 6-2.5 12.8 1.6 1.6-48.2 2.1-47.2 1z" opacity=".49" fill="#c0d5d0"/><path class="st10" d="M197.7 278.3c0 1.9-1.3 3.4-3 3.4H81.3c-1.7 0-3-1.5-3-3.4 0-11.4 2-46.9 2-47 1.7-17 5.6-30.8 14.4-42.1.7-.9 1.4-1.7 2.1-2.6-1.8-3.7 82-5.2 80.7-2 1.2 1.3 2.4 2.6 3.5 4 9.2 11.5 14.1 26.1 14.8 43.2l1.9 46.5z"/><path class="st7" d="M50.7 241.7v.8-.8z"/><path class="st10" d="M152.3 129.3v19.5h-32.8v-19.5l-15.3 1v56.2h63.5v-56.2l-15.4-1z"/><path class="st0" d="M131.3 134.7c13.2 0 14.4-.2 2 5.7-12.6 5.9-29.4.5-38.6-8.4-1.8-1.7 7.3-4.5 8.7-6.6 0 0 14 9.3 27.9 9.3z"/><path class="st0" d="M137.8 133.7c-13.2 0-14.4-.2-2 5.7 12.6 5.9 30.4 4.5 39.6-4.4 1.8-1.7-7.3-7.5-8.7-9.6 0 0-15 8.3-28.9 8.3z"/><path class="st2" d="M181.4 81c0 31.1-21.5 56.3-48 56.3s-48-24.1-48-56.3c0-31.1 21.5-56.3 48-56.3s48 25.2 48 56.3z"/><path d="M147 27.4c12.9 10.1 21.4 27.3 21.4 46.9 0 31.1-21.5 56.3-48 56.3-4.8 0-9.5-.8-13.9-2.4 7.6 5.9 16.7 9.4 26.6 9.4 26.5 0 48-25.2 48-56.3-.1-25.4-14.4-46.9-34.1-53.9z" opacity=".38" fill="#ece9dc"/><path class="st5" d="M152.8 68.1c-3.9.3-7.6 1.5-10.7 3.4-.3.2-.6-.2-.4-.5 3.9-3.6 9-6 14.7-6.4 13.3-1 24.9 8.9 25.9 22.2.6 7.3-.2 14.2-5 19-.3.3-.6-.1-.5-.4 2.8-4.3 2.3-9.7 1.9-15.2-1-13.2-12.6-23.1-25.9-22.1zm-9.6-32.9c0-3-.2-5.9-.6-8.7-3.1-.7-6.3-1.1-9.5-1.1-26.5 0-48 25.2-48 56.3 0 3 .2 5.9.6 8.7 3.1.7 6.3 1.1 9.5 1.1 26.6 0 48-25.2 48-56.3z"/><path class="st5" d="M123.4 33.3c0-3 .2-6 .6-8.9 3.2-.8 6.4-1.1 9.8-1.1C161 23.3 183 49.1 183 81c0 3-.2 6-.6 8.9-3.2.8-6.4 1.1-9.8 1.1-27.2.1-49.2-25.7-49.2-57.7z"/><circle class="st0" cx="116.3" cy="99.3" r="6.3"/><path class="st0" d="M110.4 97.9l-2-4.7 6.1 1.5-4.1 3.2z"/><circle class="st0" cx="149.5" cy="99.3" r="6.3"/><path class="st0" d="M155.4 97.9l2-4.7-6.1 1.5 4.1 3.2z"/><path class="st5" d="M161.2 51.9c3.9 0 7.7.9 11 2.6.3.2.6-.3.3-.5-4.1-3.3-9.4-5.3-15.1-5.3-13.3 0-24.2 10.8-24.2 24.1 0 7.3 3.3 13.9 8.5 18.3.3.2.6-.1.4-.4-3.2-4.1-5-9.2-5-14.7-.1-13.3 10.7-24.1 24.1-24.1zm-40.3-4c3.7 1.3 6.9 3.4 9.5 6 .2.3.6-.1.5-.4-2.8-4.5-7.2-8.1-12.6-9.9-12.6-4.4-26.4 2.3-30.7 14.9-2.4 6.9-1.4 14.2 2 20.1.2.3.6.1.5-.2-1.7-4.9-1.8-10.3 0-15.6 4.4-12.6 18.1-19.3 30.8-14.9z"/><path class="st5" d="M114 65.8c3.9.6 7.4 2.1 10.5 4.2.3.2.6-.2.4-.4-3.6-3.9-8.5-6.6-14.2-7.4-13.2-2-25.5 7.1-27.4 20.3-1.1 7.2.2 14.6 4.7 19.7.2.3.7 0 .5-.3-2.5-4.5-1.7-10.2-.8-15.7C89.5 73 100.8 63.9 114 65.8z"/><path class="st0" d="M126 123.8l-9.8-4.5c-1.6-1.2-1.5-3.3.6-3.3 0 0 10.5 1.3 16.2 1.6 5.7.2 14.9-.8 14.9-.8 2 0 1.9 2.1.5 3.3l-7.4 3.6c-4.4 2.4-10.1 2.3-15 .1z"/><path d="M131.5 112.9l-2.8-1.3c-.4-.4-.4-.9.2-.9 0 0 3 .4 4.6.4 1.6.1 4.2-.2 4.2-.2.6 0 .5.6.1.9l-2.1 1c-1.2.8-2.8.7-4.2.1z" fill="#bfb9a5"/><path d="M137.8 58.2c10.4.8 20.4 2.8 29.8 5.9 2.8.9 7.8-7.9 9.6-9.9l-4.1-8.4c2-2.3-72.3 9.7-72.3 9.7 1.4 2.3 3.4 4.5 6.2 4.1 9.9-1.7 20.2-2.2 30.8-1.4z" opacity=".5" fill="#c16c37"/><path class="st14" d="M134 137.4c13.2 0 14.4-.2 2 5.7-12.6 5.9-29.4.5-38.6-8.4-1.8-1.7 6.3-3.5 7.7-5.6 0-.1 15 8.3 28.9 8.3zM149.3 171.8c-10.8 7.5-36.2 11.8-36.2 11.8h54.5v-29.2c.1-.1-7.4 9.9-18.3 17.4z"/><path class="st14" d="M136.4 136.4c-13.2 0-14.4-.2-2 5.7 12.6 5.9 30.4 4.5 39.6-4.4 1.8-1.7-7.3-7.5-8.7-9.6 0-.1-15 8.3-28.9 8.3z"/><path class="st0" d="M139.2 199.9h-7.1c-1.9 0-3.4-1.5-3.4-3.4V172c0-1.9 1.5-3.4 3.4-3.4h7.1c1.9 0 3.4 1.5 3.4 3.4v24.6c0 1.8-1.5 3.3-3.4 3.3z"/><path class="st0" d="M151.3 180.7v7.1c0 1.9-1.5 3.4-3.4 3.4h-24.6c-1.9 0-3.4-1.5-3.4-3.4v-7.1c0-1.9 1.5-3.4 3.4-3.4H148c1.8 0 3.3 1.5 3.3 3.4z"/><path class="st10" d="M134.5 54c9 0 17.8 1.1 26.1 3.1 2.4.6 5-.3 6.4-2.2l7.7-10.5c1.5-2.1 1.2-4.9-.8-6.6-10.2-8.8-24.1-14.2-39.4-14.2-15.5 0-29.5 5.5-39.7 14.4-2 1.7-2.3 4.5-.8 6.6l7.6 10.4c1.4 1.9 4 2.7 6.4 2.2 8.5-2.1 17.3-3.2 26.5-3.2z"/><path class="st14" d="M135.8 54c9 0 17.8 1.1 26.1 3.1 2.4.6 5-.3 6.4-2.2l4.4-5.9c-11-5.1-24.2-6.8-37.6-4.1C125 47 116 51.3 108.6 57.2c.3 0 .5-.1.8-.1 8.4-2 17.3-3.1 26.4-3.1z"/><path class="st0" d="M134.8 30.8c15.1 0 29.4 5.1 39.8 13.5l.8-1c1.6-2.1 1.2-5-.8-6.8-10.5-9-24-14.5-39.7-14.5-15.8 0-30.8 5.6-41.3 14.8-2.1 1.8-2.4 4.6-.8 6.8l1.8 2.5c.1-.1.2-.3.4-.4 10.4-9.3 24-14.9 39.8-14.9z"/><path d="M127.7 124.3c4.5 1.6 9.5 1.5 13.5-.7l.2-.1c-1.6-.8-3.8-1.2-6.2-1.2-3.1 0-5.8.8-7.5 2z" fill="#e75f67"/><path class="st14" d="M197.8 279.3c0 1.9-1.3 3.4-3 3.4h-52.7c26.3-10.7 42.8-17.2 54.3-34l1.4 30.6z"/></svg>
