<?xml version="1.0" encoding="utf-8"?>
<!-- Generator: Adobe Illustrator 22.1.0, SVG Export Plug-In . SVG Version: 6.00 Build 0)  -->
<svg version="1.1" id="Layer_1" xmlns="http://www.w3.org/2000/svg" xmlns:xlink="http://www.w3.org/1999/xlink" x="0px" y="0px"
	 viewBox="0 0 400 400" style="enable-background:new 0 0 400 400;" xml:space="preserve">
<style type="text/css">
	.st0{fill:#194151;}
	.st1{opacity:0.42;}
	.st2{fill:#E8C488;}
	.st3{fill:#ADC4BE;}
	.st4{opacity:0.66;fill:#C0D5D0;enable-background:new    ;}
	.st5{fill:#C16C37;}
	.st6{opacity:0.55;fill:#C16C37;enable-background:new    ;}
	.st7{fill:#C0D5D0;}
	.st8{opacity:0.5;fill:#C0D5D0;enable-background:new    ;}
	.st9{opacity:0.49;fill:#C0D5D0;enable-background:new    ;}
	.st10{fill:#F8F6E8;}
	.st11{opacity:0.38;fill:#ECE9DC;enable-background:new    ;}
	.st12{fill:#BFB9A5;}
	.st13{opacity:0.5;fill:#C16C37;enable-background:new    ;}
	.st14{fill:#ECE9DC;}
	.st15{fill:#E75F67;}
</style>
<g>
	<path class="st0" d="M171.4,168.1c-19.8-8.3-41.8-12.4-61.3-3.2c-16,7.6-29.3,24.2-35.4,44.4c-1.9,6.4-3.2,13-4.4,19.6
		c-0.9,4.8-1.8,9.8-1.6,14.7c0.2,4.5,1.4,8.8,2.8,12.9c10.3,29.6,33.8,49.2,58.4,57.9s50.6,8,76.1,7.3c15.5-0.4,31.1-0.8,46.1-5.3
		c31.2-9.2,57.7-34.9,79-65.6c2.2-3.2,0.2-7.6-3.5-8h-0.1c-17.4-1.6-30.7-19.8-40.9-37.7s-20.2-37.8-36.3-46.4
		c-6.2-3.3-13.1-4.7-19.8-5c-9.8-0.4-19.7,1.4-29.1,5.4"/>
</g>
<g class="st1">
	<path class="st0" d="M189.2,173.8c-13.1-8.9,42.2,107.6,44.5,118.8c4.3,20.6,22.5,19.6,31.1-8.9c7.4-24.5,8.7-35.5,4.8-71.3
		c-1.8-16.5-12.8-29.3-23.2-38.1c-4-3.4-8.7-5.2-13.5-6.2c-6.9-1.4-14.2-0.9-21.3,1.4"/>
</g>
<g class="st1">
	<path class="st0" d="M164,176.6c-14.3-8.3-30.2-12.4-44.3-3.2c-11.6,7.6-21.2,24.2-25.6,44.4c-1.4,6.4-2.3,13-3.2,19.6
		c-0.7,4.8-1.3,9.8-1.1,14.7c0.2,4.5,1,8.8,2,12.9c7.4,29.6,24.4,49.2,42.2,57.9"/>
</g>
<circle class="st2" cx="112" cy="248.3" r="14"/>
<path class="st3" d="M150,255.9l-49.8-12.7c-1.7-0.4-2.7-2.2-2.3-3.9l13.4-52.7c3.4-13.3,17-21.4,30.3-18l7.7,2
	c13.3,3.4,21.4,17,18,30.3l-13.4,52.7C153.5,255.3,151.7,256.3,150,255.9L150,255.9z"/>
<path class="st0" d="M97.4,239.3c-0.4,1.7,0.6,3.4,2.3,3.9l49.8,12.7c1.7,0.4,3.4-0.6,3.9-2.3l0.6-2.5c-0.8,0.8-1.9,1.1-3,0.8
	l-49.8-12.7c-1.7-0.4-2.7-2.2-2.3-3.9"/>
<circle class="st2" cx="245.4" cy="248.3" r="14"/>
<path class="st3" d="M207.4,255.9l49.8-12.7c1.7-0.4,2.7-2.2,2.3-3.9l-13.4-52.7c-3.4-13.3-17-21.4-30.3-18l-7.7,2
	c-13.3,3.4-21.4,17-18,30.3l13.4,52.7C204,255.3,205.7,256.3,207.4,255.9L207.4,255.9z"/>
<path class="st4" d="M195.4,257.9l49.8-12.7c1.7-0.4,2.7-2.2,2.3-3.9l-12.3-30.7c0,0,2-10.7-1.1-22s-17-21.4-30.3-18l-7.7,2
	c-13.3,3.4-21.4,17-18,30.3l13.4,52.7C192,257.3,193.7,258.3,195.4,257.9L195.4,257.9z"/>
<path class="st5" d="M143.5,149.1h-3c-10,1.9-16.8-4.7-18.7-14.7l-6-15.8c-1.9-10.1,4.7-19.8,14.7-21.7s19.8,4.7,21.7,14.7l3,15.8
	C157.1,137.4,153.5,147.2,143.5,149.1z"/>
<path class="st6" d="M155.5,147.6l-1.3,0.8c-8.7,5.3-20.2,2.6-25.5-6.1L118.2,125c-5.3-8.7-2.6-20.2,6.1-25.5l1.3-0.8
	c8.7-5.3,20.2-2.6,25.5,6.1l10.5,17.2C167,130.8,164.2,142.2,155.5,147.6z"/>
<path class="st4" d="M159.5,257.9l-49.8-12.7c-1.7-0.4-2.7-2.2-2.3-3.9l12.3-30.7c0,0-2-10.7,1.1-22s17-21.4,30.3-18l7.7,2
	c13.3,3.4,21.4,17,18,30.3l-13.4,52.7C163,257.3,161.2,258.3,159.5,257.9L159.5,257.9z"/>
<path class="st0" d="M260,239.3c0.4,1.7-0.6,3.4-2.3,3.9l-49.8,12.7c-1.7,0.4-3.4-0.6-3.9-2.3l-0.6-2.5c0.8,0.8,1.9,1.1,3,0.8
	l49.8-12.7c1.7-0.4,2.7-2.2,2.3-3.9"/>
<path class="st7" d="M254.5,334.2c0,2.4-1.7,4.4-3.9,4.4H105c-2.1,0-3.9-2-3.9-4.4c0-14.6,2.6-60.2,2.6-60.4
	c2.1-21.8,7.2-39.6,18.5-54.1l2.7-3.3c-2.3-4.7-3.6-10.2-3.6-15.9v-0.3c0-18.2,13-33.1,28.8-33.1h52.2c15.8,0,28.8,14.9,28.8,33.1
	v0.3c0,4.8-0.9,9.3-2.5,13.4c1.6,1.6,3.1,3.4,4.5,5.2c11.8,14.7,18.2,33.5,19,55.6L254.5,334.2L254.5,334.2z"/>
<path class="st8" d="M254.2,334.5c0,2.4-1.7,4.4-3.9,4.4H109.7c30.8-6.5,126.4-32.5,141.8-73.1L254.2,334.5z"/>
<path class="st9" d="M181.5,214.8c15-6.1,39.7-39.8,39.7-39.8c9.6,10.1,10.2,21,10,26c0,0,0.1,6-2.5,12.8
	C230.3,215.4,180.5,215.9,181.5,214.8z"/>
<path class="st10" d="M238.2,310.3c0,1.9-1.3,3.4-3,3.4H121.8c-1.7,0-3-1.5-3-3.4c0-11.4,2-46.9,2-47c1.7-17,5.6-30.8,14.4-42.1
	c0.7-0.9,1.4-1.7,2.1-2.6c-1.8-3.7,82-5.2,80.7-2c1.2,1.3,2.4,2.6,3.5,4c9.2,11.5,14.1,26.1,14.8,43.2L238.2,310.3z"/>
<path class="st7" d="M91.2,273.7v0.8V273.7z"/>
<path class="st10" d="M192.8,161.3v19.5H160v-19.5l-15.3,1v56.2h63.5v-56.2L192.8,161.3z"/>
<path class="st0" d="M171.8,166.7c13.2,0,14.4-0.2,2,5.7c-12.6,5.9-29.4,0.5-38.6-8.4c-1.8-1.7,7.3-4.5,8.7-6.6
	C143.9,157.4,157.9,166.7,171.8,166.7z"/>
<path class="st0" d="M178.3,165.7c-13.2,0-14.4-0.2-2,5.7c12.6,5.9,30.4,4.5,39.6-4.4c1.8-1.7-7.3-7.5-8.7-9.6
	C207.2,157.4,192.2,165.7,178.3,165.7z"/>
<path class="st2" d="M221.9,113c0,31.1-21.5,56.3-48,56.3s-48-24.1-48-56.3c0-31.1,21.5-56.3,48-56.3S221.9,81.9,221.9,113z"/>
<path class="st11" d="M187.5,59.4c12.9,10.1,21.4,27.3,21.4,46.9c0,31.1-21.5,56.3-48,56.3c-4.8,0-9.5-0.8-13.9-2.4
	c7.6,5.9,16.7,9.4,26.6,9.4c26.5,0,48-25.2,48-56.3C221.5,87.9,207.2,66.4,187.5,59.4z"/>
<path class="st5" d="M193.3,100.1c-3.9,0.3-7.6,1.5-10.7,3.4c-0.3,0.2-0.6-0.2-0.4-0.5c3.9-3.6,9-6,14.7-6.4
	c13.3-1,24.9,8.9,25.9,22.2c0.6,7.3-0.2,14.2-5,19c-0.3,0.3-0.6-0.1-0.5-0.4c2.8-4.3,2.3-9.7,1.9-15.2
	C218.2,109,206.6,99.1,193.3,100.1z M183.7,67.2c0-3-0.2-5.9-0.6-8.7c-3.1-0.7-6.3-1.1-9.5-1.1c-26.5,0-48,25.2-48,56.3
	c0,3,0.2,5.9,0.6,8.7c3.1,0.7,6.3,1.1,9.5,1.1C162.3,123.5,183.7,98.3,183.7,67.2L183.7,67.2z"/>
<path class="st5" d="M163.9,65.3c0-3,0.2-6,0.6-8.9c3.2-0.8,6.4-1.1,9.8-1.1c27.2,0,49.2,25.8,49.2,57.7c0,3-0.2,6-0.6,8.9
	c-3.2,0.8-6.4,1.1-9.8,1.1C185.9,123.1,163.9,97.3,163.9,65.3z"/>
<circle class="st0" cx="156.8" cy="131.3" r="6.3"/>
<path class="st0" d="M150.9,129.9l-2-4.7l6.1,1.5L150.9,129.9z"/>
<circle class="st0" cx="190" cy="131.3" r="6.3"/>
<path class="st0" d="M195.9,129.9l2-4.7l-6.1,1.5L195.9,129.9z"/>
<path class="st5" d="M201.7,83.9c3.9,0,7.7,0.9,11,2.6c0.3,0.2,0.6-0.3,0.3-0.5c-4.1-3.3-9.4-5.3-15.1-5.3
	c-13.3,0-24.2,10.8-24.2,24.1c0,7.3,3.3,13.9,8.5,18.3c0.3,0.2,0.6-0.1,0.4-0.4c-3.2-4.1-5-9.2-5-14.7
	C177.5,94.7,188.3,83.9,201.7,83.9z M161.4,79.9c3.7,1.3,6.9,3.4,9.5,6c0.2,0.3,0.6-0.1,0.5-0.4c-2.8-4.5-7.2-8.1-12.6-9.9
	c-12.6-4.4-26.4,2.3-30.7,14.9c-2.4,6.9-1.4,14.2,2,20.1c0.2,0.3,0.6,0.1,0.5-0.2c-1.7-4.9-1.8-10.3,0-15.6
	C135,82.2,148.7,75.5,161.4,79.9z"/>
<path class="st5" d="M154.5,97.8c3.9,0.6,7.4,2.1,10.5,4.2c0.3,0.2,0.6-0.2,0.4-0.4c-3.6-3.9-8.5-6.6-14.2-7.4
	c-13.2-2-25.5,7.1-27.4,20.3c-1.1,7.2,0.2,14.6,4.7,19.7c0.2,0.3,0.7,0,0.5-0.3c-2.5-4.5-1.7-10.2-0.8-15.7
	C130,105,141.3,95.9,154.5,97.8z"/>
<path class="st0" d="M166.5,155.8l-9.8-4.5c-1.6-1.2-1.5-3.3,0.6-3.3c0,0,10.5,1.3,16.2,1.6c5.7,0.2,14.9-0.8,14.9-0.8
	c2,0,1.9,2.1,0.5,3.3l-7.4,3.6C177.1,158.1,171.4,158,166.5,155.8z"/>
<path class="st12" d="M172,144.9l-2.8-1.3c-0.4-0.4-0.4-0.9,0.2-0.9c0,0,3,0.4,4.6,0.4c1.6,0.1,4.2-0.2,4.2-0.2
	c0.6,0,0.5,0.6,0.1,0.9l-2.1,1C175,145.6,173.4,145.5,172,144.9z"/>
<path class="st13" d="M178.3,90.2c10.4,0.8,20.4,2.8,29.8,5.9c2.8,0.9,7.8-7.9,9.6-9.9l-4.1-8.4c2-2.3-72.3,9.7-72.3,9.7
	c1.4,2.3,3.4,4.5,6.2,4.1C157.4,89.9,167.7,89.4,178.3,90.2z"/>
<path class="st14" d="M174.5,169.4c13.2,0,14.4-0.2,2,5.7c-12.6,5.9-29.4,0.5-38.6-8.4c-1.8-1.7,6.3-3.5,7.7-5.6
	C145.6,161,160.6,169.4,174.5,169.4z M189.8,203.8c-10.8,7.5-36.2,11.8-36.2,11.8h54.5v-29.2C208.2,186.3,200.7,196.3,189.8,203.8z"
	/>
<path class="st14" d="M176.9,168.4c-13.2,0-14.4-0.2-2,5.7c12.6,5.9,30.4,4.5,39.6-4.4c1.8-1.7-7.3-7.5-8.7-9.6
	C205.8,160,190.8,168.4,176.9,168.4L176.9,168.4z"/>
<path class="st0" d="M179.7,231.9h-7.1c-1.9,0-3.4-1.5-3.4-3.4V204c0-1.9,1.5-3.4,3.4-3.4h7.1c1.9,0,3.4,1.5,3.4,3.4v24.6
	C183.1,230.4,181.6,231.9,179.7,231.9L179.7,231.9z"/>
<path class="st0" d="M191.8,212.7v7.1c0,1.9-1.5,3.4-3.4,3.4h-24.6c-1.9,0-3.4-1.5-3.4-3.4v-7.1c0-1.9,1.5-3.4,3.4-3.4h24.7
	C190.3,209.3,191.8,210.8,191.8,212.7z"/>
<path class="st10" d="M175,86c9,0,17.8,1.1,26.1,3.1c2.4,0.6,5-0.3,6.4-2.2l7.7-10.5c1.5-2.1,1.2-4.9-0.8-6.6
	C204.2,61,190.3,55.6,175,55.6c-15.5,0-29.5,5.5-39.7,14.4c-2,1.7-2.3,4.5-0.8,6.6l7.6,10.4c1.4,1.9,4,2.7,6.4,2.2
	C157,87.1,165.8,86,175,86z"/>
<path class="st14" d="M176.3,86c9,0,17.8,1.1,26.1,3.1c2.4,0.6,5-0.3,6.4-2.2l4.4-5.9c-11-5.1-24.2-6.8-37.6-4.1
	c-10.1,2.1-19.1,6.4-26.5,12.3c0.3,0,0.5-0.1,0.8-0.1C158.3,87.1,167.2,86,176.3,86z"/>
<path class="st0" d="M175.3,62.8c15.1,0,29.4,5.1,39.8,13.5l0.8-1c1.6-2.1,1.2-5-0.8-6.8c-10.5-9-24-14.5-39.7-14.5
	c-15.8,0-30.8,5.6-41.3,14.8c-2.1,1.8-2.4,4.6-0.8,6.8l1.8,2.5c0.1-0.1,0.2-0.3,0.4-0.4C145.9,68.4,159.5,62.8,175.3,62.8z"/>
<path class="st15" d="M168.2,156.3c4.5,1.6,9.5,1.5,13.5-0.7l0.2-0.1c-1.6-0.8-3.8-1.2-6.2-1.2C172.6,154.3,169.9,155.1,168.2,156.3
	z"/>
<path class="st14" d="M238.3,311.3c0,1.9-1.3,3.4-3,3.4h-52.7c26.3-10.7,42.8-17.2,54.3-34L238.3,311.3z"/>
</svg>
