<svg id="Layer_1" xmlns="http://www.w3.org/2000/svg" viewBox="0 0 396 204"><style>.st0{fill:#966891}.st8{fill:#f8eec8}</style><circle class="st0" cx="121.6" cy="100.1" r="29.4"/><path class="st0" d="M142.2 79.1c3.9 5 6.2 11.2 6.2 18.1 0 16.2-13.1 29.4-29.4 29.4-8.1 0-15.4-3.2-20.7-8.5 5.4 6.9 13.7 11.3 23.1 11.3 16.2 0 29.4-13.1 29.4-29.4.1-8.2-3.2-15.6-8.6-20.9z" opacity=".48"/><path d="M132.3 72.9l-29 50.1c1.2 1 .7.8 2 1.6s1 .4 2.4.9l29-50.1c-1.2-1-.7-.8-2-1.6s-1-.3-2.4-.9z" opacity=".6" fill="#966891"/><circle cx="45" cy="44.4" r="28.9" fill="#c0d5d0"/><path d="M65.3 23.7c3.8 4.9 6.1 11.1 6.1 17.8 0 16-12.9 28.9-28.9 28.9-7.9 0-15.1-3.2-20.3-8.4 5.3 6.8 13.5 11.1 22.8 11.1 16 0 28.9-12.9 28.9-28.9 0-8-3.3-15.2-8.6-20.5z" fill="#9fb7b2" opacity=".44"/><path d="M51.8 15.9L27.9 67.6c1.3.8.7.8 2.1 1.4 1.4.7 1 .3 2.5.7L56.4 18c-1.3-.8-.7-.8-2.1-1.4-1.5-.7-1.1-.3-2.5-.7z" fill="#6a9a9b" opacity=".6"/><circle class="st8" cx="334" cy="147.1" r="42.5"/><path d="M363.9 116.7c5.6 7.2 9 16.3 9 26.2 0 23.5-19 42.5-42.5 42.5-11.7 0-22.2-4.7-29.9-12.3 7.8 10 19.9 16.4 33.5 16.4 23.5 0 42.5-19 42.5-42.5 0-11.9-4.8-22.6-12.6-30.3z" fill="#f3c74a" opacity=".33"/><path class="st8" d="M299.6 122.8l64 54.3c1.7-1.4 1.4-.7 2.9-2.5 1.5-1.7.8-1.3 2-3.2l-64-54.3c-1.7 1.4-1.4.7-2.9 2.5-1.5 1.7-.8 1.3-2 3.2z"/></svg>