<?xml version="1.0" encoding="utf-8"?>
<!-- Generator: Adobe Illustrator 21.1.0, SVG Export Plug-In . SVG Version: 6.00 Build 0)  -->
<svg version="1.1" id="Layer_1" xmlns="http://www.w3.org/2000/svg" xmlns:xlink="http://www.w3.org/1999/xlink" x="0px" y="0px"
	 viewBox="0 0 396 204" style="enable-background:new 0 0 396 204;" xml:space="preserve">
<style type="text/css">
	.st0{fill:#966891;}
	.st1{opacity:0.48;}
	.st2{opacity:0.6;fill:#966891;}
	.st3{fill:#C0D5D0;}
	.st4{opacity:0.44;}
	.st5{fill:#9FB7B2;}
	.st6{opacity:0.6;}
	.st7{fill:#6A9A9B;}
	.st8{fill:#F8EEC8;}
	.st9{opacity:0.33;}
	.st10{fill:#F3C74A;}
</style>
<circle class="st0" cx="121.6" cy="100.1" r="29.4"/>
<g class="st1">
	<path class="st0" d="M142.2,79.1c3.9,5,6.2,11.2,6.2,18.1c0,16.2-13.1,29.4-29.4,29.4c-8.1,0-15.4-3.2-20.7-8.5
		c5.4,6.9,13.7,11.3,23.1,11.3c16.2,0,29.4-13.1,29.4-29.4C150.9,91.8,147.6,84.4,142.2,79.1z"/>
</g>
<g>
	<path class="st2" d="M132.3,72.9l-29,50.1c1.2,1,0.7,0.8,2,1.6s1,0.4,2.4,0.9l29-50.1c-1.2-1-0.7-0.8-2-1.6S133.7,73.5,132.3,72.9z
		"/>
</g>
<circle class="st3" cx="45" cy="44.4" r="28.9"/>
<g class="st4">
	<path class="st5" d="M65.3,23.7c3.8,4.9,6.1,11.1,6.1,17.8c0,16-12.9,28.9-28.9,28.9c-7.9,0-15.1-3.2-20.3-8.4
		c5.3,6.8,13.5,11.1,22.8,11.1c16,0,28.9-12.9,28.9-28.9C73.9,36.2,70.6,29,65.3,23.7z"/>
</g>
<g class="st6">
	<path class="st7" d="M51.8,15.9L27.9,67.6c1.3,0.8,0.7,0.8,2.1,1.4c1.4,0.7,1,0.3,2.5,0.7L56.4,18c-1.3-0.8-0.7-0.8-2.1-1.4
		C52.8,15.9,53.2,16.3,51.8,15.9z"/>
</g>
<circle class="st8" cx="334" cy="147.1" r="42.5"/>
<g class="st9">
	<path class="st10" d="M363.9,116.7c5.6,7.2,9,16.3,9,26.2c0,23.5-19,42.5-42.5,42.5c-11.7,0-22.2-4.7-29.9-12.3
		c7.8,10,19.9,16.4,33.5,16.4c23.5,0,42.5-19,42.5-42.5C376.5,135.1,371.7,124.4,363.9,116.7z"/>
</g>
<g>
	<path class="st8" d="M299.6,122.8l64,54.3c1.7-1.4,1.4-0.7,2.9-2.5c1.5-1.7,0.8-1.3,2-3.2l-64-54.3c-1.7,1.4-1.4,0.7-2.9,2.5
		C300.1,121.3,300.8,120.9,299.6,122.8z"/>
</g>
</svg>
