<svg id="Layer_1" xmlns="http://www.w3.org/2000/svg" viewBox="0 0 225 377"><style>.st1{fill:#f8f6e8}.st4{fill:#ece9dc}.st5{fill:#783361}.st6{fill:#e75f67}.st7{fill:#c0d5d0}.st8{fill:#966891}.st9{opacity:.17;fill:#c16c37}.st10{fill:#f8eec8}.st11{fill:#f3c74a}.st12{fill:#bfa6c2}.st14{fill:#f7c1b6}.st15{fill:#f58777}.st16{opacity:.21;fill:#966891}.st17{opacity:.6;fill:#783361}.st18{opacity:.29;fill:#c0d5d0}.st19{fill:#9fb7b2}.st20{opacity:.6;fill:#6a9a9b}.st21{opacity:.67;fill:#f3c74a}.st23{opacity:.77;fill:#f58777}</style><path d="M175.4 362H66.2c-16.7 0-30.4-13.7-30.4-30.4V51.4C35.8 34.7 49.5 21 66.2 21h109.3c16.7 0 30.4 13.7 30.4 30.4v280.3c-.1 16.6-13.8 30.3-30.5 30.3z" opacity=".07" fill="#5d5e5e"/><path class="st1" d="M169.1 356.1H59.9c-16.7 0-30.4-13.7-30.4-30.4V45.5c0-16.7 13.7-30.4 30.4-30.4h109.3c16.7 0 30.4 13.7 30.4 30.4v280.3c-.1 16.7-13.8 30.3-30.5 30.3z"/><path d="M191.7 25.7c3.4 4.9 5.4 10.9 5.4 17.3v280.3c0 16.7-13.7 30.4-30.4 30.4H57.5c-8.6 0-16.4-3.6-21.9-9.4 5.5 7.9 14.6 13.1 24.9 13.1h109.3c16.7 0 30.4-13.7 30.4-30.4V46.6c-.1-8.1-3.3-15.5-8.5-20.9z" fill="#d8d6ce"/><path d="M181 296H47.3c-3.4 0-6.1-2.7-6.1-6.1V61.1c0-3.4 2.7-6.1 6.1-6.1H181c3.4 0 6.1 2.7 6.1 6.1v228.8c0 3.4-2.7 6.1-6.1 6.1z" fill="#194e66"/><path class="st4" d="M127.1 46h-26c-3 0-5.5-2.5-5.5-5.5s2.5-5.5 5.5-5.5h26c3 0 5.5 2.5 5.5 5.5s-2.4 5.5-5.5 5.5z"/><circle class="st4" cx="114.1" cy="324.3" r="18"/><path class="st5" d="M79.3 99.3H60.7c-4.4 0-8.1-3.6-8.1-8.1V72.7c0-4.4 3.6-8.1 8.1-8.1h18.5c4.4 0 8.1 3.6 8.1 8.1v18.5c0 4.5-3.6 8.1-8 8.1z"/><path class="st6" d="M123.3 99.3h-18.5c-4.4 0-8.1-3.6-8.1-8.1V72.7c0-4.4 3.6-8.1 8.1-8.1h18.5c4.4 0 8.1 3.6 8.1 8.1v18.5c-.1 4.5-3.7 8.1-8.1 8.1z"/><path class="st7" d="M167.3 99.3h-18.5c-4.4 0-8.1-3.6-8.1-8.1V72.7c0-4.4 3.6-8.1 8.1-8.1h18.5c4.4 0 8.1 3.6 8.1 8.1v18.5c-.1 4.5-3.7 8.1-8.1 8.1zm-88 44.3H60.7c-4.4 0-8.1-3.6-8.1-8.1V117c0-4.4 3.6-8.1 8.1-8.1h18.5c4.4 0 8.1 3.6 8.1 8.1v18.5c0 4.4-3.6 8.1-8 8.1z"/><path class="st5" d="M123.3 143.6h-18.5c-4.4 0-8.1-3.6-8.1-8.1V117c0-4.4 3.6-8.1 8.1-8.1h18.5c4.4 0 8.1 3.6 8.1 8.1v18.5c-.1 4.4-3.7 8.1-8.1 8.1z"/><path class="st8" d="M167.3 143.6h-18.5c-4.4 0-8.1-3.6-8.1-8.1V117c0-4.4 3.6-8.1 8.1-8.1h18.5c4.4 0 8.1 3.6 8.1 8.1v18.5c-.1 4.4-3.7 8.1-8.1 8.1zm-88 44.2H60.7c-4.4 0-8.1-3.6-8.1-8.1v-18.5c0-4.4 3.6-8.1 8.1-8.1h18.5c4.4 0 8.1 3.6 8.1 8.1v18.5c0 4.4-3.6 8.1-8 8.1z"/><path class="st6" d="M123.3 187.8h-18.5c-4.4 0-8.1-3.6-8.1-8.1v-18.5c0-4.4 3.6-8.1 8.1-8.1h18.5c4.4 0 8.1 3.6 8.1 8.1v18.5c-.1 4.4-3.7 8.1-8.1 8.1z"/><path class="st7" d="M167.3 187.8h-18.5c-4.4 0-8.1-3.6-8.1-8.1v-18.5c0-4.4 3.6-8.1 8.1-8.1h18.5c4.4 0 8.1 3.6 8.1 8.1v18.5c-.1 4.4-3.7 8.1-8.1 8.1z"/><path class="st6" d="M79.3 232H60.7c-4.4 0-8.1-3.6-8.1-8.1v-18.5c0-4.4 3.6-8.1 8.1-8.1h18.5c4.4 0 8.1 3.6 8.1 8.1v18.5c0 4.5-3.6 8.1-8 8.1z"/><path class="st8" d="M123.3 232h-18.5c-4.4 0-8.1-3.6-8.1-8.1v-18.5c0-4.4 3.6-8.1 8.1-8.1h18.5c4.4 0 8.1 3.6 8.1 8.1v18.5c-.1 4.5-3.7 8.1-8.1 8.1z"/><path class="st5" d="M167.3 232h-18.5c-4.4 0-8.1-3.6-8.1-8.1v-18.5c0-4.4 3.6-8.1 8.1-8.1h18.5c4.4 0 8.1 3.6 8.1 8.1v18.5c-.1 4.5-3.7 8.1-8.1 8.1z"/><path class="st9" d="M151.1 181.4c-2.4-1.8-2.9-5.3-1.1-7.7l8-10.7c1.8-2.4 5.3-2.9 7.7-1.1 2.4 1.8 2.9 5.3 1.1 7.7l-8 10.7c-1.8 2.4-5.3 2.9-7.7 1.1z"/><path class="st10" d="M150.7 180.1c-2.4-1.8-2.9-5.3-1.1-7.7l8-10.7c1.8-2.4 5.3-2.9 7.7-1.1 2.4 1.8 2.9 5.3 1.1 7.7l-8 10.7c-1.8 2.4-5.2 3-7.7 1.1z"/><path class="st11" d="M150.7 180.2c-2.4-1.8-2.9-5.3-1.1-7.7l4.3-5.8 8.9 6.6-4.3 5.8c-1.9 2.4-5.4 2.9-7.8 1.1z"/><path class="st10" d="M167.3 163.5c0 1.1-.4 2.3-1.1 3.2l-8 10.7c-1.8 2.4-5.3 2.9-7.7 1.1-1-.7-1.6-1.7-2-2.8 0 1.7.7 3.4 2.2 4.5 2.4 1.8 5.9 1.3 7.7-1.1l8-10.7c1.2-1.4 1.4-3.3.9-4.9z"/><path class="st9" d="M105.3 163c2.1-2.2 5.6-2.4 7.8-.3l9.8 9.1c2.2 2.1 2.4 5.6.3 7.8s-5.6 2.4-7.8.3l-9.8-9.1c-2.3-2-2.4-5.6-.3-7.8z"/><path class="st12" d="M106.6 162.8c2.1-2.2 5.6-2.4 7.8-.3l9.8 9.1c2.2 2.1 2.4 5.6.3 7.8s-5.6 2.4-7.8.3l-9.8-9.1c-2.3-2-2.4-5.6-.3-7.8z"/><path class="st5" d="M106.5 162.7c2.1-2.2 5.6-2.4 7.8-.3l5.3 4.9-7.5 8.1-5.3-4.9c-2.3-2-2.4-5.5-.3-7.8z"/><path d="M121.3 181.1c-1.1-.1-2.2-.6-3.1-1.4l-9.8-9.1c-2.2-2.1-2.4-5.6-.3-7.8.8-.9 1.9-1.4 3-1.7-1.7-.2-3.5.4-4.7 1.7-2.1 2.2-1.9 5.8.3 7.8l9.8 9.1c1.3 1.3 3.2 1.7 4.8 1.4z" opacity=".16" fill="#473654"/><path class="st9" d="M60 90.2c-1.9-2.4-1.5-5.9.9-7.8l10.5-8.3c2.4-1.9 5.9-1.5 7.8.9 1.9 2.4 1.5 5.9-.9 7.8l-10.5 8.3c-2.4 1.9-5.9 1.5-7.8-.9z"/><path class="st14" d="M60 88.9c-1.9-2.4-1.5-5.9.9-7.8l10.5-8.3c2.4-1.9 5.9-1.5 7.8.9 1.9 2.4 1.5 5.9-.9 7.8l-10.5 8.3c-2.4 1.9-5.9 1.5-7.8-.9z"/><path class="st15" d="M59.9 88.9c-1.9-2.4-1.5-5.9.9-7.8l5.7-4.5 6.8 8.7-5.7 4.5c-2.3 2-5.8 1.5-7.7-.9z"/><path class="st10" d="M80.4 77.1c-.3 1.1-.9 2.1-1.9 2.8L68 88.2c-2.4 1.9-5.9 1.5-7.8-.9-.7-.9-1.1-2.1-1.2-3.2-.5 1.7-.2 3.5 1 5 1.9 2.4 5.4 2.8 7.8.9l10.5-8.3c1.4-1.1 2.1-2.9 2.1-4.6z"/><circle class="st8" cx="116.3" cy="75.2" r="5.2"/><circle class="st16" cx="116.8" cy="75.9" r="5.2"/><path class="st8" d="M118.9 70.5c.8.9 1.4 2.2 1.4 3.5 0 2.9-2.3 5.2-5.2 5.2-1 0-2-.3-2.8-.8 1 1.1 2.3 1.7 3.9 1.7 2.9 0 5.2-2.3 5.2-5.2-.1-1.8-1.1-3.4-2.5-4.4z"/><path class="st17" d="M121.2 73.4l-10 2.7v.5c.1.3.1.2.2.4l10-2.7v-.5c-.1-.3-.1-.2-.2-.4z"/><circle class="st8" cx="111.3" cy="88.8" r="5.2"/><circle class="st16" cx="111.9" cy="89.5" r="5.2"/><path class="st8" d="M113.9 84.1c.8.9 1.4 2.2 1.4 3.5 0 2.9-2.3 5.2-5.2 5.2-1 0-2-.3-2.8-.8 1 1.1 2.3 1.7 3.9 1.7 2.9 0 5.2-2.3 5.2-5.2 0-1.8-1-3.4-2.5-4.4z"/><path class="st17" d="M116.3 90.1l-9.7-3.6c-.1.2-.1.1-.2.4-.1.3 0 .2-.1.5L116 91c.1-.2.1-.1.2-.4.1-.3.1-.2.1-.5z"/><ellipse transform="rotate(-44.299 164.77 123.55)" class="st18" cx="164.8" cy="123.6" rx="5.4" ry="5.4"/><ellipse transform="rotate(-44.299 164.917 122.611)" class="st7" cx="164.9" cy="122.6" rx="5.4" ry="5.4"/><path class="st19" d="M170.3 121.5c-.1 1.6-.9 3.2-2.4 4.2-1.7 1.2-4.1 1.2-5.8.1-1.4-.8-2.2-2.1-2.5-3.5-.1 1.8.7 3.7 2.4 4.8 1.7 1.2 4.1 1.2 5.9.1 2.1-1.2 2.9-3.6 2.4-5.7z"/><path class="st20" d="M169.8 124.9l-9.2-5.5c-.2.2-.2.1-.3.4-.1.3-.1.2-.2.4l9.2 5.5c.2-.2.2-.1.3-.4.1-.2.1-.1.2-.4z"/><ellipse transform="rotate(-44.299 151.116 129.7)" class="st18" cx="151.1" cy="129.7" rx="5.4" ry="5.4"/><ellipse transform="rotate(-44.299 151.262 128.762)" class="st7" cx="151.3" cy="128.8" rx="5.4" ry="5.4"/><path class="st19" d="M156.7 127.7c-.1 1.6-.9 3.2-2.4 4.2-1.7 1.2-4.1 1.2-5.8.1-1.4-.8-2.2-2.1-2.5-3.5-.1 1.8.7 3.7 2.4 4.8 1.7 1.2 4.1 1.2 5.9.1 2-1.3 2.8-3.6 2.4-5.7z"/><path class="st20" d="M153.9 133.5l-4.4-9.8c-.3.1-.2 0-.5.1s-.2.1-.4.3l4.4 9.8c.3-.1.2 0 .5-.1.3-.2.2-.2.4-.3z"/><g><ellipse transform="rotate(-87.439 76.31 218.771)" class="st18" cx="76.3" cy="218.8" rx="5.4" ry="5.4"/><ellipse transform="rotate(-87.439 77.096 218.235)" class="st10" cx="77.1" cy="218.2" rx="5.4" ry="5.4"/><path class="st11" d="M81.6 221.4c-1.2 1-2.9 1.5-4.7 1.1-2-.5-3.7-2.1-4.1-4.2-.3-1.6.1-3 .8-4.2-1.4 1.2-2.2 3-1.9 5.1.3 2.1 1.9 3.8 4 4.3 2.4.7 4.7-.3 5.9-2.1z"/><path class="st11" d="M78.7 223.4L76.4 213h-.5c-.3.1-.2.1-.4.2l2.3 10.4h.5c.2-.1.1-.1.4-.2z"/><ellipse transform="rotate(-87.439 62.485 213.014)" class="st18" cx="62.5" cy="213" rx="5.4" ry="5.4"/><ellipse transform="rotate(-87.439 63.27 212.479)" class="st10" cx="63.3" cy="212.5" rx="5.4" ry="5.4"/><path class="st11" d="M67.8 215.7c-1.2 1-2.9 1.5-4.7 1.1-2-.5-3.7-2.1-4.1-4.2-.3-1.6.1-3 .8-4.2-1.4 1.2-2.2 3-1.9 5.1.3 2.1 1.9 3.8 4 4.3 2.4.7 4.6-.3 5.9-2.1z"/><path class="st11" d="M61.6 217.6l4.1-9.9c-.2-.1-.1-.1-.4-.3-.3-.1-.2 0-.5-.1l-4.1 9.9c.2.1.1.1.4.3.3.1.3 0 .5.1z"/></g><g><path class="st11" d="M104 120.6h19v22.9h-19z"/><path class="st10" d="M104.5 142.7h8.9c.7 0 1.2-.5 1.2-1.2v-16.1c0-.7-.5-1.2-1.2-1.2h-8.9c-.3 0-.6.3-.6.7V142c0 .4.2.7.6.7z"/><path class="st21" d="M104 126.5v-5.2c0-.6.5-1 1-1h17c.6 0 1 .5 1 1v1.8l-19 3.4z"/><path class="st1" d="M124.2 122.2h-21.3c-.6 0-1-.4-1-1v-3.6c0-.6.4-1 1-1h21.3c.6 0 1 .4 1 1v3.6c-.1.6-.5 1-1 1z"/><path class="st7" d="M103.7 122.4v-3.7c0-.1-.1-.2-.2-.2s-.2.1-.2.2v3.7h.4zm3.4 0v-3.7c0-.1-.1-.2-.2-.2s-.2.1-.2.2v3.7h.4zm3.4 0v-3.7c0-.1-.1-.2-.2-.2s-.2.1-.2.2v3.7h.4zm3.4 0v-3.7c0-.1-.1-.2-.2-.2s-.2.1-.2.2v3.7h.4zm3.4 0v-3.7c0-.1-.1-.2-.2-.2s-.2.1-.2.2v3.7h.4zm3.4 0v-3.7c0-.1-.1-.2-.2-.2s-.2.1-.2.2v3.7h.4zm3.4 0v-3.7c0-.1-.1-.2-.2-.2s-.2.1-.2.2v3.7h.4z"/><path class="st1" d="M123.3 122.5h-19.6c-1 0-1.8-.8-1.8-1.8 0-.2.1-.3.3-.3h22.7c.2 0 .3.1.3.3-.1.9-.9 1.8-1.9 1.8z"/></g><g><path class="st5" d="M104.3 208.4h19v22.9h-19z"/><path class="st12" d="M104.7 230.4h8.9c.7 0 1.2-.5 1.2-1.2v-16.1c0-.7-.5-1.2-1.2-1.2h-8.9c-.3 0-.6.3-.6.7v17.1c0 .5.3.7.6.7z"/><path d="M104.2 214.3v-5.2c0-.6.5-1 1-1h17c.6 0 1 .5 1 1v1.8l-19 3.4z" opacity=".27" fill="#783361"/><path class="st1" d="M124.4 210h-21.3c-.6 0-1-.4-1-1v-3.6c0-.6.4-1 1-1h21.3c.6 0 1 .4 1 1v3.6c0 .5-.4 1-1 1z"/><path class="st7" d="M103.9 210.1v-3.7c0-.1-.1-.2-.2-.2s-.2.1-.2.2v3.7h.4zm3.4 0v-3.7c0-.1-.1-.2-.2-.2s-.2.1-.2.2v3.7h.4zm3.4 0v-3.7c0-.1-.1-.2-.2-.2s-.2.1-.2.2v3.7h.4zm3.4 0v-3.7c0-.1-.1-.2-.2-.2s-.2.1-.2.2v3.7h.4zm3.5 0v-3.7c0-.1-.1-.2-.2-.2s-.2.1-.2.2v3.7h.4zm3.4 0v-3.7c0-.1-.1-.2-.2-.2s-.2.1-.2.2v3.7h.4zm3.4 0v-3.7c0-.1-.1-.2-.2-.2s-.2.1-.2.2v3.7h.4z"/><path class="st1" d="M123.6 210.2H104c-1 0-1.8-.8-1.8-1.8 0-.2.1-.3.3-.3h22.7c.2 0 .3.1.3.3-.1 1-.9 1.8-1.9 1.8z"/></g><g><path class="st15" d="M148.5 77.3h19v22.9h-19z"/><path class="st14" d="M149 98.4h8.9c.7 0 1.2-.5 1.2-1.2V81.1c0-.7-.5-1.2-1.2-1.2H149c-.3 0-.6.3-.6.7v17.1c0 .4.2.7.6.7z"/><path class="st21" d="M148.5 82.2V77c0-.6.5-1 1-1h17c.6 0 1 .5 1 1v1.8l-19 3.4z"/><path class="st1" d="M168.7 77.9h-21.3c-.6 0-1-.4-1-1v-3.6c0-.6.4-1 1-1h21.3c.6 0 1 .4 1 1v3.6c0 .5-.5 1-1 1z"/><path class="st7" d="M148.2 78.1v-3.7c0-.1-.1-.2-.2-.2s-.2.1-.2.2v3.7h.4zm3.4 0v-3.7c0-.1-.1-.2-.2-.2s-.2.1-.2.2v3.7h.4zm3.4 0v-3.7c0-.1-.1-.2-.2-.2s-.2.1-.2.2v3.7h.4zm3.4 0v-3.7c0-.1-.1-.2-.2-.2s-.2.1-.2.2v3.7h.4zm3.4 0v-3.7c0-.1-.1-.2-.2-.2s-.2.1-.2.2v3.7h.4zm3.4 0v-3.7c0-.1-.1-.2-.2-.2s-.2.1-.2.2v3.7h.4zm3.4 0v-3.7c0-.1-.1-.2-.2-.2s-.2.1-.2.2v3.7h.4z"/><path class="st1" d="M167.8 78.1h-19.6c-1 0-1.8-.8-1.8-1.8 0-.2.1-.3.3-.3h22.7c.2 0 .3.1.3.3 0 1-.9 1.8-1.9 1.8z"/></g><g><path class="st15" d="M81 178.6v9.2H58.7v-9.2c0-1.8 1.5-3.3 3.3-3.3h.3c1.9 0 3.4-1.5 3.4-3.4v-.6h8.6v.6c0 1.9 1.5 3.4 3.4 3.4 1.8 0 3.3 1.5 3.3 3.3z"/><path class="st23" d="M62 175.5c1.9 0 3.4-1.5 3.4-3.4v-.6H74v.6c0 1.8-12 3.4-12 3.4z"/><path class="st1" d="M74.7 171.7h-9.5c-.6 0-1.1-.5-1.1-1.1v-2.3c0-.6.5-1.1 1.1-1.1h9.5c.6 0 1.1.5 1.1 1.1v2.3c-.1.6-.5 1.1-1.1 1.1z"/><path class="st7" d="M66.1 171.8V169c0-.1-.1-.1-.1-.1-.1 0-.1.1-.1.1v2.9c0-.1.1-.1.2-.1zm2.7 0V169c0-.1-.1-.1-.1-.1-.1 0-.1.1-.1.1v2.9c0-.1.1-.1.2-.1zm2.7 0V169c0-.1-.1-.1-.1-.1-.1 0-.1.1-.1.1v2.9c0-.1.1-.1.2-.1zm2.6 0V169c0-.1-.1-.1-.1-.1-.1 0-.1.1-.1.1v2.9c.1-.1.2-.1.2-.1z"/><path class="st1" d="M74.3 171.9h-8.7c-.8 0-1.5-.7-1.5-1.5 0-.1.1-.2.2-.2h11.1c.1 0 .2.1.2.2.1.9-.5 1.5-1.3 1.5z"/><path class="st14" d="M58.6 182.8H81v5.1H58.6z"/></g><g><path class="st11" d="M81.3 134.4v9.2H59v-9.2c0-1.8 1.5-3.3 3.3-3.3h.3c1.9 0 3.4-1.5 3.4-3.4v-.7h8.6v.6c0 1.9 1.5 3.4 3.4 3.4 1.8 0 3.3 1.5 3.3 3.4z"/><path class="st23" d="M62.3 131.2c1.9 0 3.4-1.5 3.4-3.4v-.6h8.6v.6c0 1.9-12 3.4-12 3.4z"/><path class="st1" d="M74.9 127.4h-9.5c-.6 0-1.1-.5-1.1-1.1V124c0-.6.5-1.1 1.1-1.1h9.5c.6 0 1.1.5 1.1 1.1v2.3c0 .7-.5 1.1-1.1 1.1z"/><path class="st7" d="M66.3 127.6v-2.9c0-.1-.1-.1-.1-.1-.1 0-.1.1-.1.1v2.9h.2zm2.7 0v-2.9c0-.1-.1-.1-.1-.1-.1 0-.1.1-.1.1v2.9h.2zm2.7 0v-2.9c0-.1-.1-.1-.1-.1-.1 0-.1.1-.1.1v2.9h.2zm2.7 0v-2.9c0-.1-.1-.1-.1-.1-.1 0-.1.1-.1.1v2.9h.2z"/><path class="st1" d="M74.5 127.7h-8.7c-.8 0-1.5-.7-1.5-1.5 0-.1.1-.2.2-.2h11.1c.1 0 .2.1.2.2.2.8-.5 1.5-1.3 1.5z"/><path class="st10" d="M58.8 138.6h22.4v5.1H58.8z"/></g><g><path class="st7" d="M168.8 222.9v9.2h-22.3v-9.2c0-1.8 1.5-3.3 3.3-3.3h.3c1.9 0 3.4-1.5 3.4-3.4v-.6h8.6v.6c0 1.9 1.5 3.4 3.4 3.4 1.8-.1 3.3 1.4 3.3 3.3z"/><path class="st23" d="M149.8 219.7c1.9 0 3.4-1.5 3.4-3.4v-.6h8.6v.6c0 1.9-12 3.4-12 3.4z"/><path class="st1" d="M162.4 215.9H153c-.6 0-1.1-.5-1.1-1.1v-2.3c0-.6.5-1.1 1.1-1.1h9.5c.6 0 1.1.5 1.1 1.1v2.3c-.1.7-.6 1.1-1.2 1.1z"/><path class="st7" d="M153.8 216.1v-2.9c0-.1-.1-.1-.1-.1-.1 0-.1.1-.1.1v2.9h.2zm2.7 0v-2.9c0-.1-.1-.1-.1-.1-.1 0-.1.1-.1.1v2.9h.2zm2.7 0v-2.9c0-.1-.1-.1-.1-.1-.1 0-.1.1-.1.1v2.9h.2zm2.7 0v-2.9c0-.1-.1-.1-.1-.1-.1 0-.1.1-.1.1v2.9h.2z"/><path class="st1" d="M162 216.2h-8.7c-.8 0-1.5-.7-1.5-1.5 0-.1.1-.2.2-.2h11.1c.1 0 .2.1.2.2.2.8-.5 1.5-1.3 1.5z"/><path fill="#6a9a9b" d="M146.3 227.1h22.4v5.1h-22.4z"/></g></svg>