<?xml version="1.0" encoding="utf-8"?>
<!-- Generator: Adobe Illustrator 21.1.0, SVG Export Plug-In . SVG Version: 6.00 Build 0)  -->
<svg version="1.1" id="Layer_1" xmlns="http://www.w3.org/2000/svg" xmlns:xlink="http://www.w3.org/1999/xlink" x="0px" y="0px"
	 viewBox="0 0 225 377" style="enable-background:new 0 0 225 377;" xml:space="preserve">
<style type="text/css">
	.st0{opacity:7.000000e-02;fill:#5D5E5E;}
	.st1{fill:#F8F6E8;}
	.st2{fill:#D8D6CE;}
	.st3{fill:#194E66;}
	.st4{fill:#ECE9DC;}
	.st5{fill:#783361;}
	.st6{fill:#E75F67;}
	.st7{fill:#C0D5D0;}
	.st8{fill:#966891;}
	.st9{opacity:0.17;fill:#C16C37;}
	.st10{fill:#F8EEC8;}
	.st11{fill:#F3C74A;}
	.st12{fill:#BFA6C2;}
	.st13{opacity:0.16;fill:#473654;}
	.st14{fill:#F7C1B6;}
	.st15{fill:#F58777;}
	.st16{opacity:0.21;fill:#966891;}
	.st17{opacity:0.6;fill:#783361;}
	.st18{opacity:0.29;fill:#C0D5D0;}
	.st19{fill:#9FB7B2;}
	.st20{opacity:0.6;fill:#6A9A9B;}
	.st21{opacity:0.67;fill:#F3C74A;}
	.st22{opacity:0.27;fill:#783361;}
	.st23{opacity:0.77;fill:#F58777;}
	.st24{fill:#6A9A9B;}
</style>
<g>
	<path class="st0" d="M175.4,362H66.2c-16.7,0-30.4-13.7-30.4-30.4V51.4C35.8,34.7,49.5,21,66.2,21h109.3
		c16.7,0,30.4,13.7,30.4,30.4v280.3C205.8,348.3,192.1,362,175.4,362z"/>
	<path class="st1" d="M169.1,356.1H59.9c-16.7,0-30.4-13.7-30.4-30.4V45.5c0-16.7,13.7-30.4,30.4-30.4h109.3
		c16.7,0,30.4,13.7,30.4,30.4v280.3C199.5,342.5,185.8,356.1,169.1,356.1z"/>
	<g>
		<path class="st2" d="M191.7,25.7c3.4,4.9,5.4,10.9,5.4,17.3v280.3c0,16.7-13.7,30.4-30.4,30.4H57.5c-8.6,0-16.4-3.6-21.9-9.4
			c5.5,7.9,14.6,13.1,24.9,13.1h109.3c16.7,0,30.4-13.7,30.4-30.4V46.6C200.1,38.5,196.9,31.1,191.7,25.7z"/>
	</g>
	<path class="st3" d="M181,296H47.3c-3.4,0-6.1-2.7-6.1-6.1V61.1c0-3.4,2.7-6.1,6.1-6.1H181c3.4,0,6.1,2.7,6.1,6.1v228.8
		C187.1,293.3,184.4,296,181,296z"/>
	<path class="st4" d="M127.1,46h-26c-3,0-5.5-2.5-5.5-5.5v0c0-3,2.5-5.5,5.5-5.5h26c3,0,5.5,2.5,5.5,5.5v0
		C132.6,43.5,130.2,46,127.1,46z"/>
	<circle class="st4" cx="114.1" cy="324.3" r="18"/>
	<g>
		<path class="st5" d="M79.3,99.3H60.7c-4.4,0-8.1-3.6-8.1-8.1V72.7c0-4.4,3.6-8.1,8.1-8.1h18.5c4.4,0,8.1,3.6,8.1,8.1v18.5
			C87.3,95.7,83.7,99.3,79.3,99.3z"/>
		<path class="st6" d="M123.3,99.3h-18.5c-4.4,0-8.1-3.6-8.1-8.1V72.7c0-4.4,3.6-8.1,8.1-8.1h18.5c4.4,0,8.1,3.6,8.1,8.1v18.5
			C131.3,95.7,127.7,99.3,123.3,99.3z"/>
		<path class="st7" d="M167.3,99.3h-18.5c-4.4,0-8.1-3.6-8.1-8.1V72.7c0-4.4,3.6-8.1,8.1-8.1h18.5c4.4,0,8.1,3.6,8.1,8.1v18.5
			C175.3,95.7,171.7,99.3,167.3,99.3z"/>
	</g>
	<g>
		<path class="st7" d="M79.3,143.6H60.7c-4.4,0-8.1-3.6-8.1-8.1V117c0-4.4,3.6-8.1,8.1-8.1h18.5c4.4,0,8.1,3.6,8.1,8.1v18.5
			C87.3,139.9,83.7,143.6,79.3,143.6z"/>
		<path class="st5" d="M123.3,143.6h-18.5c-4.4,0-8.1-3.6-8.1-8.1V117c0-4.4,3.6-8.1,8.1-8.1h18.5c4.4,0,8.1,3.6,8.1,8.1v18.5
			C131.3,139.9,127.7,143.6,123.3,143.6z"/>
		<path class="st8" d="M167.3,143.6h-18.5c-4.4,0-8.1-3.6-8.1-8.1V117c0-4.4,3.6-8.1,8.1-8.1h18.5c4.4,0,8.1,3.6,8.1,8.1v18.5
			C175.3,139.9,171.7,143.6,167.3,143.6z"/>
	</g>
	<g>
		<path class="st8" d="M79.3,187.8H60.7c-4.4,0-8.1-3.6-8.1-8.1v-18.5c0-4.4,3.6-8.1,8.1-8.1h18.5c4.4,0,8.1,3.6,8.1,8.1v18.5
			C87.3,184.1,83.7,187.8,79.3,187.8z"/>
		<path class="st6" d="M123.3,187.8h-18.5c-4.4,0-8.1-3.6-8.1-8.1v-18.5c0-4.4,3.6-8.1,8.1-8.1h18.5c4.4,0,8.1,3.6,8.1,8.1v18.5
			C131.3,184.1,127.7,187.8,123.3,187.8z"/>
		<path class="st7" d="M167.3,187.8h-18.5c-4.4,0-8.1-3.6-8.1-8.1v-18.5c0-4.4,3.6-8.1,8.1-8.1h18.5c4.4,0,8.1,3.6,8.1,8.1v18.5
			C175.3,184.1,171.7,187.8,167.3,187.8z"/>
	</g>
	<g>
		<path class="st6" d="M79.3,232H60.7c-4.4,0-8.1-3.6-8.1-8.1v-18.5c0-4.4,3.6-8.1,8.1-8.1h18.5c4.4,0,8.1,3.6,8.1,8.1v18.5
			C87.3,228.4,83.7,232,79.3,232z"/>
		<path class="st8" d="M123.3,232h-18.5c-4.4,0-8.1-3.6-8.1-8.1v-18.5c0-4.4,3.6-8.1,8.1-8.1h18.5c4.4,0,8.1,3.6,8.1,8.1v18.5
			C131.3,228.4,127.7,232,123.3,232z"/>
		<path class="st5" d="M167.3,232h-18.5c-4.4,0-8.1-3.6-8.1-8.1v-18.5c0-4.4,3.6-8.1,8.1-8.1h18.5c4.4,0,8.1,3.6,8.1,8.1v18.5
			C175.3,228.4,171.7,232,167.3,232z"/>
	</g>
	<g>
		<path class="st9" d="M151.1,181.4L151.1,181.4c-2.4-1.8-2.9-5.3-1.1-7.7l8-10.7c1.8-2.4,5.3-2.9,7.7-1.1v0
			c2.4,1.8,2.9,5.3,1.1,7.7l-8,10.7C157,182.7,153.5,183.2,151.1,181.4z"/>
		<path class="st10" d="M150.7,180.1L150.7,180.1c-2.4-1.8-2.9-5.3-1.1-7.7l8-10.7c1.8-2.4,5.3-2.9,7.7-1.1h0
			c2.4,1.8,2.9,5.3,1.1,7.7l-8,10.7C156.6,181.4,153.2,182,150.7,180.1z"/>
		<path class="st11" d="M150.7,180.2L150.7,180.2c-2.4-1.8-2.9-5.3-1.1-7.7l4.3-5.8l8.9,6.6l-4.3,5.8
			C156.6,181.5,153.1,182,150.7,180.2z"/>
		<g>
			<path class="st10" d="M167.3,163.5c0,1.1-0.4,2.3-1.1,3.2l-8,10.7c-1.8,2.4-5.3,2.9-7.7,1.1c-1-0.7-1.6-1.7-2-2.8
				c0,1.7,0.7,3.4,2.2,4.5c2.4,1.8,5.9,1.3,7.7-1.1l8-10.7C167.6,167,167.8,165.1,167.3,163.5z"/>
		</g>
	</g>
	<g>
		<path class="st9" d="M105.3,163L105.3,163c2.1-2.2,5.6-2.4,7.8-0.3l9.8,9.1c2.2,2.1,2.4,5.6,0.3,7.8l0,0c-2.1,2.2-5.6,2.4-7.8,0.3
			l-9.8-9.1C103.3,168.8,103.2,165.2,105.3,163z"/>
		<path class="st12" d="M106.6,162.8L106.6,162.8c2.1-2.2,5.6-2.4,7.8-0.3l9.8,9.1c2.2,2.1,2.4,5.6,0.3,7.8h0
			c-2.1,2.2-5.6,2.4-7.8,0.3l-9.8-9.1C104.6,168.6,104.5,165,106.6,162.8z"/>
		<path class="st5" d="M106.5,162.7L106.5,162.7c2.1-2.2,5.6-2.4,7.8-0.3l5.3,4.9l-7.5,8.1l-5.3-4.9
			C104.5,168.5,104.4,165,106.5,162.7z"/>
		<g>
			<path class="st13" d="M121.3,181.1c-1.1-0.1-2.2-0.6-3.1-1.4l-9.8-9.1c-2.2-2.1-2.4-5.6-0.3-7.8c0.8-0.9,1.9-1.4,3-1.7
				c-1.7-0.2-3.5,0.4-4.7,1.7c-2.1,2.2-1.9,5.8,0.3,7.8l9.8,9.1C117.8,181,119.7,181.4,121.3,181.1z"/>
		</g>
	</g>
	<g>
		<path class="st9" d="M60,90.2L60,90.2c-1.9-2.4-1.5-5.9,0.9-7.8l10.5-8.3c2.4-1.9,5.9-1.5,7.8,0.9l0,0c1.9,2.4,1.5,5.9-0.9,7.8
			l-10.5,8.3C65.4,93,61.9,92.6,60,90.2z"/>
		<path class="st14" d="M60,88.9L60,88.9c-1.9-2.4-1.5-5.9,0.9-7.8l10.5-8.3c2.4-1.9,5.9-1.5,7.8,0.9l0,0c1.9,2.4,1.5,5.9-0.9,7.8
			l-10.5,8.3C65.4,91.7,61.9,91.3,60,88.9z"/>
		<path class="st15" d="M59.9,88.9L59.9,88.9c-1.9-2.4-1.5-5.9,0.9-7.8l5.7-4.5l6.8,8.7l-5.7,4.5C65.3,91.8,61.8,91.3,59.9,88.9z"/>
		<g>
			<path class="st10" d="M80.4,77.1c-0.3,1.1-0.9,2.1-1.9,2.8L68,88.2c-2.4,1.9-5.9,1.5-7.8-0.9c-0.7-0.9-1.1-2.1-1.2-3.2
				c-0.5,1.7-0.2,3.5,1,5c1.9,2.4,5.4,2.8,7.8,0.9l10.5-8.3C79.7,80.6,80.4,78.8,80.4,77.1z"/>
		</g>
	</g>
	<g>
		<circle class="st8" cx="116.3" cy="75.2" r="5.2"/>
		<circle class="st16" cx="116.8" cy="75.9" r="5.2"/>
		<g>
			<path class="st8" d="M118.9,70.5c0.8,0.9,1.4,2.2,1.4,3.5c0,2.9-2.3,5.2-5.2,5.2c-1,0-2-0.3-2.8-0.8c1,1.1,2.3,1.7,3.9,1.7
				c2.9,0,5.2-2.3,5.2-5.2C121.3,73.1,120.3,71.5,118.9,70.5z"/>
		</g>
		<g>
			<path class="st17" d="M121.2,73.4l-10,2.7c0,0.3,0,0.2,0,0.5c0.1,0.3,0.1,0.2,0.2,0.4l10-2.7c0-0.3,0-0.2,0-0.5
				C121.3,73.5,121.3,73.6,121.2,73.4z"/>
		</g>
		<circle class="st8" cx="111.3" cy="88.8" r="5.2"/>
		<circle class="st16" cx="111.9" cy="89.5" r="5.2"/>
		<g>
			<path class="st8" d="M113.9,84.1c0.8,0.9,1.4,2.2,1.4,3.5c0,2.9-2.3,5.2-5.2,5.2c-1,0-2-0.3-2.8-0.8c1,1.1,2.3,1.7,3.9,1.7
				c2.9,0,5.2-2.3,5.2-5.2C116.4,86.7,115.4,85.1,113.9,84.1z"/>
		</g>
		<g>
			<path class="st17" d="M116.3,90.1l-9.7-3.6c-0.1,0.2-0.1,0.1-0.2,0.4c-0.1,0.3,0,0.2-0.1,0.5L116,91c0.1-0.2,0.1-0.1,0.2-0.4
				C116.3,90.3,116.3,90.4,116.3,90.1z"/>
		</g>
	</g>
	<g>
		
			<ellipse transform="matrix(0.7157 -0.6984 0.6984 0.7157 -39.4435 150.2012)" class="st18" cx="164.8" cy="123.6" rx="5.4" ry="5.4"/>
		
			<ellipse transform="matrix(0.7157 -0.6984 0.6984 0.7157 -38.746 150.0361)" class="st7" cx="164.9" cy="122.6" rx="5.4" ry="5.4"/>
		<g>
			<path class="st19" d="M170.3,121.5c-0.1,1.6-0.9,3.2-2.4,4.2c-1.7,1.2-4.1,1.2-5.8,0.1c-1.4-0.8-2.2-2.1-2.5-3.5
				c-0.1,1.8,0.7,3.7,2.4,4.8c1.7,1.2,4.1,1.2,5.9,0.1C170,126,170.8,123.6,170.3,121.5z"/>
		</g>
		<g>
			<path class="st20" d="M169.8,124.9l-9.2-5.5c-0.2,0.2-0.2,0.1-0.3,0.4c-0.1,0.3-0.1,0.2-0.2,0.4l9.2,5.5c0.2-0.2,0.2-0.1,0.3-0.4
				C169.7,125.1,169.7,125.2,169.8,124.9z"/>
		</g>
		
			<ellipse transform="matrix(0.7157 -0.6984 0.6984 0.7157 -47.6207 142.4137)" class="st18" cx="151.1" cy="129.7" rx="5.4" ry="5.4"/>
		
			<ellipse transform="matrix(0.7157 -0.6984 0.6984 0.7157 -46.9232 142.2486)" class="st7" cx="151.3" cy="128.8" rx="5.4" ry="5.4"/>
		<g>
			<path class="st19" d="M156.7,127.7c-0.1,1.6-0.9,3.2-2.4,4.2c-1.7,1.2-4.1,1.2-5.8,0.1c-1.4-0.8-2.2-2.1-2.5-3.5
				c-0.1,1.8,0.7,3.7,2.4,4.8c1.7,1.2,4.1,1.2,5.9,0.1C156.3,132.1,157.1,129.8,156.7,127.7z"/>
		</g>
		<g>
			<path class="st20" d="M153.9,133.5l-4.4-9.8c-0.3,0.1-0.2,0-0.5,0.1c-0.3,0.1-0.2,0.1-0.4,0.3l4.4,9.8c0.3-0.1,0.2,0,0.5-0.1
				C153.8,133.6,153.7,133.6,153.9,133.5z"/>
		</g>
	</g>
	<g>
		
			<ellipse transform="matrix(4.467581e-02 -0.999 0.999 4.467581e-02 -145.6513 285.2314)" class="st18" cx="76.3" cy="218.8" rx="5.4" ry="5.4"/>
		
			<ellipse transform="matrix(4.467581e-02 -0.999 0.999 4.467581e-02 -144.3658 285.5039)" class="st10" cx="77.1" cy="218.2" rx="5.4" ry="5.4"/>
		<g>
			<path class="st11" d="M81.6,221.4c-1.2,1-2.9,1.5-4.7,1.1c-2-0.5-3.7-2.1-4.1-4.2c-0.3-1.6,0.1-3,0.8-4.2c-1.4,1.2-2.2,3-1.9,5.1
				c0.3,2.1,1.9,3.8,4,4.3C78.1,224.2,80.4,223.2,81.6,221.4z"/>
		</g>
		<g>
			<path class="st11" d="M78.7,223.4l-2.3-10.4c-0.3,0-0.2,0-0.5,0c-0.3,0.1-0.2,0.1-0.4,0.2l2.3,10.4c0.3,0,0.2,0,0.5,0
				C78.5,223.5,78.4,223.5,78.7,223.4z"/>
		</g>
		
			<ellipse transform="matrix(4.467581e-02 -0.999 0.999 4.467581e-02 -153.1083 265.9198)" class="st18" cx="62.5" cy="213" rx="5.4" ry="5.4"/>
		
			<ellipse transform="matrix(4.467581e-02 -0.999 0.999 4.467581e-02 -151.8229 266.1924)" class="st10" cx="63.3" cy="212.5" rx="5.4" ry="5.4"/>
		<g>
			<path class="st11" d="M67.8,215.7c-1.2,1-2.9,1.5-4.7,1.1c-2-0.5-3.7-2.1-4.1-4.2c-0.3-1.6,0.1-3,0.8-4.2c-1.4,1.2-2.2,3-1.9,5.1
				c0.3,2.1,1.9,3.8,4,4.3C64.3,218.5,66.5,217.5,67.8,215.7z"/>
		</g>
		<g>
			<path class="st11" d="M61.6,217.6l4.1-9.9c-0.2-0.1-0.1-0.1-0.4-0.3c-0.3-0.1-0.2,0-0.5-0.1l-4.1,9.9c0.2,0.1,0.1,0.1,0.4,0.3
				C61.4,217.6,61.4,217.5,61.6,217.6z"/>
		</g>
	</g>
	<g>
		<rect x="104" y="120.6" class="st11" width="19" height="22.9"/>
		<path class="st10" d="M104.5,142.7h8.9c0.7,0,1.2-0.5,1.2-1.2v-16.1c0-0.7-0.5-1.2-1.2-1.2h-8.9c-0.3,0-0.6,0.3-0.6,0.7V142
			C103.9,142.4,104.1,142.7,104.5,142.7z"/>
		<path class="st21" d="M104,126.5v-5.2c0-0.6,0.5-1,1-1h17c0.6,0,1,0.5,1,1v1.8L104,126.5z"/>
		<path class="st1" d="M124.2,122.2h-21.3c-0.6,0-1-0.4-1-1v-3.6c0-0.6,0.4-1,1-1h21.3c0.6,0,1,0.4,1,1v3.6
			C125.1,121.8,124.7,122.2,124.2,122.2z"/>
		<path class="st7" d="M103.7,122.4v-3.7c0-0.1-0.1-0.2-0.2-0.2l0,0c-0.1,0-0.2,0.1-0.2,0.2v3.7
			C103.5,122.4,103.6,122.4,103.7,122.4z"/>
		<path class="st7" d="M107.1,122.4v-3.7c0-0.1-0.1-0.2-0.2-0.2l0,0c-0.1,0-0.2,0.1-0.2,0.2v3.7C106.9,122.4,107,122.4,107.1,122.4z
			"/>
		<path class="st7" d="M110.5,122.4v-3.7c0-0.1-0.1-0.2-0.2-0.2l0,0c-0.1,0-0.2,0.1-0.2,0.2v3.7
			C110.3,122.4,110.4,122.4,110.5,122.4z"/>
		<path class="st7" d="M113.9,122.4v-3.7c0-0.1-0.1-0.2-0.2-0.2l0,0c-0.1,0-0.2,0.1-0.2,0.2v3.7
			C113.7,122.4,113.8,122.4,113.9,122.4z"/>
		<path class="st7" d="M117.3,122.4v-3.7c0-0.1-0.1-0.2-0.2-0.2h0c-0.1,0-0.2,0.1-0.2,0.2v3.7C117.1,122.4,117.2,122.4,117.3,122.4z
			"/>
		<path class="st7" d="M120.7,122.4v-3.7c0-0.1-0.1-0.2-0.2-0.2l0,0c-0.1,0-0.2,0.1-0.2,0.2v3.7
			C120.5,122.4,120.6,122.4,120.7,122.4z"/>
		<path class="st7" d="M124.1,122.4v-3.7c0-0.1-0.1-0.2-0.2-0.2l0,0c-0.1,0-0.2,0.1-0.2,0.2v3.7C123.9,122.4,124,122.4,124.1,122.4z
			"/>
		<path class="st1" d="M123.3,122.5h-19.6c-1,0-1.8-0.8-1.8-1.8v0c0-0.2,0.1-0.3,0.3-0.3h22.7c0.2,0,0.3,0.1,0.3,0.3v0
			C125.1,121.6,124.3,122.5,123.3,122.5z"/>
	</g>
	<g>
		<rect x="104.3" y="208.4" class="st5" width="19" height="22.9"/>
		<path class="st12" d="M104.7,230.4h8.9c0.7,0,1.2-0.5,1.2-1.2v-16.1c0-0.7-0.5-1.2-1.2-1.2h-8.9c-0.3,0-0.6,0.3-0.6,0.7v17.1
			C104.1,230.2,104.4,230.4,104.7,230.4z"/>
		<path class="st22" d="M104.2,214.3v-5.2c0-0.6,0.5-1,1-1h17c0.6,0,1,0.5,1,1v1.8L104.2,214.3z"/>
		<path class="st1" d="M124.4,210h-21.3c-0.6,0-1-0.4-1-1v-3.6c0-0.6,0.4-1,1-1h21.3c0.6,0,1,0.4,1,1v3.6
			C125.4,209.5,125,210,124.4,210z"/>
		<path class="st7" d="M103.9,210.1v-3.7c0-0.1-0.1-0.2-0.2-0.2l0,0c-0.1,0-0.2,0.1-0.2,0.2v3.7
			C103.7,210.1,103.8,210.1,103.9,210.1z"/>
		<path class="st7" d="M107.3,210.1v-3.7c0-0.1-0.1-0.2-0.2-0.2l0,0c-0.1,0-0.2,0.1-0.2,0.2v3.7
			C107.1,210.1,107.2,210.1,107.3,210.1z"/>
		<path class="st7" d="M110.7,210.1v-3.7c0-0.1-0.1-0.2-0.2-0.2l0,0c-0.1,0-0.2,0.1-0.2,0.2v3.7
			C110.5,210.1,110.6,210.1,110.7,210.1z"/>
		<path class="st7" d="M114.1,210.1v-3.7c0-0.1-0.1-0.2-0.2-0.2l0,0c-0.1,0-0.2,0.1-0.2,0.2v3.7C113.9,210.1,114,210.1,114.1,210.1z
			"/>
		<path class="st7" d="M117.6,210.1v-3.7c0-0.1-0.1-0.2-0.2-0.2h0c-0.1,0-0.2,0.1-0.2,0.2v3.7C117.3,210.1,117.4,210.1,117.6,210.1z
			"/>
		<path class="st7" d="M121,210.1v-3.7c0-0.1-0.1-0.2-0.2-0.2l0,0c-0.1,0-0.2,0.1-0.2,0.2v3.7C120.8,210.1,120.9,210.1,121,210.1z"
			/>
		<path class="st7" d="M124.4,210.1v-3.7c0-0.1-0.1-0.2-0.2-0.2l0,0c-0.1,0-0.2,0.1-0.2,0.2v3.7
			C124.2,210.1,124.3,210.1,124.4,210.1z"/>
		<path class="st1" d="M123.6,210.2H104c-1,0-1.8-0.8-1.8-1.8l0,0c0-0.2,0.1-0.3,0.3-0.3h22.7c0.2,0,0.3,0.1,0.3,0.3l0,0
			C125.4,209.4,124.6,210.2,123.6,210.2z"/>
	</g>
	<g>
		<rect x="148.5" y="77.3" class="st15" width="19" height="22.9"/>
		<path class="st14" d="M149,98.4h8.9c0.7,0,1.2-0.5,1.2-1.2V81.1c0-0.7-0.5-1.2-1.2-1.2H149c-0.3,0-0.6,0.3-0.6,0.7v17.1
			C148.4,98.1,148.6,98.4,149,98.4z"/>
		<path class="st21" d="M148.5,82.2V77c0-0.6,0.5-1,1-1h17c0.6,0,1,0.5,1,1v1.8L148.5,82.2z"/>
		<path class="st1" d="M168.7,77.9h-21.3c-0.6,0-1-0.4-1-1v-3.6c0-0.6,0.4-1,1-1h21.3c0.6,0,1,0.4,1,1v3.6
			C169.7,77.4,169.2,77.9,168.7,77.9z"/>
		<path class="st7" d="M148.2,78.1v-3.7c0-0.1-0.1-0.2-0.2-0.2l0,0c-0.1,0-0.2,0.1-0.2,0.2v3.7C148,78.1,148.1,78.1,148.2,78.1z"/>
		<path class="st7" d="M151.6,78.1v-3.7c0-0.1-0.1-0.2-0.2-0.2l0,0c-0.1,0-0.2,0.1-0.2,0.2v3.7C151.4,78.1,151.5,78.1,151.6,78.1z"
			/>
		<path class="st7" d="M155,78.1v-3.7c0-0.1-0.1-0.2-0.2-0.2l0,0c-0.1,0-0.2,0.1-0.2,0.2v3.7C154.8,78.1,154.9,78.1,155,78.1z"/>
		<path class="st7" d="M158.4,78.1v-3.7c0-0.1-0.1-0.2-0.2-0.2l0,0c-0.1,0-0.2,0.1-0.2,0.2v3.7C158.2,78.1,158.3,78.1,158.4,78.1z"
			/>
		<path class="st7" d="M161.8,78.1v-3.7c0-0.1-0.1-0.2-0.2-0.2l0,0c-0.1,0-0.2,0.1-0.2,0.2v3.7C161.6,78.1,161.7,78.1,161.8,78.1z"
			/>
		<path class="st7" d="M165.2,78.1v-3.7c0-0.1-0.1-0.2-0.2-0.2l0,0c-0.1,0-0.2,0.1-0.2,0.2v3.7C165,78.1,165.1,78.1,165.2,78.1z"/>
		<path class="st7" d="M168.6,78.1v-3.7c0-0.1-0.1-0.2-0.2-0.2l0,0c-0.1,0-0.2,0.1-0.2,0.2v3.7C168.4,78.1,168.5,78.1,168.6,78.1z"
			/>
		<path class="st1" d="M167.8,78.1h-19.6c-1,0-1.8-0.8-1.8-1.8v0c0-0.2,0.1-0.3,0.3-0.3h22.7c0.2,0,0.3,0.1,0.3,0.3v0
			C169.7,77.3,168.8,78.1,167.8,78.1z"/>
	</g>
	<g>
		<path class="st15" d="M81,178.6v9.2H58.7v-9.2c0-1.8,1.5-3.3,3.3-3.3h0.3c1.9,0,3.4-1.5,3.4-3.4v-0.6h8.6v0.6
			c0,1.9,1.5,3.4,3.4,3.4h0C79.5,175.3,81,176.8,81,178.6z"/>
		<path class="st23" d="M62,175.5c1.9,0,3.4-1.5,3.4-3.4v-0.6H74v0.6C74,173.9,62,175.5,62,175.5z"/>
		<path class="st1" d="M74.7,171.7h-9.5c-0.6,0-1.1-0.5-1.1-1.1v-2.3c0-0.6,0.5-1.1,1.1-1.1h9.5c0.6,0,1.1,0.5,1.1,1.1v2.3
			C75.7,171.2,75.3,171.7,74.7,171.7z"/>
		<g>
			<path class="st7" d="M66.1,171.8V169c0-0.1-0.1-0.1-0.1-0.1l0,0c-0.1,0-0.1,0.1-0.1,0.1v2.9C65.9,171.8,66,171.8,66.1,171.8z"/>
			<path class="st7" d="M68.8,171.8V169c0-0.1-0.1-0.1-0.1-0.1l0,0c-0.1,0-0.1,0.1-0.1,0.1v2.9C68.6,171.8,68.7,171.8,68.8,171.8z"
				/>
			<path class="st7" d="M71.5,171.8V169c0-0.1-0.1-0.1-0.1-0.1l0,0c-0.1,0-0.1,0.1-0.1,0.1v2.9C71.3,171.8,71.4,171.8,71.5,171.8z"
				/>
			<path class="st7" d="M74.1,171.8V169c0-0.1-0.1-0.1-0.1-0.1l0,0c-0.1,0-0.1,0.1-0.1,0.1v2.9C74,171.8,74.1,171.8,74.1,171.8z"/>
		</g>
		<path class="st1" d="M74.3,171.9h-8.7c-0.8,0-1.5-0.7-1.5-1.5l0,0c0-0.1,0.1-0.2,0.2-0.2h11.1c0.1,0,0.2,0.1,0.2,0.2l0,0
			C75.7,171.3,75.1,171.9,74.3,171.9z"/>
		<rect x="58.6" y="182.8" class="st14" width="22.4" height="5.1"/>
	</g>
	<g>
		<path class="st11" d="M81.3,134.4v9.2H59v-9.2c0-1.8,1.5-3.3,3.3-3.3h0.3c1.9,0,3.4-1.5,3.4-3.4V127h8.6v0.6
			c0,1.9,1.5,3.4,3.4,3.4h0C79.8,131,81.3,132.5,81.3,134.4z"/>
		<path class="st23" d="M62.3,131.2c1.9,0,3.4-1.5,3.4-3.4v-0.6h8.6v0.6C74.3,129.7,62.3,131.2,62.3,131.2z"/>
		<path class="st1" d="M74.9,127.4h-9.5c-0.6,0-1.1-0.5-1.1-1.1v-2.3c0-0.6,0.5-1.1,1.1-1.1h9.5c0.6,0,1.1,0.5,1.1,1.1v2.3
			C76,127,75.5,127.4,74.9,127.4z"/>
		<g>
			<path class="st7" d="M66.3,127.6v-2.9c0-0.1-0.1-0.1-0.1-0.1l0,0c-0.1,0-0.1,0.1-0.1,0.1v2.9C66.1,127.6,66.2,127.6,66.3,127.6z"
				/>
			<path class="st7" d="M69,127.6v-2.9c0-0.1-0.1-0.1-0.1-0.1l0,0c-0.1,0-0.1,0.1-0.1,0.1v2.9C68.8,127.6,68.9,127.6,69,127.6z"/>
			<path class="st7" d="M71.7,127.6v-2.9c0-0.1-0.1-0.1-0.1-0.1l0,0c-0.1,0-0.1,0.1-0.1,0.1v2.9C71.5,127.6,71.6,127.6,71.7,127.6z"
				/>
			<path class="st7" d="M74.4,127.6v-2.9c0-0.1-0.1-0.1-0.1-0.1l0,0c-0.1,0-0.1,0.1-0.1,0.1v2.9C74.2,127.6,74.3,127.6,74.4,127.6z"
				/>
		</g>
		<path class="st1" d="M74.5,127.7h-8.7c-0.8,0-1.5-0.7-1.5-1.5l0,0c0-0.1,0.1-0.2,0.2-0.2h11.1c0.1,0,0.2,0.1,0.2,0.2l0,0
			C76,127,75.3,127.7,74.5,127.7z"/>
		<rect x="58.8" y="138.6" class="st10" width="22.4" height="5.1"/>
	</g>
	<g>
		<path class="st7" d="M168.8,222.9v9.2h-22.3v-9.2c0-1.8,1.5-3.3,3.3-3.3h0.3c1.9,0,3.4-1.5,3.4-3.4v-0.6h8.6v0.6
			c0,1.9,1.5,3.4,3.4,3.4h0C167.3,219.5,168.8,221,168.8,222.9z"/>
		<path class="st23" d="M149.8,219.7c1.9,0,3.4-1.5,3.4-3.4v-0.6h8.6v0.6C161.8,218.2,149.8,219.7,149.8,219.7z"/>
		<path class="st1" d="M162.4,215.9H153c-0.6,0-1.1-0.5-1.1-1.1v-2.3c0-0.6,0.5-1.1,1.1-1.1h9.5c0.6,0,1.1,0.5,1.1,1.1v2.3
			C163.5,215.5,163,215.9,162.4,215.9z"/>
		<g>
			<path class="st7" d="M153.8,216.1v-2.9c0-0.1-0.1-0.1-0.1-0.1l0,0c-0.1,0-0.1,0.1-0.1,0.1v2.9
				C153.6,216.1,153.7,216.1,153.8,216.1z"/>
			<path class="st7" d="M156.5,216.1v-2.9c0-0.1-0.1-0.1-0.1-0.1l0,0c-0.1,0-0.1,0.1-0.1,0.1v2.9
				C156.3,216.1,156.4,216.1,156.5,216.1z"/>
			<path class="st7" d="M159.2,216.1v-2.9c0-0.1-0.1-0.1-0.1-0.1l0,0c-0.1,0-0.1,0.1-0.1,0.1v2.9C159,216.1,159.1,216.1,159.2,216.1
				z"/>
			<path class="st7" d="M161.9,216.1v-2.9c0-0.1-0.1-0.1-0.1-0.1l0,0c-0.1,0-0.1,0.1-0.1,0.1v2.9
				C161.7,216.1,161.8,216.1,161.9,216.1z"/>
		</g>
		<path class="st1" d="M162,216.2h-8.7c-0.8,0-1.5-0.7-1.5-1.5l0,0c0-0.1,0.1-0.2,0.2-0.2h11.1c0.1,0,0.2,0.1,0.2,0.2l0,0
			C163.5,215.5,162.8,216.2,162,216.2z"/>
		<rect x="146.3" y="227.1" class="st24" width="22.4" height="5.1"/>
	</g>
</g>
</svg>
