<svg xmlns="http://www.w3.org/2000/svg" viewBox="0 0 136 265"><path d="M104.6 252.9H39.3c-6.2 0-11.3-5.1-11.3-11.3V47.5c0-3.5 2.8-6.3 6.3-6.3h75.3c3.5 0 6.3 2.8 6.3 6.3v194.1c0 6.2-5 11.3-11.3 11.3z" fill="#f3c74a"/><path d="M112.5 202h-51c-9.1 0-16.6-6.9-16.6-15.4v-84.3c0-8.5 7.4-15.4 16.6-15.4h51c2.2 0 4 1.9 4 4.2v106.8c0 2.2-1.8 4.1-4 4.1z" fill="#f8eec8"/><path d="M27.8 77.9V45.7c0-3.5 2.1-6.3 4.7-6.3H111c2.6 0 4.7 2.8 4.7 6.3v11.4L27.8 77.9z" opacity=".67" fill="#eba85a"/><path d="M121.3 50.9H22.5c-2.4 0-4.4-2-4.4-4.4v-26c0-2.4 2-4.4 4.4-4.4h98.8c2.4 0 4.4 2 4.4 4.4v26c0 2.5-1.9 4.4-4.4 4.4z" fill="#f8f6e8"/><path d="M121.3 52.6H22.5c-2.4 0-4.4-2-4.4-4.4V40c0-.4.3-.7.7-.7H125c.4 0 .7.3.7.7v8.2c0 2.4-1.9 4.4-4.4 4.4z" opacity=".22" fill="#c4c0b1"/><path d="M29.2 51.1V28.3c0-.6-.5-1.2-1.2-1.2-.6 0-1.2.5-1.2 1.2v22.8h2.4zm21.2 0V28.3c0-.6-.5-1.2-1.2-1.2-.6 0-1.2.5-1.2 1.2v22.8h2.4zm21.3 0V28.3c0-.6-.5-1.2-1.2-1.2-.6 0-1.2.5-1.2 1.2v22.8h2.4zm42.5 0V28.3c0-.6-.5-1.2-1.2-1.2-.6 0-1.2.5-1.2 1.2v22.8h2.4zm-21.3 0V28.3c0-.6-.5-1.2-1.2-1.2-.6 0-1.2.5-1.2 1.2v22.8h2.4z" fill="#c0d5d0"/></svg>