<?xml version="1.0" encoding="utf-8"?>
<!-- Generator: Adobe Illustrator 22.0.1, SVG Export Plug-In . SVG Version: 6.00 Build 0)  -->
<svg version="1.1" id="Layer_1" xmlns="http://www.w3.org/2000/svg" xmlns:xlink="http://www.w3.org/1999/xlink" x="0px" y="0px"
	 viewBox="0 0 204 336" style="enable-background:new 0 0 204 336;" xml:space="preserve">
<style type="text/css">
	.st0{fill:#F58777;}
	.st1{opacity:0.77;fill:#D04344;enable-background:new    ;}
	.st2{fill:#F8F6E8;}
	.st3{opacity:0.62;fill:#E8E4CB;}
	.st4{fill:#F7C1B6;}
	.st5{fill:#C0D5D0;}
</style>
<path class="st0" d="M191,102.8v197.9c0,14.5-11.8,26.3-26.3,26.3H41.3C26.8,327,15,315.2,15,300.7V102.8
	c0-14.5,11.8-26.3,26.3-26.3h2c14.8,0,26.7-12,26.7-26.7V45h68v4.8c0,14.7,11.9,26.7,26.7,26.7l0,0C179.2,76.5,191,88.3,191,102.8z"
	/>
<path class="st1" d="M41.3,78C56.1,78,68,66,68,51.3v-4.8h68v4.8C136,66,41.3,78,41.3,78z"/>
<path class="st2" d="M145.1,48.3H62.5c-2.4,0-4.4-2-4.4-4.4v-26c0-2.4,2-4.4,4.4-4.4h82.6c2.4,0,4.4,2,4.4,4.4v26
	C149.5,46.3,147.5,48.3,145.1,48.3z"/>
<path class="st3" d="M145.1,49.9H62.5c-2.4,0-4.4-2-4.4-4.4v-8.2c0-0.4,0.3-0.7,0.7-0.7h89.9c0.4,0,0.7,0.3,0.7,0.7v8.2
	C149.5,48,147.5,49.9,145.1,49.9z"/>
<rect x="14.1" y="136.1" class="st4" width="177" height="111"/>
<g>
	<path class="st5" d="M73.1,49.4V26.7c0-0.6-0.5-1.2-1.2-1.2l0,0c-0.6,0-1.2,0.5-1.2,1.2v22.8C71.8,49.4,72.4,49.4,73.1,49.4z"/>
	<path class="st5" d="M94.4,49.4V26.7c0-0.6-0.5-1.2-1.2-1.2l0,0c-0.6,0-1.2,0.5-1.2,1.2v22.8C93,49.4,93.7,49.4,94.4,49.4z"/>
	<path class="st5" d="M115.6,49.4V26.7c0-0.6-0.5-1.2-1.2-1.2l0,0c-0.6,0-1.2,0.5-1.2,1.2v22.8C114.3,49.4,114.9,49.4,115.6,49.4z"
		/>
	<path class="st5" d="M136.9,49.4V26.7c0-0.6-0.5-1.2-1.2-1.2l0,0c-0.6,0-1.2,0.5-1.2,1.2v22.8C135.5,49.4,136.2,49.4,136.9,49.4z"
		/>
</g>
</svg>
