<svg xmlns="http://www.w3.org/2000/svg" viewBox="0 0 204 336"><path d="M191 102.8v197.9c0 14.5-11.8 26.3-26.3 26.3H41.3C26.8 327 15 315.2 15 300.7V102.8c0-14.5 11.8-26.3 26.3-26.3h2c14.8 0 26.7-12 26.7-26.7V45h68v4.8c0 14.7 11.9 26.7 26.7 26.7 14.5 0 26.3 11.8 26.3 26.3z" fill="#f58777"/><path d="M41.3 78C56.1 78 68 66 68 51.3v-4.8h68v4.8C136 66 41.3 78 41.3 78z" opacity=".77" fill="#d04344"/><path d="M145.1 48.3H62.5c-2.4 0-4.4-2-4.4-4.4v-26c0-2.4 2-4.4 4.4-4.4h82.6c2.4 0 4.4 2 4.4 4.4v26c0 2.4-2 4.4-4.4 4.4z" fill="#f8f6e8"/><path d="M145.1 49.9H62.5c-2.4 0-4.4-2-4.4-4.4v-8.2c0-.4.3-.7.7-.7h89.9c.4 0 .7.3.7.7v8.2c.1 2.5-1.9 4.4-4.3 4.4z" opacity=".62" fill="#e8e4cb"/><path fill="#f7c1b6" d="M14.1 136.1h177v111h-177z"/><path d="M73.1 49.4V26.7c0-.6-.5-1.2-1.2-1.2-.6 0-1.2.5-1.2 1.2v22.8c1.1-.1 1.7-.1 2.4-.1zm21.3 0V26.7c0-.6-.5-1.2-1.2-1.2-.6 0-1.2.5-1.2 1.2v22.8c1-.1 1.7-.1 2.4-.1zm21.2 0V26.7c0-.6-.5-1.2-1.2-1.2-.6 0-1.2.5-1.2 1.2v22.8c1.1-.1 1.7-.1 2.4-.1zm21.3 0V26.7c0-.6-.5-1.2-1.2-1.2-.6 0-1.2.5-1.2 1.2v22.8c1-.1 1.7-.1 2.4-.1z" fill="#c0d5d0"/></svg>