<svg xmlns="http://www.w3.org/2000/svg" viewBox="0 0 183 234"><path d="M136.5 215H40.7c-6.2 0-11.3-5.1-11.3-11.3V46.8c0-3.5 2.8-6.3 6.3-6.3h105.9c3.5 0 6.3 2.8 6.3 6.3v156.9c0 6.2-5.1 11.3-11.4 11.3z" fill="#f3c74a"/><path d="M32.1 178h47.6c8.5 0 15.4-6.9 15.4-15.4V78.3c0-8.5-6.9-15.4-15.4-15.4H32.1c-2.1 0-3.8 1.9-3.8 4.2v106.8c0 2.2 1.7 4.1 3.8 4.1z" fill="#f8eec8"/><path d="M29.1 77.2V45.1c0-3.5 2.8-6.3 6.3-6.3h105.9c3.5 0 6.3 2.8 6.3 6.3v11.4L29.1 77.2z" opacity=".67" fill="#f3c74a"/><path d="M156.7 50.3H20.5c-2.4 0-4.4-2-4.4-4.4v-26c0-2.4 2-4.4 4.4-4.4h136.1c2.4 0 4.4 2 4.4 4.4v26c.1 2.4-1.9 4.4-4.3 4.4z" fill="#f8f6e8"/><path d="M156.7 51.9H20.5c-2.4 0-4.4-2-4.4-4.4v-8.2c0-.4.3-.7.7-.7h143.5c.4 0 .7.3.7.7v8.2c.1 2.5-1.9 4.4-4.3 4.4z" fill="#eae6d1"/><path d="M27.2 51.4V28.7c0-.6-.5-1.2-1.2-1.2-.6 0-1.2.5-1.2 1.2v22.8c1.1-.1 1.7-.1 2.4-.1zm21.2 0V28.7c0-.6-.5-1.2-1.2-1.2-.6 0-1.2.5-1.2 1.2v22.8c1.1-.1 1.8-.1 2.4-.1zm21.3 0V28.7c0-.6-.5-1.2-1.2-1.2-.6 0-1.2.5-1.2 1.2v22.8c1.1-.1 1.7-.1 2.4-.1zm21.2 0V28.7c0-.6-.5-1.2-1.2-1.2-.6 0-1.2.5-1.2 1.2v22.8c1.1-.1 1.7-.1 2.4-.1zm21.3 0V28.7c0-.6-.5-1.2-1.2-1.2-.6 0-1.2.5-1.2 1.2v22.8c1.1-.1 1.7-.1 2.4-.1zm21.2 0V28.7c0-.6-.5-1.2-1.2-1.2-.6 0-1.2.5-1.2 1.2v22.8c1.1-.1 1.8-.1 2.4-.1zm21.3 0V28.7c0-.6-.5-1.2-1.2-1.2-.6 0-1.2.5-1.2 1.2v22.8c1.1-.1 1.7-.1 2.4-.1z" fill="#c0d5d0"/></svg>