<?xml version="1.0" encoding="utf-8"?>
<!-- Generator: Adobe Illustrator 21.1.0, SVG Export Plug-In . SVG Version: 6.00 Build 0)  -->
<svg version="1.1" id="Layer_1" xmlns="http://www.w3.org/2000/svg" xmlns:xlink="http://www.w3.org/1999/xlink" x="0px" y="0px"
	 viewBox="0 0 196 204" style="enable-background:new 0 0 196 204;" xml:space="preserve">
<style type="text/css">
	.st0{fill:#F8EEC8;}
	.st1{opacity:0.53;}
	.st2{fill:#F3C74A;}
	.st3{fill:#C0D5D0;}
	.st4{opacity:0.45;}
	.st5{fill:#9FB7B2;}
	.st6{opacity:0.6;}
	.st7{fill:#6A9A9B;}
</style>
<circle class="st0" cx="144.9" cy="43.8" r="29.8"/>
<g class="st1">
	<path class="st2" d="M165.8,22.5c3.9,5,6.3,11.4,6.3,18.3c0,16.4-13.3,29.8-29.8,29.8c-8.2,0-15.6-3.3-20.9-8.6
		c5.4,7,13.9,11.5,23.5,11.5c16.4,0,29.8-13.3,29.8-29.8C174.6,35.4,171.2,27.9,165.8,22.5z"/>
</g>
<g>
	<path class="st0" d="M120.8,26.8l44.8,38c1.2-1,1-0.5,2-1.7c1-1.2,0.6-0.9,1.4-2.3l-44.8-38c-1.2,1-1,0.5-2,1.7
		C121.1,25.7,121.6,25.4,120.8,26.8z"/>
</g>
<circle class="st3" cx="73.2" cy="123.4" r="53.5"/>
<g class="st4">
	<path class="st5" d="M110.9,85.1c7.1,9.1,11.3,20.5,11.3,32.9c0,29.6-24,53.5-53.5,53.5c-14.7,0-28-5.9-37.7-15.5
		c9.8,12.5,25.1,20.6,42.2,20.6c29.6,0,53.5-24,53.5-53.5C126.7,108.3,120.7,94.8,110.9,85.1z"/>
</g>
<g class="st6">
	<path class="st7" d="M85.7,70.5l-44.3,95.9c2.3,1.6,1.3,1.4,4,2.6c2.6,1.2,1.9,0.5,4.6,1.3l44.3-95.9c-2.3-1.6-1.3-1.4-4-2.6
		C87.7,70.6,88.4,71.3,85.7,70.5z"/>
</g>
</svg>
