<?xml version="1.0" encoding="utf-8"?>
<!-- Generator: Adobe Illustrator 22.0.1, SVG Export Plug-In . SVG Version: 6.00 Build 0)  -->
<svg version="1.1" id="Layer_1" xmlns="http://www.w3.org/2000/svg" xmlns:xlink="http://www.w3.org/1999/xlink" x="0px" y="0px"
	 viewBox="0 0 136 265" style="enable-background:new 0 0 136 265;" xml:space="preserve">
<style type="text/css">
	.st0{fill:#F3C74A;}
	.st1{fill:#F8EEC8;}
	.st2{opacity:0.67;fill:#EBA85A;enable-background:new    ;}
	.st3{fill:#F8F6E8;}
	.st4{opacity:0.22;fill:#C4C0B1;}
	.st5{fill:#C0D5D0;}
</style>
<g>
	<path class="st0" d="M104.6,252.9H39.3c-6.2,0-11.3-5.1-11.3-11.3V47.5c0-3.5,2.8-6.3,6.3-6.3h75.3c3.5,0,6.3,2.8,6.3,6.3v194.1
		C115.9,247.8,110.9,252.9,104.6,252.9z"/>
	<path class="st1" d="M112.5,202h-51c-9.1,0-16.6-6.9-16.6-15.4v-84.3c0-8.5,7.4-15.4,16.6-15.4h51c2.2,0,4,1.9,4,4.2v106.8
		C116.5,200.1,114.7,202,112.5,202z"/>
	<path class="st2" d="M27.8,77.9V45.7c0-3.5,2.1-6.3,4.7-6.3H111c2.6,0,4.7,2.8,4.7,6.3v11.4L27.8,77.9z"/>
	<path class="st3" d="M121.3,50.9H22.5c-2.4,0-4.4-2-4.4-4.4v-26c0-2.4,2-4.4,4.4-4.4h98.8c2.4,0,4.4,2,4.4,4.4v26
		C125.7,49,123.8,50.9,121.3,50.9z"/>
	<path class="st4" d="M121.3,52.6H22.5c-2.4,0-4.4-2-4.4-4.4V40c0-0.4,0.3-0.7,0.7-0.7H125c0.4,0,0.7,0.3,0.7,0.7v8.2
		C125.7,50.6,123.8,52.6,121.3,52.6z"/>
	<g>
		<path class="st5" d="M29.2,51.1V28.3c0-0.6-0.5-1.2-1.2-1.2l0,0c-0.6,0-1.2,0.5-1.2,1.2v22.8C27.9,51.1,28.5,51.1,29.2,51.1z"/>
		<path class="st5" d="M50.4,51.1V28.3c0-0.6-0.5-1.2-1.2-1.2l0,0c-0.6,0-1.2,0.5-1.2,1.2v22.8C49.1,51.1,49.7,51.1,50.4,51.1z"/>
		<path class="st5" d="M71.7,51.1V28.3c0-0.6-0.5-1.2-1.2-1.2l0,0c-0.6,0-1.2,0.5-1.2,1.2v22.8C70.4,51.1,71,51.1,71.7,51.1z"/>
		<path class="st5" d="M114.2,51.1V28.3c0-0.6-0.5-1.2-1.2-1.2l0,0c-0.6,0-1.2,0.5-1.2,1.2v22.8C112.9,51.1,113.5,51.1,114.2,51.1z"
			/>
		<path class="st5" d="M92.9,51.1V28.3c0-0.6-0.5-1.2-1.2-1.2l0,0c-0.6,0-1.2,0.5-1.2,1.2v22.8C91.6,51.1,92.2,51.1,92.9,51.1z"/>
	</g>
</g>
</svg>
