<svg id="Layer_1" xmlns="http://www.w3.org/2000/svg" viewBox="0 0 196 204"><style>.st0{fill:#f8eec8}</style><circle class="st0" cx="144.9" cy="43.8" r="29.8"/><path d="M165.8 22.5c3.9 5 6.3 11.4 6.3 18.3 0 16.4-13.3 29.8-29.8 29.8-8.2 0-15.6-3.3-20.9-8.6 5.4 7 13.9 11.5 23.5 11.5 16.4 0 29.8-13.3 29.8-29.8-.1-8.3-3.5-15.8-8.9-21.2z" fill="#f3c74a" opacity=".53"/><path class="st0" d="M120.8 26.8l44.8 38c1.2-1 1-.5 2-1.7s.6-.9 1.4-2.3l-44.8-38c-1.2 1-1 .5-2 1.7-1.1 1.2-.6.9-1.4 2.3z"/><circle cx="73.2" cy="123.4" r="53.5" fill="#c0d5d0"/><path d="M110.9 85.1c7.1 9.1 11.3 20.5 11.3 32.9 0 29.6-24 53.5-53.5 53.5-14.7 0-28-5.9-37.7-15.5 9.8 12.5 25.1 20.6 42.2 20.6 29.6 0 53.5-24 53.5-53.5 0-14.8-6-28.3-15.8-38z" fill="#9fb7b2" opacity=".45"/><path d="M85.7 70.5l-44.3 95.9c2.3 1.6 1.3 1.4 4 2.6 2.6 1.2 1.9.5 4.6 1.3l44.3-95.9c-2.3-1.6-1.3-1.4-4-2.6-2.6-1.2-1.9-.5-4.6-1.3z" fill="#6a9a9b" opacity=".6"/></svg>