<svg xmlns="http://www.w3.org/2000/svg" id="Layer_1" viewBox="0 0 70 122"><style>.st0{fill:#bfa6c2}.st1{fill:#966891}.st2{opacity:.57}.st3{fill:#946d9b}</style><path class="st0" d="M87.5 71.9c-7.2-2.4-11-10.2-8.6-17.4l10.5-31.4c2.4-7.2 10.2-11 17.4-8.6 7.2 2.4 11 10.2 8.6 17.4l-10.5 31.4c-2.5 7.1-10.3 11-17.4 8.6z"/><path class="st1" d="M87.4 72.1c-7.2-2.4-11-10.2-8.6-17.4l5.7-17 26 8.7-5.7 17c-2.5 7.2-10.3 11.1-17.4 8.7z"/><g class="st2"><path class="st3" d="M106.2 14.4c-.6-.2-1.2-.3-1.8-.4 1.7 3.2 2.2 7 1 10.6l-10 31.5c-2.1 6.6-8.8 10.5-15.4 9.3 1.6 3 4.4 5.5 7.9 6.6 7.2 2.3 14.9-1.7 17.2-8.9l10-31.5c2.3-7.2-1.7-14.9-8.9-17.2z"/></g></svg>
