<svg xmlns="http://www.w3.org/2000/svg" viewBox="0 0 58.8 58.8"><g data-name="Layer 2"><g data-name="Layer 1"><circle cx="29.4" cy="29.4" r="29.4" fill="#966891"/><path d="M50 8.4a29.43 29.43 0 0 1-23.2 47.5 29.08 29.08 0 0 1-20.7-8.5 29.35 29.35 0 0 0 52.5-18.1A28.66 28.66 0 0 0 50 8.4z" opacity=".49" fill="#4c324c"/><path d="M40.1 2.2l-29 50.1a10 10 0 0 0 2 1.6c1.3.8 1 .4 2.4.9l29-50.1a10 10 0 0 0-2-1.6c-1.3-.8-1-.3-2.4-.9z" style="isolation:isolate" opacity=".6" fill="#4c324c"/></g></g></svg>