<?xml version="1.0" encoding="utf-8"?>
<!-- Generator: Adobe Illustrator 21.1.0, SVG Export Plug-In . SVG Version: 6.00 Build 0)  -->
<svg version="1.1" id="Layer_1" xmlns="http://www.w3.org/2000/svg" xmlns:xlink="http://www.w3.org/1999/xlink" x="0px" y="0px"
	 viewBox="0 0 140 122" style="enable-background:new 0 0 140 122;" xml:space="preserve">
<style type="text/css">
	.st0{fill:#BFA6C2;}
	.st1{fill:#966891;}
	.st2{opacity:0.43;}
</style>
<path class="st0" d="M87.5,71.9L87.5,71.9c-7.2-2.4-11-10.2-8.6-17.4l10.5-31.4c2.4-7.2,10.2-11,17.4-8.6l0,0
	c7.2,2.4,11,10.2,8.6,17.4l-10.5,31.4C102.4,70.4,94.6,74.3,87.5,71.9z"/>
<path class="st1" d="M87.4,72.1L87.4,72.1c-7.2-2.4-11-10.2-8.6-17.4l5.7-17l26,8.7l-5.7,17C102.3,70.6,94.5,74.5,87.4,72.1z"/>
<path class="st0" d="M16.5,97.2L16.5,97.2c-2.4-7.2,1.6-15,8.7-17.3l31.4-10.4c7.2-2.4,15,1.6,17.3,8.7l0,0c2.4,7.2-1.6,15-8.7,17.3
	l-31.4,10.4C26.6,108.2,18.8,104.3,16.5,97.2z"/>
<path class="st1" d="M16.2,97.2L16.2,97.2c-2.4-7.2,1.6-15,8.7-17.3l17-5.6l8.6,26.1l-17,5.6C26.4,108.3,18.6,104.4,16.2,97.2z"/>
<g class="st2">
	<path class="st0" d="M73.9,78.7c-0.2-0.6-0.4-1.2-0.7-1.7c-1.6,3.2-4.4,5.8-8,7L33.8,94.4c-6.6,2.2-13.7-1-16.6-7
		c-1.5,3.1-1.9,6.8-0.7,10.3v0c2.4,7.2,10.2,11.1,17.3,8.7L65.2,96C72.4,93.6,76.3,85.8,73.9,78.7L73.9,78.7z"/>
</g>
<g class="st2">
	<path class="st0" d="M106.2,14.4c-0.6-0.2-1.2-0.3-1.8-0.4c1.7,3.2,2.2,7,1,10.6l-10,31.5c-2.1,6.6-8.8,10.5-15.4,9.3
		c1.6,3,4.4,5.5,7.9,6.6l0,0c7.2,2.3,14.9-1.7,17.2-8.9l10-31.5C117.4,24.4,113.4,16.7,106.2,14.4L106.2,14.4z"/>
</g>
</svg>
