<svg xmlns="http://www.w3.org/2000/svg" viewBox="0 0 58.8 58.8"><defs><style>.cls-1{fill:#966891;}.cls-2,.cls-3{fill:#4c324c;}.cls-2{opacity:0.49;}.cls-3{opacity:0.6;isolation:isolate;}</style></defs><title>purple-tablet</title><g id="Layer_2" data-name="Layer 2"><g id="Layer_1-2" data-name="Layer 1"><circle class="cls-1" cx="29.4" cy="29.4" r="29.4"/><path class="cls-2" d="M50,8.4A29.43,29.43,0,0,1,26.8,55.9,29.08,29.08,0,0,1,6.1,47.4,29.35,29.35,0,0,0,58.6,29.3,28.66,28.66,0,0,0,50,8.4Z"/><path class="cls-3" d="M40.1,2.2l-29,50.1a10,10,0,0,0,2,1.6c1.3.8,1,.4,2.4.9l29-50.1a10,10,0,0,0-2-1.6C41.2,2.3,41.5,2.8,40.1,2.2Z"/></g></g></svg>