<svg id="Layer_1" xmlns="http://www.w3.org/2000/svg" viewBox="0 0 367.5 111.5"><style>.st1{opacity:.17;fill:#c16c37}.st2{fill:#f8eec8}.st3{fill:#f3c74a}.st4{fill:#bfa6c2}.st5{fill:#783361}.st6{opacity:.16;fill:#473654}.st7{opacity:.29}.st7,.st8{fill:#c0d5d0}.st9{fill:#9fb7b2}.st10{opacity:.6;fill:#6a9a9b}</style><path d="M349.6 89.2h-325c-2.5 0-4.5-2-4.5-4.5V29c0-2.5 2-4.5 4.5-4.5h325c2.5 0 4.5 2 4.5 4.5v55.7c.1 2.5-2 4.5-4.5 4.5z" fill="#f8f6e8"/><path class="st1" d="M124.2 79.4c-2.2 0-4-1.8-4-4V60.8c0-2.2 1.8-4 4-4s4 1.8 4 4v14.6c0 2.2-1.8 4-4 4z"/><path class="st2" d="M123.5 78.6c-2.2 0-4-1.8-4-4V60c0-2.2 1.8-4 4-4s4 1.8 4 4v14.6c0 2.2-1.8 4-4 4z"/><path class="st3" d="M123.5 78.7c-2.2 0-4-1.8-4-4v-7.8h8v7.8c0 2.2-1.8 4-4 4z"/><path class="st2" d="M125.9 57.1c.5.8.8 1.9.8 3v12.4c0 2.8-1.8 5.1-4 5.1-.9 0-1.7-.4-2.3-1 .7 1.3 1.9 2.1 3.3 2.1 2.2 0 4-2.3 4-5.1V61.2c-.1-1.7-.8-3.2-1.8-4.1z"/><path class="st1" d="M181.7 76.2c-2 .9-4.4 0-5.3-2l-6-13.3c-.9-2 0-4.4 2-5.3 2-.9 4.4 0 5.3 2l6 13.3c.9 2 0 4.4-2 5.3z"/><path class="st2" d="M180.7 75.8c-2 .9-4.4 0-5.3-2l-6-13.3c-.9-2 0-4.4 2-5.3 2-.9 4.4 0 5.3 2l6 13.3c.9 2 0 4.4-2 5.3z"/><path class="st3" d="M180.8 75.9c-2 .9-4.4 0-5.3-2l-3.2-7.1 7.3-3.3 3.2 7.1c.9 2 0 4.4-2 5.3z"/><path class="st2" d="M174 55.2c.8.6 1.5 1.4 1.9 2.4l5.1 11.3c1.2 2.6.5 5.4-1.5 6.3-.8.4-1.7.4-2.5.1 1.2.9 2.6 1.2 3.8.6 2-.9 2.7-3.8 1.5-6.3l-5.1-11.3c-.6-1.6-1.9-2.7-3.2-3.1z"/><path class="st1" d="M173.1 38.4c-.6-2.1.6-4.4 2.7-5l14-4.2c2.1-.6 4.4.6 5 2.7.6 2.1-.6 4.4-2.7 5l-14 4.2c-2.1.6-4.4-.6-5-2.7z"/><path class="st2" d="M173.6 37.5c-.6-2.1.6-4.4 2.7-5l14-4.2c2.1-.6 4.4.6 5 2.7.6 2.1-.6 4.4-2.7 5l-14 4.2c-2.1.6-4.4-.6-5-2.7z"/><path class="st3" d="M173.5 37.5c-.6-2.1.6-4.4 2.7-5l7.5-2.2L186 38l-7.5 2.2c-2.1.6-4.4-.6-5-2.7z"/><path class="st2" d="M195 33.6c-.7.7-1.6 1.3-2.6 1.6l-11.9 3.6c-2.7.8-5.4-.3-6.1-2.4-.3-.8-.1-1.7.3-2.5-1 1.1-1.5 2.5-1.1 3.7.6 2.1 3.4 3.2 6.1 2.4l11.9-3.6c1.5-.5 2.7-1.6 3.4-2.8z"/><path class="st1" d="M230.1 81.1c-2.1.8-4.4-.3-5.2-2.3l-5.2-13.6c-.8-2.1.3-4.4 2.3-5.2 2.1-.8 4.4.3 5.2 2.3l5.2 13.6c.8 2.1-.3 4.5-2.3 5.2z"/><path class="st2" d="M229.1 80.7c-2.1.8-4.4-.3-5.2-2.3l-5.2-13.6c-.8-2.1.3-4.4 2.3-5.2 2.1-.8 4.4.3 5.2 2.3l5.2 13.6c.8 2.1-.2 4.4-2.3 5.2z"/><path class="st3" d="M229.1 80.8c-2.1.8-4.4-.3-5.2-2.3l-2.8-7.3 7.5-2.9 2.8 7.3c.8 2.1-.2 4.4-2.3 5.2z"/><path class="st2" d="M223.7 59.7c.7.6 1.4 1.5 1.8 2.5l4.4 11.6c1 2.6.1 5.4-1.9 6.2-.8.3-1.7.3-2.5-.1 1.1.9 2.6 1.3 3.8.8 2.1-.8 2.9-3.6 1.9-6.2L226.7 63c-.6-1.6-1.8-2.8-3-3.3z"/><path class="st1" d="M251.6 51.2c-1.8 1.2-4.3.7-5.6-1.1l-8-12.2c-1.2-1.8-.7-4.3 1.1-5.6 1.8-1.2 4.3-.7 5.6 1.1l8 12.2c1.3 1.9.7 4.4-1.1 5.6z"/><path class="st2" d="M250.6 51c-1.8 1.2-4.3.7-5.6-1.1l-8-12.2c-1.2-1.8-.7-4.3 1.1-5.6 1.8-1.2 4.3-.7 5.6 1.1l8 12.2c1.2 1.9.7 4.4-1.1 5.6z"/><path class="st3" d="M250.6 51.1c-1.8 1.2-4.3.7-5.6-1.1l-4.3-6.5 6.7-4.4 4.3 6.5c1.3 1.8.8 4.3-1.1 5.5z"/><path class="st2" d="M240.7 31.7c.9.4 1.7 1.2 2.3 2.1l6.8 10.3c1.6 2.4 1.3 5.3-.5 6.5-.7.5-1.6.6-2.5.5 1.3.7 2.8.7 3.9 0 1.8-1.2 2.1-4.1.5-6.5l-6.8-10.3c-.9-1.5-2.3-2.4-3.7-2.6z"/><path class="st1" d="M344.9 51.9c-1.8 1.2-4.3.7-5.6-1.1l-8-12.2c-1.2-1.8-.7-4.3 1.1-5.6 1.8-1.2 4.3-.7 5.6 1.1l8 12.2c1.3 1.9.8 4.4-1.1 5.6z"/><path class="st2" d="M343.9 51.7c-1.8 1.2-4.3.7-5.6-1.1l-8-12.2c-1.2-1.8-.7-4.3 1.1-5.6 1.8-1.2 4.3-.7 5.6 1.1l8 12.2c1.3 1.9.8 4.4-1.1 5.6z"/><path class="st3" d="M344 51.8c-1.8 1.2-4.3.7-5.6-1.1l-4.3-6.5 6.7-4.4 4.3 6.5c1.2 1.8.7 4.3-1.1 5.5z"/><path class="st2" d="M334.1 32.4c.9.4 1.7 1.2 2.3 2.1l6.8 10.3c1.6 2.4 1.3 5.3-.5 6.5-.7.5-1.6.6-2.5.5 1.3.7 2.8.7 3.9 0 1.8-1.2 2.1-4.1.5-6.5L337.8 35c-1-1.5-2.4-2.4-3.7-2.6z"/><path class="st1" d="M277.6 50.2c2.1.7 3.2 3 2.5 5.1l-4.7 13.8c-.7 2.1-3 3.2-5.1 2.5-2.1-.7-3.2-3-2.5-5.1l4.7-13.8c.7-2.1 3-3.2 5.1-2.5z"/><path class="st2" d="M278.1 51.1c2.1.7 3.2 3 2.5 5.1L275.9 70c-.7 2.1-3 3.2-5.1 2.5-2.1-.7-3.2-3-2.5-5.1l4.7-13.8c.7-2.1 3-3.2 5.1-2.5z"/><path class="st3" d="M278.1 51c2.1.7 3.2 3 2.5 5.1l-2.5 7.4-7.6-2.6 2.5-7.4c.7-2.1 3-3.2 5.1-2.5z"/><path class="st2" d="M268.9 70.7c-.2-1-.1-2 .2-3.1l4-11.7c.9-2.7 3.4-4.3 5.4-3.6.8.3 1.5.9 1.9 1.7-.3-1.5-1.1-2.6-2.4-3.1-2.1-.7-4.5.9-5.4 3.6l-4 11.7c-.5 1.7-.4 3.3.3 4.5z"/><path class="st1" d="M316.5 63.1c2.1-.5 4.3.9 4.8 3l3.3 14.2c.5 2.2-.8 4.3-3 4.8-2.1.5-4.3-.9-4.8-3l-3.3-14.2c-.5-2.2.9-4.3 3-4.8z"/><path class="st2" d="M317.4 63.6c2.1-.5 4.3.9 4.8 3l3.3 14.2c.5 2.2-.8 4.3-3 4.8-2.1.5-4.3-.9-4.8-3l-3.3-14.2c-.5-2.1.9-4.3 3-4.8z"/><path class="st3" d="M317.4 63.5c2.1-.5 4.3.9 4.8 3l1.8 7.6-7.8 1.8-1.8-7.6c-.5-2.1.8-4.3 3-4.8z"/><path class="st2" d="M319.9 85.2c-.7-.7-1.2-1.7-1.4-2.7l-2.8-12.1c-.6-2.7.6-5.4 2.7-5.9.8-.2 1.7 0 2.5.4-1-1.1-2.4-1.6-3.7-1.3-2.1.5-3.4 3.2-2.7 5.9l2.8 12.1c.5 1.5 1.4 2.9 2.6 3.6z"/><path class="st1" d="M275.9 37.2c2.1-2.2 5.6-2.4 7.8-.3l9.8 9.1c2.2 2.1 2.4 5.6.3 7.8s-5.6 2.4-7.8.3l-9.8-9.1c-2.2-2.1-2.3-5.6-.3-7.8z"/><path class="st4" d="M277.2 37c2.1-2.2 5.6-2.4 7.8-.3l9.8 9.1c2.2 2.1 2.4 5.6.3 7.8s-5.6 2.4-7.8.3l-9.8-9.1c-2.2-2.1-2.3-5.6-.3-7.8z"/><path class="st5" d="M277.1 36.9c2.1-2.2 5.6-2.4 7.8-.3l5.3 4.9-7.5 8.1-5.3-4.9c-2.2-2.1-2.3-5.6-.3-7.8z"/><path class="st6" d="M292 55.2c-1.1-.1-2.2-.6-3.1-1.4l-9.8-9.1c-2.2-2.1-2.4-5.6-.3-7.8.8-.9 1.9-1.4 3-1.7-1.7-.2-3.5.4-4.7 1.7-2.1 2.2-1.9 5.8.3 7.8l9.8 9.1c1.3 1.3 3.1 1.8 4.8 1.4z"/><path class="st1" d="M90.2 41.4c3-.4 5.8 1.8 6.2 4.8L98 59.5c.4 3-1.8 5.8-4.8 6.2-3 .4-5.8-1.8-6.2-4.8l-1.6-13.3c-.4-3.1 1.8-5.8 4.8-6.2z"/><path class="st4" d="M91.3 42.1c3-.4 5.8 1.8 6.2 4.8L99 60.2c.4 3-1.8 5.8-4.8 6.2-3 .4-5.8-1.8-6.2-4.8l-1.6-13.3c-.3-3.1 1.9-5.8 4.9-6.2z"/><path class="st5" d="M91.3 42c3-.4 5.8 1.8 6.2 4.8l.9 7.2-11 1.3-.9-7.2c-.4-3 1.8-5.8 4.8-6.1z"/><path class="st6" d="M90.7 65.6c-.8-.8-1.3-1.9-1.4-3.1l-1.6-13.3c-.4-3 1.8-5.8 4.8-6.2 1.2-.1 2.4.1 3.3.7-1.2-1.3-2.9-2-4.7-1.8-3 .4-5.2 3.1-4.8 6.2l1.6 13.3c.2 1.8 1.3 3.4 2.8 4.2z"/><path class="st1" d="M148.8 54.9c2.4 1.8 2.9 5.3 1 7.8l-8.1 10.6c-1.8 2.4-5.3 2.9-7.8 1-2.4-1.8-2.9-5.3-1-7.8l8.1-10.6c1.9-2.4 5.4-2.9 7.8-1z"/><path class="st4" d="M149.1 56.1c2.4 1.8 2.9 5.3 1 7.8L142 74.5c-1.8 2.4-5.3 2.9-7.8 1-2.4-1.8-2.9-5.3-1-7.8l8.1-10.6c1.9-2.3 5.4-2.8 7.8-1z"/><path class="st5" d="M149.2 56.1c2.4 1.8 2.9 5.3 1 7.8l-4.4 5.7-8.8-6.7 4.4-5.7c1.9-2.5 5.4-3 7.8-1.1z"/><path class="st6" d="M132.3 72.6c0-1.1.4-2.2 1.1-3.2l8.1-10.6c1.8-2.4 5.3-2.9 7.8-1 1 .7 1.6 1.7 1.9 2.8 0-1.7-.7-3.4-2.2-4.6-2.4-1.8-5.9-1.4-7.8 1l-8.1 10.6c-1 1.5-1.3 3.4-.8 5z"/><g><path class="st1" d="M240.9 60.1c3-.4 5.8 1.8 6.2 4.8l1.6 13.3c.4 3-1.8 5.8-4.8 6.2-3 .4-5.8-1.8-6.2-4.8L236 66.2c-.3-3 1.8-5.8 4.9-6.1z"/><path class="st4" d="M242 60.8c3-.4 5.8 1.8 6.2 4.8l1.6 13.3c.4 3-1.8 5.8-4.8 6.2-3 .4-5.8-1.8-6.2-4.8L237.2 67c-.4-3.1 1.8-5.9 4.8-6.2z"/><path class="st5" d="M242 60.6c3-.4 5.8 1.8 6.2 4.8l.9 7.2L238 74l-.9-7.2c-.3-3 1.9-5.8 4.9-6.2z"/><path class="st6" d="M241.4 84.3c-.8-.8-1.3-1.9-1.4-3.1l-1.6-13.3c-.4-3 1.8-5.8 4.8-6.2 1.2-.1 2.4.1 3.3.7-1.2-1.3-2.9-2-4.7-1.8-3 .4-5.2 3.1-4.8 6.2l1.6 13.3c.2 1.8 1.3 3.3 2.8 4.2z"/></g><g><ellipse transform="rotate(-44.299 146.108 41.89)" class="st7" cx="146.1" cy="41.9" rx="5.4" ry="5.4"/><ellipse transform="rotate(-44.299 146.254 40.95)" class="st8" cx="146.3" cy="40.9" rx="5.4" ry="5.4"/><path class="st9" d="M151.7 39.9c-.1 1.6-.9 3.2-2.4 4.2-1.7 1.2-4.1 1.2-5.8.1-1.4-.8-2.2-2.1-2.5-3.5-.1 1.8.7 3.7 2.4 4.8 1.7 1.2 4.1 1.2 5.9.1 2-1.3 2.8-3.6 2.4-5.7z"/><path class="st10" d="M151.1 43.3l-9.2-5.5c-.2.2-.2.1-.3.4-.1.3-.1.2-.2.4l9.2 5.5c.2-.2.2-.1.3-.4.2-.2.1-.2.2-.4z"/><ellipse transform="rotate(-44.299 132.454 48.04)" class="st7" cx="132.5" cy="48" rx="5.4" ry="5.4"/><ellipse transform="rotate(-44.299 132.6 47.1)" class="st8" cx="132.6" cy="47.1" rx="5.4" ry="5.4"/><path class="st9" d="M138 46c-.1 1.6-.9 3.2-2.4 4.2-1.7 1.2-4.1 1.2-5.8.1-1.4-.8-2.2-2.1-2.5-3.5-.1 1.8.7 3.7 2.4 4.8 1.7 1.2 4.1 1.2 5.9.1 2.1-1.2 2.9-3.6 2.4-5.7z"/><path class="st10" d="M135.2 51.8l-4.4-9.8c-.3.1-.2 0-.5.1s-.2.1-.4.3l4.4 9.8c.3-.1.2 0 .5-.1.3-.2.2-.2.4-.3z"/></g><g><ellipse transform="rotate(-46.33 191.553 62.45)" class="st7" cx="191.6" cy="62.4" rx="5.4" ry="5.4"/><ellipse transform="rotate(-46.33 192.497 62.563)" class="st8" cx="192.5" cy="62.6" rx="5.4" ry="5.4"/><path class="st9" d="M193.8 67.9c-1.6 0-3.2-.8-4.3-2.2-1.2-1.7-1.4-4-.3-5.8.8-1.4 2-2.2 3.4-2.6-1.8 0-3.7.8-4.8 2.6-1.1 1.8-1.1 4.1.1 5.9 1.4 1.9 3.8 2.7 5.9 2.1z"/><path class="st10" d="M190.4 67.5l5.1-9.4c-.2-.2-.1-.2-.4-.3-.3-.1-.2-.1-.5-.2l-5.1 9.4c.2.2.1.2.4.3.3.1.2.1.5.2z"/><ellipse transform="rotate(-46.33 184.922 49.022)" class="st7" cx="184.9" cy="49" rx="5.4" ry="5.4"/><ellipse transform="rotate(-46.33 185.866 49.135)" class="st8" cx="185.9" cy="49.1" rx="5.4" ry="5.4"/><path class="st9" d="M187.1 54.5c-1.6 0-3.2-.8-4.3-2.2-1.2-1.7-1.4-4-.3-5.8.8-1.4 2-2.2 3.4-2.6-1.8 0-3.7.8-4.8 2.6-1.1 1.8-1.1 4.1.1 5.9 1.5 1.9 3.9 2.6 5.9 2.1z"/><path class="st10" d="M181.3 51.9l9.6-4.7c-.1-.3 0-.2-.1-.5s-.1-.2-.3-.4l-9.6 4.7c.1.3 0 .2.1.5s.1.2.3.4z"/></g><g><ellipse transform="rotate(-46.33 232.219 51.119)" class="st7" cx="232.2" cy="51.1" rx="5.4" ry="5.4"/><ellipse transform="rotate(-46.33 233.163 51.231)" class="st8" cx="233.2" cy="51.2" rx="5.4" ry="5.4"/><path class="st9" d="M234.4 56.6c-1.6 0-3.2-.8-4.3-2.2-1.2-1.7-1.4-4-.3-5.8.8-1.4 2-2.2 3.4-2.6-1.8 0-3.7.8-4.8 2.6-1.1 1.8-1.1 4.1.1 5.9 1.5 1.9 3.8 2.6 5.9 2.1z"/><path class="st10" d="M231 56.1l5.1-9.4c-.2-.2-.1-.2-.4-.3-.3-.1-.2-.1-.5-.2l-5.1 9.4c.2.2.1.2.4.3.3.2.3.1.5.2z"/><ellipse transform="rotate(-46.33 225.588 37.69)" class="st7" cx="225.6" cy="37.7" rx="5.4" ry="5.4"/><ellipse transform="rotate(-46.33 226.532 37.803)" class="st8" cx="226.5" cy="37.8" rx="5.4" ry="5.4"/><path class="st9" d="M227.8 43.2c-1.6 0-3.2-.8-4.3-2.2-1.2-1.7-1.4-4-.3-5.8.8-1.4 2-2.2 3.4-2.6-1.8 0-3.7.8-4.8 2.6-1.1 1.8-1.1 4.1.1 5.9 1.5 1.9 3.8 2.6 5.9 2.1z"/><path class="st10" d="M221.9 40.6l9.6-4.7c-.1-.3 0-.2-.1-.5s-.1-.2-.3-.4l-9.6 4.7c.1.3 0 .2.1.5.2.2.2.1.3.4z"/></g><g><ellipse transform="rotate(-46.33 331.549 75.122)" class="st7" cx="331.6" cy="75.1" rx="5.4" ry="5.4"/><ellipse transform="rotate(-46.33 332.493 75.235)" class="st8" cx="332.5" cy="75.2" rx="5.4" ry="5.4"/><path class="st9" d="M333.8 80.6c-1.6 0-3.2-.8-4.3-2.2-1.2-1.7-1.4-4-.3-5.8.8-1.4 2-2.2 3.4-2.6-1.8 0-3.7.8-4.8 2.6-1.1 1.8-1.1 4.1.1 5.9 1.4 1.9 3.8 2.6 5.9 2.1z"/><path class="st10" d="M330.4 80.1l5.1-9.4c-.2-.2-.1-.2-.4-.3-.3-.1-.2-.1-.5-.2l-5.1 9.4c.2.2.1.2.4.3s.2.1.5.2z"/><ellipse transform="rotate(-46.33 324.918 61.694)" class="st7" cx="324.9" cy="61.7" rx="5.4" ry="5.4"/><ellipse transform="rotate(-46.33 325.862 61.807)" class="st8" cx="325.9" cy="61.8" rx="5.4" ry="5.4"/><path class="st9" d="M327.1 67.2c-1.6 0-3.2-.8-4.3-2.2-1.2-1.7-1.4-4-.3-5.8.8-1.4 2-2.2 3.4-2.6-1.8 0-3.7.8-4.8 2.6-1.1 1.8-1.1 4.1.1 5.9 1.5 1.9 3.9 2.6 5.9 2.1z"/><path class="st10" d="M321.3 64.6l9.6-4.7c-.1-.3 0-.2-.1-.5s-.1-.2-.3-.4l-9.6 4.7c.1.3 0 .2.1.5s.1.1.3.4z"/></g><g><ellipse transform="rotate(-5.871 282.58 77.518)" class="st7" cx="282.6" cy="77.5" rx="5.4" ry="5.4"/><ellipse transform="rotate(-5.871 283.225 78.216)" class="st8" cx="283.2" cy="78.2" rx="5.4" ry="5.4"/><path class="st9" d="M280.7 83.1c-1.2-1.1-1.9-2.7-1.8-4.5.2-2.1 1.6-3.9 3.5-4.6 1.5-.5 3-.4 4.3.2-1.4-1.2-3.3-1.7-5.3-1.1-2 .6-3.5 2.5-3.7 4.6-.2 2.4 1.1 4.5 3 5.4z"/><path class="st10" d="M278.4 80.6l10-3.8c-.1-.3 0-.2-.1-.5s-.1-.2-.2-.4l-10 3.8c.1.3 0 .2.1.5.1.2.1.1.2.4z"/><ellipse transform="rotate(-5.871 286.247 62.998)" class="st7" cx="286.3" cy="63" rx="5.4" ry="5.4"/><ellipse transform="rotate(-5.871 286.892 63.696)" class="st8" cx="286.9" cy="63.7" rx="5.4" ry="5.4"/><path class="st9" d="M284.4 68.6c-1.2-1.1-1.9-2.7-1.8-4.5.2-2.1 1.6-3.9 3.5-4.6 1.5-.5 3-.4 4.3.2-1.4-1.2-3.3-1.7-5.3-1.1-2 .6-3.5 2.5-3.7 4.6-.3 2.4 1.1 4.5 3 5.4z"/><path class="st10" d="M281.6 62.8l10.4 2.7c.1-.3.1-.2.2-.4.1-.3 0-.2 0-.5l-10.4-2.7c-.1.3-.1.2-.2.4v.5z"/></g><g opacity=".63"><path class="st3" d="M349.6 23.8h-233v64.8h233c2.5 0 4.5-2 4.5-4.5V28.3c.1-2.5-2-4.5-4.5-4.5zm-324.9 0c-2.5 0-4.5 2-4.5 4.5V84c0 2.5 2 4.5 4.5 4.5H68V23.8H24.7z"/></g><path class="st2" d="M70.6 80.8V37.6c0-1.2-.5-2.2-1.2-2.2-.6 0-1.2 1-1.2 2.2v43.3c1.1-.1 1.7-.1 2.4-.1zm45.2 0V37.6c0-1.2-.5-2.2-1.2-2.2-.6 0-1.2 1-1.2 2.2v43.3c1.1-.1 1.7-.1 2.4-.1zm48.2 0V37.6c0-1.2-.5-2.2-1.2-2.2-.6 0-1.2 1-1.2 2.2v43.3c1.1-.1 1.7-.1 2.4-.1zm48.2 0V37.6c0-1.2-.5-2.2-1.2-2.2-.6 0-1.2 1-1.2 2.2v43.3c1.1-.1 1.7-.1 2.4-.1zm48.2 0V37.6c0-1.2-.5-2.2-1.2-2.2-.6 0-1.2 1-1.2 2.2v43.3c1.1-.1 1.7-.1 2.4-.1zm48.2 0V37.6c0-1.2-.5-2.2-1.2-2.2-.6 0-1.2 1-1.2 2.2v43.3c1.1-.1 1.7-.1 2.4-.1z"/><text transform="translate(35.332 67.808)" class="st2" font-size="30.168" font-family="Geomanist-Bold">S T W T F S</text></svg>