<svg id="Layer_1" xmlns="http://www.w3.org/2000/svg" viewBox="0 0 100 392"><style>.st0{fill:#f8f6e8}.st2{fill:#f8eec8}.st3{fill:#c0d5d0}.st5{fill:#f3c74a}.st6{opacity:.57}</style><path class="st0" d="M53.6 301.3c-14.9 0-27-12.1-27-27V49c0-14.8 12.1-27 27-27 14.8 0 27 12.1 27 27v225.3c0 14.9-12.1 27-27 27z"/><path class="st0" d="M53.6 355c5.9 0 10.7-4.8 10.7-10.7V300c0-5.9-4.8-10.7-10.7-10.7-5.9 0-10.7 4.8-10.7 10.7v44.2c0 5.9 4.8 10.8 10.7 10.8z"/><path class="st2" d="M53.6 22.3c-2.7 0-5.3.4-7.7 1.1 12.5 2.3 22 13.4 22 26.5v225.3c0 12.2-8.2 22.5-19.3 25.9 1.6.3 3.3.5 5 .5 14.8 0 27-12.1 27-27V49.2c0-14.8-12.1-26.9-27-26.9z" opacity=".65"/><path class="st3" d="M53.6 355c5.9 0 10.7-4.8 10.7-10.7v-30.9H42.9v30.9c0 5.8 4.8 10.7 10.7 10.7z"/><path class="st3" d="M60.4 313.1v27.4c0 5.9-4.8 10.7-10.7 10.7-1.6 0-3.1-.4-4.4-1 1.9 2.7 5.1 4.5 8.7 4.5 5.9 0 10.7-4.8 10.7-10.7v-30.9h-4.3z" opacity=".59"/><path class="st5" d="M55.3 313.4H52v-265c0-.9.8-1.7 1.7-1.7.9 0 1.7.8 1.7 1.7v265z"/><g class="st6"><path class="st5" d="M72.3 57H37.7c-.7 0-1.3-.6-1.3-1.3 0-.7.6-1.3 1.3-1.3h34.7c.7 0 1.3.6 1.3 1.3 0 .7-.6 1.3-1.4 1.3zm0 29.3H37.7c-.7 0-1.3-.6-1.3-1.3 0-.7.6-1.3 1.3-1.3h34.7c.7 0 1.3.6 1.3 1.3 0 .7-.6 1.3-1.4 1.3zm-.6 29.3H37c-.7 0-1.3-.6-1.3-1.3 0-.7.6-1.3 1.3-1.3h34.7c.7 0 1.3.6 1.3 1.3 0 .7-.6 1.3-1.3 1.3zm0 29.2H37c-.7 0-1.3-.6-1.3-1.3 0-.7.6-1.3 1.3-1.3h34.7c.7 0 1.3.6 1.3 1.3 0 .7-.6 1.3-1.3 1.3zm0 29.3H37c-.7 0-1.3-.6-1.3-1.3 0-.7.6-1.3 1.3-1.3h34.7c.7 0 1.3.6 1.3 1.3 0 .7-.6 1.3-1.3 1.3zm0 29.3H37c-.7 0-1.3-.6-1.3-1.3 0-.7.6-1.3 1.3-1.3h34.7c.7 0 1.3.6 1.3 1.3 0 .7-.6 1.3-1.3 1.3zm0 29.3H37c-.7 0-1.3-.6-1.3-1.3 0-.7.6-1.3 1.3-1.3h34.7c.7 0 1.3.6 1.3 1.3 0 .7-.6 1.3-1.3 1.3z"/></g><g class="st6"><path class="st5" d="M63.3 72H45.7c-.7 0-1.3-.6-1.3-1.3 0-.7.6-1.3 1.3-1.3h17.6c.7 0 1.3.6 1.3 1.3.1.7-.5 1.3-1.3 1.3zm0 29.3H45.7c-.7 0-1.3-.6-1.3-1.3 0-.7.6-1.3 1.3-1.3h17.6c.7 0 1.3.6 1.3 1.3.1.7-.5 1.3-1.3 1.3zm-.3 29.3H45.3c-.7 0-1.3-.6-1.3-1.3 0-.7.6-1.3 1.3-1.3H63c.7 0 1.3.6 1.3 1.3 0 .7-.6 1.3-1.3 1.3zm0 29.2H45.3c-.7 0-1.3-.6-1.3-1.3 0-.7.6-1.3 1.3-1.3H63c.7 0 1.3.6 1.3 1.3 0 .7-.6 1.3-1.3 1.3zm0 29.3H45.3c-.7 0-1.3-.6-1.3-1.3 0-.7.6-1.3 1.3-1.3H63c.7 0 1.3.6 1.3 1.3 0 .7-.6 1.3-1.3 1.3zm0 29.3H45.3c-.7 0-1.3-.6-1.3-1.3 0-.7.6-1.3 1.3-1.3H63c.7 0 1.3.6 1.3 1.3 0 .7-.6 1.3-1.3 1.3zm0 29.3H45.3c-.7 0-1.3-.6-1.3-1.3 0-.7.6-1.3 1.3-1.3H63c.7 0 1.3.6 1.3 1.3 0 .7-.6 1.3-1.3 1.3z"/></g><path d="M55.3 313.8H52V137.4c0-.9.8-1.7 1.7-1.7.9 0 1.7.8 1.7 1.7v176.4z" fill="#ea4143"/><path class="st2" d="M60.2 298.3h4.3v15h-4.3z"/></svg>