<svg id="Layer_1" xmlns="http://www.w3.org/2000/svg" viewBox="0 0 324 328"><style>.st0{fill:#f3c74a}.st2{fill:#f8eec8}</style><path class="st0" d="M285.2 172.4c-18.9-13.8-46.7-7.9-62.2 13.3-15.5 21.2-12.8 49.5 6.1 63.3 18.9 13.8 46.7 7.9 62.2-13.3 15.5-21.1 12.8-49.5-6.1-63.3zm-12.2 50c-7.2 9.8-20.2 12.6-28.9 6.2-8.8-6.4-10-19.6-2.8-29.4 7.2-9.8 20.2-12.6 28.9-6.2 8.8 6.3 10 19.5 2.8 29.4z"/><path class="st0" d="M244.4 228.8c-1.9-1.4-3.4-3-4.5-4.9l-.3 30.7c7.6 2.6 15.9 2.8 24 .8l5.9-28.6c-7.4 6.3-17.7 7.4-25.1 2zm-2.8-29.4c7.2-9.8 20.2-12.6 28.9-6.2 2 1.5 3.6 3.3 4.8 5.4l5.9-28.6c-12.4-6.8-27.7-6.2-40.8.9l-.3 30.7c.5-.7 1-1.5 1.5-2.2z" opacity=".53"/><path class="st0" d="M183.9 308H85.8c-5 0-9-4-9-9s4-9 9-9h98.1c5 0 9 4 9 9s-4.1 9-9 9z"/><path class="st0" d="M246.3 171.7c.1-2.2.2-4.3.3-6.5.3-9.4-7.2-17.2-16.6-17.2H39.7c-9.4 0-16.9 7.8-16.6 17.2.4 10.8 1.1 21.5 2.2 31.9V171c9.5.1 17.1 2.2 17.1 27.8 0 15.3-3.9 35.7-8.5 50.3 9.9 33 40.6 55.9 75.6 55.9h50.6c31.6 0 59.7-18.7 72.1-46.6-5.8-13.8-11.8-40.5-11.8-59.5 0-25.6 7.6-27.7 17.1-27.8v70.5c.8-3.7 1.5-7.4 2.1-11.1V171c2.5 0 4.7.2 6.7.7z"/><path class="st2" d="M90 198.8c0 25.2 10.5 64 17.1 68.1V171c-9.5.1-17.1 2.2-17.1 27.8zm36.4 0c0-25.6-7.6-27.7-17.1-27.8v95.9c6.5-4 17.1-42.9 17.1-68.1zm-78.9 0c0 25.2 10.5 64 17.1 68.1V171c-9.5.1-17.1 2.2-17.1 27.8zm36.4 0c0-25.6-7.6-27.7-17.1-27.8v95.9c6.5-4 17.1-42.9 17.1-68.1zm51.1 0c0 25.2 10.5 64 17.1 68.1V171c-9.5.1-17.1 2.2-17.1 27.8zm36.4 0c0-25.6-7.6-27.7-17.1-27.8v95.9c6.5-4 17.1-42.9 17.1-68.1zm6.6 0c0 25.2 10.5 64 17.1 68.1V171c-9.5.1-17.1 2.2-17.1 27.8zm36.4 0c0-25.6-7.6-27.7-17.1-27.8v95.9c6.5-4 17.1-42.9 17.1-68.1zM25.3 171v26.1c1.6 15.8 4 31.1 7 45.5.5 2.2 1 4.3 1.7 6.4 4.5-14.5 8.5-34.9 8.5-50.3-.1-25.5-7.7-27.6-17.2-27.7zm195.2 27.8c0 19 6 45.8 11.8 59.5 2.2-5 3.9-10.2 5.1-15.7.1-.4.2-.8.2-1.2V171c-9.5.1-17.1 2.2-17.1 27.8zm19.3-27.8v59.3c3.3-18.5 5.5-38.2 6.5-58.6-2-.5-4.2-.7-6.5-.7zM139.7 26.7c3-5.5 7-9 11.3-11 2.8-1.2 2.1-5.2-.9-5.5-3.6-.3-7.3.3-10.8 2.1-9 4.5-13.4 15.2-10 24.7 1.4 3.8 3.7 7 6.7 9.3 2.6 2 6.2-.8 4.8-3.8-2-4.3-2.6-9.7-1.1-15.8z"/><path class="st2" d="M137.1 38.7c1 .7 2 1.5 2.9 2.5 6.5 6.6 7.5 17.1 2.5 24.9-.9 1.3-1.8 2.5-2.9 3.6-1.6 1.5-.1 4.1 2 3.6 4.5-1.1 8.6-3.7 11.6-7.8 5.9-8.2 4.8-19.7-2.6-26.6-3.3-3.1-7.4-4.9-11.6-5.3-2.9-.4-4.4 3.4-1.9 5.1z"/><path class="st2" d="M130.1 79c3-5.5 7-9 11.3-11 2.8-1.2 2.1-5.2-.9-5.5-3.6-.3-7.3.3-10.8 2.1-9 4.5-13.4 15.2-10 24.7 1.4 3.8 3.7 7 6.7 9.3 2.6 2 6.2-.8 4.8-3.8-2-4.3-2.6-9.7-1.1-15.8z"/><path class="st2" d="M130.9 93.3c1 .7 2 1.5 2.9 2.5 6.5 6.6 7.5 17.1 2.5 24.9-.9 1.3-1.8 2.5-2.9 3.6-1.6 1.5-.1 4.1 2 3.6 4.5-1.1 8.6-3.7 11.6-7.8 5.9-8.2 4.8-19.7-2.6-26.6-3.3-3.1-7.4-4.9-11.6-5.3-2.8-.4-4.3 3.3-1.9 5.1z"/><path d="M136.2 283.2c-55.5-11.7-98-45.4-110.1-82.9.6 8.3 2.8 32.9 8.5 49.2 9.9 33 40.6 55.9 75.6 55.9h50.6c21.5 0 41.5-8.7 55.9-23.1-23.9 6.2-51.8 6.9-80.5.9z" opacity=".53" fill="#f3c74a"/></svg>