<svg id="Layer_1" xmlns="http://www.w3.org/2000/svg" viewBox="0 0 180 246"><style>.st3{fill:#f8f6e8}</style><path d="M135.5 213H39.7c-6.2 0-11.3-5.1-11.3-11.3V44.8c0-3.5 2.8-6.3 6.3-6.3h105.9c3.5 0 6.3 2.8 6.3 6.3v156.9c0 6.2-5.1 11.3-11.4 11.3z" fill="#f3c74a"/><path d="M31.1 176h47.6c8.5 0 15.4-6.9 15.4-15.4V76.3c0-8.5-6.9-15.4-15.4-15.4H31.1c-2.1 0-3.8 1.9-3.8 4.2v106.8c0 2.2 1.7 4.1 3.8 4.1z" fill="#f8eec8"/><path d="M28.1 75.2V43.1c0-3.5 2.8-6.3 6.3-6.3h105.9c3.5 0 6.3 2.8 6.3 6.3v11.4L28.1 75.2z" opacity=".67" fill="#f3c74a"/><path class="st3" d="M155.7 48.3H19.5c-2.4 0-4.4-2-4.4-4.4v-26c0-2.4 2-4.4 4.4-4.4h136.1c2.4 0 4.4 2 4.4 4.4v26c.1 2.4-1.9 4.4-4.3 4.4z"/><path d="M26.2 49.4V26.7c0-.6-.5-1.2-1.2-1.2-.6 0-1.2.5-1.2 1.2v22.8c1.1-.1 1.7-.1 2.4-.1zm21.2 0V26.7c0-.6-.5-1.2-1.2-1.2-.6 0-1.2.5-1.2 1.2v22.8c1.1-.1 1.8-.1 2.4-.1zm21.3 0V26.7c0-.6-.5-1.2-1.2-1.2-.6 0-1.2.5-1.2 1.2v22.8c1.1-.1 1.7-.1 2.4-.1zm21.2 0V26.7c0-.6-.5-1.2-1.2-1.2-.6 0-1.2.5-1.2 1.2v22.8c1.1-.1 1.7-.1 2.4-.1zm21.3 0V26.7c0-.6-.5-1.2-1.2-1.2-.6 0-1.2.5-1.2 1.2v22.8c1.1-.1 1.7-.1 2.4-.1zm21.2 0V26.7c0-.6-.5-1.2-1.2-1.2-.6 0-1.2.5-1.2 1.2v22.8c1.1-.1 1.8-.1 2.4-.1zm21.3 0V26.7c0-.6-.5-1.2-1.2-1.2-.6 0-1.2.5-1.2 1.2v22.8c1.1-.1 1.7-.1 2.4-.1z" fill="#c0d5d0"/><path class="st3" d="M155.7 49.9H19.5c-2.4 0-4.4-2-4.4-4.4v-8.2c0-.4.3-.7.7-.7h143.5c.4 0 .7.3.7.7v8.2c.1 2.5-1.9 4.4-4.3 4.4z"/></svg>