<svg id="Layer_1" xmlns="http://www.w3.org/2000/svg" viewBox="0 0 354 276"><style>.st0{fill:#c0d5d0}.st1{stroke:#c0d5d0;stroke-width:5;stroke-miterlimit:10}.st1,.st2{fill:none}.st3{font-family:&apos;Geomanist-Bold&apos;}.st4{font-size:48px}.st5{letter-spacing:9}</style><path class="st0" d="M20.2 189.6l25.6-94.1c1.5-5.6 7.3-8.9 12.9-7.4l184.5 50.2c5.6 1.5 8.9 7.3 7.4 12.9L225 245.3c-1.5 5.6-7.3 8.9-12.9 7.4L27.6 202.5c-5.6-1.5-8.9-7.3-7.4-12.9z"/><path class="st1" d="M35.9 186.7L57.8 106c.8-2.8 3.7-4.5 6.5-3.8l166.8 45.3c2.8.8 4.5 3.7 3.8 6.5L213 234.9c-.8 2.8-3.7 4.5-6.5 3.8L39.6 193.3c-2.8-.8-4.5-3.7-3.7-6.6z"/><ellipse transform="rotate(-74.793 136.442 168.637)" class="st0" cx="136.4" cy="168.6" rx="33.3" ry="24.2"/><path transform="rotate(-74.793 130.816 190.544)" class="st2" d="M89.8 155.6h82v69.9h-82z"/><text transform="rotate(15.204 -618.45 541.057)" class="st0 st3 st4 st5">$</text><path d="M88.8 123.9L141.6 42c3.1-4.9 9.6-6.3 14.5-3.1l160.7 103.6c4.9 3.1 6.3 9.6 3.1 14.5l-52.8 81.9c-3.1 4.9-9.6 6.3-14.5 3.1L91.9 138.4c-4.9-3.1-6.3-9.6-3.1-14.5z" opacity=".48" fill="#c0d5d0"/><path class="st0" d="M96.8 118.9L149.6 37c3.1-4.9 9.6-6.3 14.5-3.1l160.7 103.6c4.9 3.1 6.3 9.6 3.1 14.5l-52.8 81.9c-3.1 4.9-9.6 6.3-14.5 3.1L99.9 133.4c-4.9-3.1-6.3-9.6-3.1-14.5z"/><path class="st1" d="M112.6 120.9l45.3-70.3c1.6-2.5 4.9-3.2 7.4-1.6l145.3 93.7c2.5 1.6 3.2 4.9 1.6 7.4l-45.3 70.3c-1.6 2.5-4.9 3.2-7.4 1.6l-145.3-93.7c-2.5-1.7-3.2-5-1.6-7.4z"/><ellipse transform="rotate(-57.18 213.945 134.039)" class="st0" cx="213.9" cy="134" rx="33.3" ry="24.2"/><path transform="rotate(-57.18 201.956 153.219)" class="st2" d="M160.9 118.3h82v69.9h-82z"/><text transform="rotate(32.818 -142.098 400.98)" class="st0 st3 st4 st5">$</text></svg>