<?xml version="1.0" encoding="utf-8"?>
<!-- Generator: Adobe Illustrator 21.1.0, SVG Export Plug-In . SVG Version: 6.00 Build 0)  -->
<svg version="1.1" id="Layer_1" xmlns="http://www.w3.org/2000/svg" xmlns:xlink="http://www.w3.org/1999/xlink" x="0px" y="0px"
	 viewBox="0 0 332 405" style="enable-background:new 0 0 332 405;" xml:space="preserve">
<style type="text/css">
	.st0{fill:#C16C37;}
	.st1{fill:#194151;}
	.st2{opacity:0.42;}
	.st3{fill:#E8C488;}
	.st4{fill:#ADC4BE;}
	.st5{opacity:0.49;fill:#C0D5D0;}
	.st6{opacity:0.55;fill:#C16C37;}
	.st7{fill:#C0D5D0;}
	.st8{opacity:0.5;fill:#C0D5D0;}
	.st9{fill:#F8F6E8;}
	.st10{fill:#BFB9A5;}
	.st11{opacity:0.5;}
	.st12{fill:#ECE9DC;}
	.st13{fill:#E75F67;}
	.st14{fill:none;}
</style>
<rect x="52.7" y="78" transform="matrix(0.9371 -0.3491 0.3491 0.9371 -32.0093 25.7118)" class="st0" width="5.3" height="47.3"/>
<rect x="245.3" y="82" transform="matrix(-0.8638 -0.5039 0.5039 -0.8638 408.972 321.9014)" class="st0" width="5.3" height="47.3"/>
<g>
	<path class="st1" d="M145.3,183.5c-19.8-8.3-41.8-12.4-61.3-3.2c-16,7.6-29.3,24.2-35.4,44.4c-1.9,6.4-3.2,13-4.4,19.6
		c-0.9,4.8-1.8,9.8-1.6,14.7c0.2,4.5,1.4,8.8,2.8,12.9c10.3,29.6,33.8,49.2,58.4,57.9c24.6,8.7,50.6,8,76.1,7.3
		c15.5-0.4,31.1-0.8,46.1-5.3c31.2-9.2,57.7-34.9,79-65.6c2.2-3.2,0.2-7.6-3.5-8c0,0-0.1,0-0.1,0c-17.4-1.6-30.7-19.8-40.9-37.7
		c-10.2-17.9-20.2-37.8-36.3-46.4c-6.2-3.3-13.1-4.7-19.8-5c-9.8-0.4-19.7,1.4-29.1,5.4"/>
</g>
<g class="st2">
	<path class="st1" d="M163,189.2c-13.1-8.9,42.2,107.6,44.5,118.8c4.3,20.6,22.5,19.6,31.1-8.9c7.4-24.5,8.7-35.5,4.8-71.3
		c-1.8-16.5-12.8-29.3-23.2-38.1c-4-3.4-8.7-5.2-13.5-6.2c-6.9-1.4-14.2-0.9-21.3,1.4"/>
</g>
<g class="st2">
	<path class="st1" d="M137.8,192c-14.3-8.3-30.2-12.4-44.3-3.2c-11.6,7.6-21.2,24.2-25.6,44.4c-1.4,6.4-2.3,13-3.2,19.6
		c-0.7,4.8-1.3,9.8-1.1,14.7c0.2,4.5,1,8.8,2,12.9c7.4,29.6,24.4,49.2,42.2,57.9"/>
</g>
<ellipse transform="matrix(0.7482 -0.6635 0.6635 0.7482 -67.8376 80.605)" class="st3" cx="72.3" cy="129.7" rx="14" ry="14"/>
<path class="st4" d="M61.7,137.4l22.7-11.7c1.6-0.8,3.5-0.2,4.3,1.4l30.4,59c3.2,6.3,0.8,14.1-5.5,17.4l-5.5,2.8
	c-6.3,3.2-14.1,0.8-17.4-5.5l-30.4-59C59.5,140.1,60.1,138.2,61.7,137.4z"/>
<g>
	<path class="st1" d="M89.1,126.7c-0.8-1.6-2.7-2.2-4.3-1.4l-22.6,11.9c-1.9,1-2.7,3.4-1.7,5.3l0.1,0.1c0.3,0.5,1,0.5,1.3,0
		c0.3-0.5,0.7-0.8,1.2-1.1l23.2-12.3c1.6-0.8,3.5-0.2,4.3,1.4"/>
</g>
<ellipse transform="matrix(0.6635 -0.7482 0.7482 0.6635 -21.0185 212.6081)" class="st3" cx="225.8" cy="129.7" rx="14" ry="14"/>
<path class="st4" d="M236.4,137.4l-22.7-11.7c-1.6-0.8-3.5-0.2-4.3,1.4l-30.4,59c-3.2,6.3-0.8,14.1,5.5,17.4l5.5,2.8
	c6.3,3.2,14.1,0.8,17.4-5.5l30.4-59C238.6,140.1,238,138.2,236.4,137.4z"/>
<g>
	<path class="st1" d="M209,126.7c0.8-1.6,2.7-2.2,4.3-1.4l22.6,11.9c1.9,1,2.7,3.4,1.7,5.3l-0.1,0.1c-0.3,0.5-1,0.5-1.3,0
		c-0.3-0.5-0.7-0.8-1.2-1.1l-23.2-12.3c-1.6-0.8-3.5-0.2-4.3,1.4"/>
</g>
<path class="st0" d="M117.3,164.5l-3,0c-10,1.9-16.8-4.7-18.7-14.7l-6-15.8c-1.9-10,4.7-19.8,14.7-21.7h0c10-1.9,19.8,4.7,21.7,14.7
	l3,15.8C130.9,152.8,127.3,162.6,117.3,164.5z"/>
<path class="st5" d="M117.3,170l-3,0c-10,1.9-16.8-4.7-18.7-14.7l-6-15.8c-1.9-10,4.7-19.8,14.7-21.7h0c10-1.9,19.8,4.7,21.7,14.7
	l3,15.8C130.9,158.3,127.3,168.1,117.3,170z"/>
<path class="st6" d="M129,162.2l-1.3,0.8c-8.7,5.3-20.2,2.6-25.5-6.1l-10.5-17.2c-5.3-8.7-2.6-20.2,6.1-25.5l1.3-0.8
	c8.7-5.3,20.2-2.6,25.5,6.1l10.5,17.2C140.4,145.4,137.7,156.9,129,162.2z"/>
<path class="st7" d="M228.4,349.6c0,2.4-1.7,4.4-3.9,4.4H78.9c-2.1,0-3.9-2-3.9-4.4c0-14.6,2.6-60.2,2.6-60.4
	c2.1-21.8,7.2-39.6,18.5-54.1c0.9-1.1,1.8-2.2,2.7-3.3c-2.3-4.7-3.6-10.2-3.6-15.9v-0.3c0-18.2,13-33.1,28.8-33.1h52.2
	c15.8,0,28.8,14.9,28.8,33.1v0.3c0,4.8-0.9,9.3-2.5,13.4c1.6,1.6,3.1,3.4,4.5,5.2c11.8,14.7,18.2,33.5,19,55.6L228.4,349.6z"/>
<path class="st5" d="M155.3,230.2c15-6.1,39.7-39.8,39.7-39.8c9.6,10.1,10.2,21,10,26c0,0,0.1,6-2.5,12.8
	C204.1,230.8,154.4,231.3,155.3,230.2z"/>
<path class="st8" d="M228,349.3c0,2.4-1.7,4.4-3.9,4.4H83.5c30.8-6.5,141.3-86.1,142.2-64.1L228,349.3z"/>
<path class="st9" d="M212,325.7c0,1.9-1.3,3.4-3,3.4H95.6c-1.7,0-3-1.5-3-3.4c0-11.4,2-46.9,2-47c1.7-17,5.6-30.8,14.4-42.1
	c0.7-0.9,1.4-1.7,2.1-2.6c-1.8-3.7,82-5.2,80.7-2c1.2,1.3,2.4,2.6,3.5,4c9.2,11.5,14.1,26.1,14.8,43.2L212,325.7z"/>
<path class="st7" d="M65,289.1c0,0.3,0,0.5,0,0.8L65,289.1L65,289.1z"/>
<g>
	<polygon class="st9" points="166.7,176.7 166.7,196.2 133.9,196.2 133.9,176.7 118.5,177.7 118.5,233.9 182,233.9 182,177.7 	"/>
</g>
<g>
	<path class="st1" d="M145.6,182.1c13.2,0,14.4-0.2,2,5.7c-12.6,5.9-29.4,0.5-38.6-8.4c-1.8-1.7,7.3-4.5,8.7-6.6
		C117.8,172.8,131.8,182.1,145.6,182.1z"/>
</g>
<g>
	<path class="st1" d="M152.1,181.1c-13.2,0-14.4-0.2-2,5.7c12.6,5.9,30.4,4.5,39.6-4.4c1.8-1.7-7.3-7.5-8.7-9.6
		C181,172.8,166,181.1,152.1,181.1z"/>
</g>
<path class="st3" d="M195.7,128.4c0,31.1-21.5,56.3-48,56.3s-48-24.1-48-56.3c0-31.1,21.5-56.3,48-56.3S195.7,97.3,195.7,128.4z"/>
<g>
	<path class="st0" d="M167.2,115.5c-3.9,0.3-7.6,1.5-10.7,3.4c-0.3,0.2-0.6-0.2-0.4-0.5c3.9-3.6,9-6,14.7-6.4
		c13.3-1,24.9,8.9,25.9,22.2c0.6,7.3-0.2,14.2-5,19c-0.3,0.3-0.6-0.1-0.5-0.4c2.8-4.3,2.3-9.7,1.9-15.2
		C192.1,124.4,180.5,114.5,167.2,115.5z"/>
</g>
<g>
	<path class="st0" d="M157.6,82.6c0-3-0.2-5.9-0.6-8.7c-3.1-0.7-6.3-1.1-9.5-1.1c-26.5,0-48,25.2-48,56.3c0,3,0.2,5.9,0.6,8.7
		c3.1,0.7,6.3,1.1,9.5,1.1C136.1,138.9,157.6,113.7,157.6,82.6z"/>
</g>
<g>
	<path class="st0" d="M137.7,80.7c0-3,0.2-6,0.6-8.9c3.2-0.8,6.4-1.1,9.8-1.1c27.2,0,49.2,25.9,49.2,57.8c0,3-0.2,6-0.6,8.9
		c-3.2,0.8-6.4,1.1-9.8,1.1C159.8,138.5,137.7,112.7,137.7,80.7z"/>
</g>
<circle class="st1" cx="130.7" cy="146.7" r="6.3"/>
<polygon class="st1" points="124.7,145.4 122.8,140.6 128.8,142.1 "/>
<g>
	<circle class="st1" cx="163.8" cy="146.7" r="6.3"/>
	<polygon class="st1" points="169.7,145.4 171.7,140.6 165.6,142.1 	"/>
</g>
<g>
	<path class="st0" d="M175.5,99.3c3.9,0,7.7,0.9,11,2.6c0.3,0.2,0.6-0.3,0.3-0.5c-4.1-3.3-9.4-5.3-15.1-5.3
		c-13.3,0-24.2,10.8-24.2,24.1c0,7.3,3.3,13.9,8.5,18.3c0.3,0.2,0.6-0.1,0.4-0.4c-3.2-4.1-5-9.2-5-14.7
		C151.3,110.1,162.2,99.3,175.5,99.3z"/>
</g>
<g>
	<path class="st0" d="M135.2,95.3c3.7,1.3,6.9,3.4,9.5,6c0.2,0.3,0.6-0.1,0.5-0.4c-2.8-4.5-7.2-8.1-12.6-9.9
		c-12.6-4.4-26.4,2.3-30.7,14.9c-2.4,6.9-1.4,14.2,2,20.1c0.2,0.3,0.6,0.1,0.5-0.2c-1.7-4.9-1.8-10.3,0-15.6
		C108.8,97.6,122.6,90.9,135.2,95.3z"/>
</g>
<g>
	<path class="st0" d="M128.3,113.2c3.9,0.6,7.4,2.1,10.5,4.2c0.3,0.2,0.6-0.2,0.4-0.4c-3.6-3.9-8.5-6.6-14.2-7.4
		c-13.2-2-25.5,7.1-27.4,20.3c-1.1,7.2,0.2,14.6,4.7,19.7c0.2,0.3,0.7,0,0.5-0.3c-2.5-4.5-1.7-10.2-0.8-15.7
		C103.8,120.4,115.1,111.3,128.3,113.2z"/>
</g>
<path class="st1" d="M140.4,171.2l-9.8-4.5c-1.6-1.2-1.5-3.3,0.6-3.3c0,0,10.5,1.3,16.2,1.6s14.9-0.8,14.9-0.8c2,0,1.9,2.1,0.5,3.3
	l-7.4,3.6C151,173.5,145.2,173.4,140.4,171.2z"/>
<path class="st10" d="M145.8,160.3l-2.8-1.3c-0.4-0.4-0.4-0.9,0.2-0.9c0,0,3,0.4,4.6,0.4s4.2-0.2,4.2-0.2c0.6,0,0.5,0.6,0.1,0.9
	l-2.1,1C148.8,161,147.2,161,145.8,160.3z"/>
<g class="st11">
	<path class="st0" d="M152.1,105.6c10.4,0.8,20.4,2.8,29.8,5.9c2.8,0.9,6.8-6.9,8.6-8.9l-4.1-8.4c2-2.3-71.3,8.7-71.3,8.7
		c1.4,2.3,3.4,4.5,6.2,4.1C131.3,105.3,141.6,104.8,152.1,105.6z"/>
</g>
<g>
	<path class="st12" d="M148.3,184.8c13.2,0,14.4-0.2,2,5.7c-12.6,5.9-29.4,0.5-38.6-8.4c-1.8-1.7,6.3-3.5,7.7-5.6
		C119.4,176.4,134.4,184.8,148.3,184.8z"/>
</g>
<g>
	<path class="st12" d="M150.8,183.8c-13.2,0-14.4-0.2-2,5.7c12.6,5.9,30.4,4.5,39.6-4.4c1.8-1.7-7.3-7.5-8.7-9.6
		C179.7,175.4,164.7,183.8,150.8,183.8z"/>
</g>
<g>
	<path class="st1" d="M153.6,247.3h-7.1c-1.9,0-3.4-1.5-3.4-3.4v-24.6c0-1.9,1.5-3.4,3.4-3.4h7.1c1.9,0,3.4,1.5,3.4,3.4V244
		C156.9,245.8,155.4,247.3,153.6,247.3z"/>
	<path class="st1" d="M165.7,228.1v7.1c0,1.9-1.5,3.4-3.4,3.4h-24.6c-1.9,0-3.4-1.5-3.4-3.4v-7.1c0-1.9,1.5-3.4,3.4-3.4h24.6
		C164.2,224.7,165.7,226.2,165.7,228.1z"/>
</g>
<g>
	<path class="st12" d="M161.3,74.8c12.9,10.1,21.4,27.3,21.4,46.9c0,31.1-21.5,56.3-48,56.3c-4.8,0-9.5-0.8-13.9-2.4
		c7.6,5.9,16.7,9.4,26.6,9.4c26.5,0,48-25.2,48-56.3C195.4,103.3,181,81.8,161.3,74.8z"/>
</g>
<g>
	<path class="st9" d="M148.8,101.4c9,0,17.8,1.1,26.1,3.1c2.4,0.6,5-0.3,6.4-2.2l7.7-10.5c1.5-2.1,1.2-4.9-0.8-6.6
		C178,76.4,164.1,71,148.8,71c-15.4,0-29.4,5.5-39.7,14.4c-2,1.7-2.3,4.5-0.8,6.6l7.6,10.4c1.4,1.9,4,2.7,6.4,2.2
		C130.8,102.5,139.7,101.4,148.8,101.4z"/>
</g>
<g>
	<path class="st12" d="M150.1,101.4c9,0,17.8,1.1,26.1,3.1c2.4,0.6,5-0.3,6.4-2.2l4.4-5.9c-11-5.1-24.2-6.8-37.6-4.1
		c-10.1,2.1-19.1,6.4-26.5,12.3c0.3,0,0.5-0.1,0.8-0.1C132.2,102.5,141,101.4,150.1,101.4z"/>
</g>
<g>
	<path class="st9" d="M156.5,74.8c27.6,0,65.4,13,90.9,16.8c7.5,1.1,15.4-0.5,19.7-4.1l12.7-24.1c4.7-4,3.7-9.3-2.5-12.7
		C245.9,34,203.4,23.7,156.5,23.7c-47.3,0-90.2,10.5-121.5,27.5c-6.1,3.3-7.2,8.6-2.5,12.6l10.4,19.8c4.3,3.6,12.2,5.3,19.7,4.1
		C88.4,83.9,128.5,74.8,156.5,74.8z"/>
</g>
<g>
	<path class="st1" d="M149.2,78.2c15.1,0,29.4,5.1,39.8,13.5l0.8-1c1.6-2.1,1.2-5-0.8-6.8c-10.5-9-24-14.5-39.7-14.5
		c-15.8,0-30.8,5.6-41.3,14.8c-2.1,1.8-2.4,4.6-0.8,6.8l1.8,2.5c0.1-0.1,0.2-0.3,0.4-0.4C119.7,83.8,133.3,78.2,149.2,78.2z"/>
</g>
<g>
	<path class="st12" d="M163.7,219.2c-10.8,7.5-36.2,11.8-36.2,11.8H182v-29.2C182,201.7,174.5,211.7,163.7,219.2z"/>
</g>
<path class="st12" d="M212.2,326.1c0,1.9-1.3,3.4-3,3.4h-83.4c29.8-11.6,83.9-55,84.6-37.9L212.2,326.1z"/>
<g>
	<path class="st13" d="M142,171.7c4.5,1.6,9.5,1.5,13.5-0.7l0.2-0.1c-1.6-0.8-3.8-1.2-6.2-1.2C146.5,169.7,143.7,170.5,142,171.7z"
		/>
</g>
<path id="SVGID_x5F_1_x5F_" class="st14" d="M46.3,75.7c0,0,58.7-16.3,94-17C175.7,58,255,78.3,255,78.3"/>
<text><textPath  xlink:href="#SVGID_x5F_1_x5F_" startOffset="14.209%">
<tspan  style="fill:#F3C74A; font-family:'Geomanist-Regular'; font-size:30px; letter-spacing:100;">GOOD JOB!</tspan></textPath>
</text>
<path class="st12" d="M101.2,81.3l-48.1,6.5c-4.9,0.2-7.2-0.4-7.3-3v0c-0.1-2.6,3.9-3.1,8.8-3.3l47.8-4.3c4.9-0.2,7.6-1.3,7.7,1.3v0
	C110.2,81,106.1,81,101.2,81.3z"/>
<path class="st12" d="M249.5,90.4l-57.3-12.3c-5.7-1.6-8.1-3.1-7.4-5.6v0c0.7-2.5,5.5-1.4,11.2,0.2l56.2,14.2
	c5.7,1.6,9.1,1.6,8.4,4.2v0C259.8,93.6,255.2,92,249.5,90.4z"/>
</svg>
