<?xml version="1.0" encoding="utf-8"?>
<!-- Generator: Adobe Illustrator 21.1.0, SVG Export Plug-In . SVG Version: 6.00 Build 0)  -->
<svg version="1.1" id="Layer_1" xmlns="http://www.w3.org/2000/svg" xmlns:xlink="http://www.w3.org/1999/xlink" x="0px" y="0px"
	 viewBox="0 0 218 402" style="enable-background:new 0 0 218 402;" xml:space="preserve">
<style type="text/css">
	.st0{fill:#F58777;}
	.st1{opacity:0.59;}
	.st2{opacity:0.55;}
</style>
<g>
	<path class="st0" d="M181,201.9c-0.4,0.7-0.8,1.3-1.2,2c-9.9,15.5-42.3,30.7-55.8,22.2c0,0,0,0,0,0c-0.2-0.2-2.2-1.9-5.2-4.4l0,0
		c-7.4-6.3-21-18-28.1-24.7c-10.1-9.7-31.2-39.6-31.2-39.6s0.2-0.1,0.4-0.4c-0.3,0.2-0.5,0.3-0.5,0.3S42.9,124.5,39.1,111
		c-3.8-13.5-11.9-42-11.9-42l0.3,0.1c-2.9-13.9,19.6-38.5,35.3-44.6c0.7-0.3,1.4-0.5,2.2-0.8c3.9,8.4,7.7,17.2,11.3,26.5
		c3.6,9.2,6.8,18.3,9.7,27.1c-0.7,0.3-1.4,0.6-2.1,0.9c-1,0.4-2.1,0.8-3.1,1.1C77.6,82,70.1,89,72.2,92.9
		c2.6,4.9,24.1,34.9,25.3,38.5c0,0,0,0,0,0.1c0,0,0,0,0.1,0c2.6,2.8,20.4,38,23.5,42.7c2.1,3.1,6.1,2.2,8.6,1.3
		c0.5-0.9,1-1.7,1.5-2.6c0.4-0.7,0.9-1.3,1.3-1.9c8.1,4.5,16.4,9.4,24.7,14.7C165.5,191,173.5,196.4,181,201.9z"/>
</g>
<g class="st1">
	<path class="st0" d="M124,226C124,226,124,226,124,226c-0.3-0.2-2.2-1.9-5.2-4.4l0,0c-7.4-6.3-21-18-28.1-24.7
		c-10.1-9.7-31.2-39.6-31.2-39.6s0.2-0.1,0.4-0.4c-0.3,0.2-0.5,0.3-0.5,0.3S42.9,124.5,39.1,111c-3.8-13.5-11.9-42-11.9-42l0.3,0.1
		c-2.9-13.5,34,90.6,87.8,132.5c2.7,2.1,6.8-0.2,7.6-3.5c1.4-5.9,2.3-14,2.3-13.6C124.1,211.4,138.4,234.3,124,226z"/>
</g>
<g>
	<path class="st0" d="M67.4,21.6c3.9,8.6,7.8,17.6,11.4,26.9c3.7,9.3,7,18.6,9.9,27.5c0.2,0.5,0.2,1.1,0,1.6
		c3.6-0.4,7.3-1.3,10.9-2.7c0,0,0,0,0,0c1.3-0.5,2-2,1.6-3.3c-2.9-9-5.1-18.3-8.7-27.6c-3.7-9.3-8.7-18.3-12.6-26.9
		c-0.6-1.3-2.1-1.9-3.4-1.4c0,0,0,0,0,0C73,17.2,69.8,18.9,67,21C67.2,21.2,67.3,21.4,67.4,21.6z"/>
</g>
<g class="st2">
	<path class="st0" d="M92.6,77c2.6-0.4,3.6-0.6,7.2-2c0,0,0,0,0,0c1.3-0.5,2-2,1.6-3.3c-2.9-9-5.1-18.3-8.7-27.6
		C89,34.7,84,25.8,80.1,17.2C79.5,15.9,92.7,76.5,92.6,77z"/>
</g>
<g>
	<path class="st0" d="M124,226c-2-1.2-3.7-2.7-5.2-4.4C121.8,224.1,123.8,225.8,124,226z"/>
</g>
<g>
	<path class="st0" d="M133.1,167.7c8.2,4.6,16.7,9.6,25.1,15c8.5,5.4,16.6,10.9,24.2,16.4c0.5,0.3,0.8,0.8,1,1.3
		c2.7-2.4,5.1-5.3,7.2-8.6c0,0,0,0,0,0c0.8-1.2,0.4-2.8-0.7-3.6c-7.7-5.5-14.9-11.8-23.3-17.2c-8.5-5.4-17.8-9.6-26-14.3
		c-1.2-0.7-2.8-0.3-3.6,0.9c0,0,0,0,0,0c-2,3.1-3.5,6.4-4.6,9.8C132.7,167.5,132.9,167.6,133.1,167.7z"/>
</g>
<g>
	<path class="st0" d="M62.7,78.3c-16.3-3-26.3-6.7-26.3-6.7L75,98.3l0.2-0.7c-1.5-2.2-2.6-3.9-3-4.8c-2.1-3.9,5.2-10.7,8.4-13.4
		C78.4,80,73.5,80.3,62.7,78.3z"/>
</g>
<g class="st2">
	<path class="st0" d="M186.3,197.7c1.8-1.9,2.6-2.6,4.7-5.9c0,0,0,0,0,0c0.8-1.2,0.4-2.8-0.7-3.6c-7.7-5.5-14.9-11.8-23.3-17.2
		c-8.5-5.4-17.8-9.6-26-14.3C139.7,156.1,186.1,197.2,186.3,197.7z"/>
</g>
<g>
	<path class="st0" d="M153,233c0.8-4.1,2.6-7.1,4.9-9.2c1.5-1.3,0.3-3.7-1.7-3.3c-2.3,0.5-4.6,1.7-6.4,3.5
		c-4.8,4.7-5.3,12.3-1.3,17.6c1.6,2.2,3.8,3.7,6.1,4.5c2,0.7,3.7-1.8,2.3-3.4C154.8,240.5,153.3,237.2,153,233z"/>
	<path class="st0" d="M153.8,241.1c0.8,0.2,1.6,0.6,2.3,1c5.4,2.9,8.2,9.2,6.7,15.2c-0.3,1-0.6,2-1.1,2.9c-0.7,1.3,0.8,2.6,2,1.9
		c2.6-1.6,4.7-4.1,5.7-7.3c2.1-6.4-1-13.4-7.1-16.2c-2.7-1.3-5.7-1.6-8.4-1C152.1,237.9,151.9,240.5,153.8,241.1z"/>
</g>
<g>
	<path class="st0" d="M157.6,268c0.8-4.1,2.6-7.1,4.9-9.2c1.5-1.3,0.3-3.7-1.7-3.3c-2.3,0.5-4.6,1.7-6.4,3.5
		c-4.8,4.7-5.3,12.3-1.3,17.6c1.6,2.2,3.8,3.7,6.1,4.5c2,0.7,3.7-1.8,2.3-3.4C159.4,275.4,157.9,272.1,157.6,268z"/>
	<path class="st0" d="M161,276.8c0.8,0.2,1.6,0.6,2.3,1c5.4,2.9,8.2,9.2,6.7,15.2c-0.3,1-0.6,2-1.1,2.9c-0.7,1.3,0.8,2.6,2,1.9
		c2.6-1.6,4.7-4.1,5.7-7.3c2.1-6.4-1-13.4-7.1-16.2c-2.7-1.3-5.7-1.6-8.4-1C159.3,273.5,159.1,276.2,161,276.8z"/>
</g>
<g>
	<path class="st0" d="M165.6,299c1.5-3.9,3.8-6.6,6.4-8.3c1.7-1.1,0.9-3.6-1.1-3.5c-2.4,0.1-4.8,0.9-6.9,2.4
		c-5.5,3.8-7.4,11.3-4.3,17.2c1.3,2.4,3.1,4.2,5.2,5.5c1.9,1.1,4-1.1,2.8-2.9C166.1,306.6,165.2,303.1,165.6,299z"/>
	<path class="st0" d="M165,307.1c0.7,0.4,1.5,0.8,2.1,1.4c4.9,3.7,6.5,10.5,4,16.1c-0.4,1-1,1.8-1.6,2.6c-0.9,1.1,0.3,2.7,1.7,2.2
		c2.8-1.1,5.3-3.3,6.9-6.2c3.1-5.9,1.3-13.4-4.2-17.2c-2.5-1.7-5.3-2.5-8.1-2.4C163.8,303.6,163.2,306.2,165,307.1z"/>
</g>
<g>
	<path class="st0" d="M164.2,334.2c1.5-3.9,3.8-6.6,6.4-8.3c1.7-1.1,0.9-3.6-1.1-3.5c-2.4,0.1-4.8,0.9-6.9,2.4
		c-5.5,3.8-7.4,11.3-4.3,17.2c1.3,2.4,3.1,4.2,5.2,5.5c1.9,1.1,4-1.1,2.8-2.9C164.7,341.8,163.8,338.3,164.2,334.2z"/>
	<path class="st0" d="M166,343.5c0.7,0.4,1.5,0.8,2.1,1.4c4.9,3.7,6.5,10.5,4,16.1c-0.4,1-1,1.8-1.6,2.6c-0.9,1.1,0.3,2.7,1.7,2.2
		c2.8-1.1,5.3-3.3,6.9-6.2c3.1-5.9,1.3-13.4-4.2-17.2c-2.5-1.7-5.3-2.5-8.1-2.4C164.9,339.9,164.3,342.6,166,343.5z"/>
</g>
</svg>
