<svg id="Layer_1" xmlns="http://www.w3.org/2000/svg" viewBox="0 0 218 402"><style>.st0{fill:#f58777}.st2{opacity:.55}</style><path class="st0" d="M181 201.9c-.4.7-.8 1.3-1.2 2-9.9 15.5-42.3 30.7-55.8 22.2-.2-.2-2.2-1.9-5.2-4.4-7.4-6.3-21-18-28.1-24.7-10.1-9.7-31.2-39.6-31.2-39.6s.2-.1.4-.4c-.3.2-.5.3-.5.3S42.9 124.5 39.1 111c-3.8-13.5-11.9-42-11.9-42l.3.1c-2.9-13.9 19.6-38.5 35.3-44.6.7-.3 1.4-.5 2.2-.8 3.9 8.4 7.7 17.2 11.3 26.5 3.6 9.2 6.8 18.3 9.7 27.1l-2.1.9c-1 .4-2.1.8-3.1 1.1-3.2 2.7-10.7 9.7-8.6 13.6 2.6 4.9 24.1 34.9 25.3 38.5v.1h.1c2.6 2.8 20.4 38 23.5 42.7 2.1 3.1 6.1 2.2 8.6 1.3.5-.9 1-1.7 1.5-2.6.4-.7.9-1.3 1.3-1.9 8.1 4.5 16.4 9.4 24.7 14.7 8.3 5.3 16.3 10.7 23.8 16.2z"/><path class="st0" d="M124 226c-.3-.2-2.2-1.9-5.2-4.4-7.4-6.3-21-18-28.1-24.7-10.1-9.7-31.2-39.6-31.2-39.6s.2-.1.4-.4c-.3.2-.5.3-.5.3S42.9 124.5 39.1 111c-3.8-13.5-11.9-42-11.9-42l.3.1c-2.9-13.5 34 90.6 87.8 132.5 2.7 2.1 6.8-.2 7.6-3.5 1.4-5.9 2.3-14 2.3-13.6-1.1 26.9 13.2 49.8-1.2 41.5z" opacity=".59"/><path class="st0" d="M67.4 21.6c3.9 8.6 7.8 17.6 11.4 26.9 3.7 9.3 7 18.6 9.9 27.5.2.5.2 1.1 0 1.6 3.6-.4 7.3-1.3 10.9-2.7 1.3-.5 2-2 1.6-3.3-2.9-9-5.1-18.3-8.7-27.6-3.7-9.3-8.7-18.3-12.6-26.9-.6-1.3-2.1-1.9-3.4-1.4-3.5 1.5-6.7 3.2-9.5 5.3.2.2.3.4.4.6z"/><g class="st2"><path class="st0" d="M92.6 77c2.6-.4 3.6-.6 7.2-2 1.3-.5 2-2 1.6-3.3-2.9-9-5.1-18.3-8.7-27.6C89 34.7 84 25.8 80.1 17.2c-.6-1.3 12.6 59.3 12.5 59.8z"/></g><path class="st0" d="M124 226c-2-1.2-3.7-2.7-5.2-4.4 3 2.5 5 4.2 5.2 4.4zm9.1-58.3c8.2 4.6 16.7 9.6 25.1 15 8.5 5.4 16.6 10.9 24.2 16.4.5.3.8.8 1 1.3 2.7-2.4 5.1-5.3 7.2-8.6.8-1.2.4-2.8-.7-3.6-7.7-5.5-14.9-11.8-23.3-17.2-8.5-5.4-17.8-9.6-26-14.3-1.2-.7-2.8-.3-3.6.9-2 3.1-3.5 6.4-4.6 9.8.3.1.5.2.7.3zM62.7 78.3c-16.3-3-26.3-6.7-26.3-6.7L75 98.3l.2-.7c-1.5-2.2-2.6-3.9-3-4.8-2.1-3.9 5.2-10.7 8.4-13.4-2.2.6-7.1.9-17.9-1.1z"/><g class="st2"><path class="st0" d="M186.3 197.7c1.8-1.9 2.6-2.6 4.7-5.9.8-1.2.4-2.8-.7-3.6-7.7-5.5-14.9-11.8-23.3-17.2-8.5-5.4-17.8-9.6-26-14.3-1.3-.6 45.1 40.5 45.3 41z"/></g><path class="st0" d="M153 233c.8-4.1 2.6-7.1 4.9-9.2 1.5-1.3.3-3.7-1.7-3.3-2.3.5-4.6 1.7-6.4 3.5-4.8 4.7-5.3 12.3-1.3 17.6 1.6 2.2 3.8 3.7 6.1 4.5 2 .7 3.7-1.8 2.3-3.4-2.1-2.2-3.6-5.5-3.9-9.7z"/><path class="st0" d="M153.8 241.1c.8.2 1.6.6 2.3 1 5.4 2.9 8.2 9.2 6.7 15.2-.3 1-.6 2-1.1 2.9-.7 1.3.8 2.6 2 1.9 2.6-1.6 4.7-4.1 5.7-7.3 2.1-6.4-1-13.4-7.1-16.2-2.7-1.3-5.7-1.6-8.4-1-1.8.3-2 2.9-.1 3.5z"/><path class="st0" d="M157.6 268c.8-4.1 2.6-7.1 4.9-9.2 1.5-1.3.3-3.7-1.7-3.3-2.3.5-4.6 1.7-6.4 3.5-4.8 4.7-5.3 12.3-1.3 17.6 1.6 2.2 3.8 3.7 6.1 4.5 2 .7 3.7-1.8 2.3-3.4-2.1-2.3-3.6-5.6-3.9-9.7z"/><path class="st0" d="M161 276.8c.8.2 1.6.6 2.3 1 5.4 2.9 8.2 9.2 6.7 15.2-.3 1-.6 2-1.1 2.9-.7 1.3.8 2.6 2 1.9 2.6-1.6 4.7-4.1 5.7-7.3 2.1-6.4-1-13.4-7.1-16.2-2.7-1.3-5.7-1.6-8.4-1-1.8.2-2 2.9-.1 3.5z"/><path class="st0" d="M165.6 299c1.5-3.9 3.8-6.6 6.4-8.3 1.7-1.1.9-3.6-1.1-3.5-2.4.1-4.8.9-6.9 2.4-5.5 3.8-7.4 11.3-4.3 17.2 1.3 2.4 3.1 4.2 5.2 5.5 1.9 1.1 4-1.1 2.8-2.9-1.6-2.8-2.5-6.3-2.1-10.4z"/><path class="st0" d="M165 307.1c.7.4 1.5.8 2.1 1.4 4.9 3.7 6.5 10.5 4 16.1-.4 1-1 1.8-1.6 2.6-.9 1.1.3 2.7 1.7 2.2 2.8-1.1 5.3-3.3 6.9-6.2 3.1-5.9 1.3-13.4-4.2-17.2-2.5-1.7-5.3-2.5-8.1-2.4-2 0-2.6 2.6-.8 3.5z"/><g><path class="st0" d="M164.2 334.2c1.5-3.9 3.8-6.6 6.4-8.3 1.7-1.1.9-3.6-1.1-3.5-2.4.1-4.8.9-6.9 2.4-5.5 3.8-7.4 11.3-4.3 17.2 1.3 2.4 3.1 4.2 5.2 5.5 1.9 1.1 4-1.1 2.8-2.9-1.6-2.8-2.5-6.3-2.1-10.4z"/><path class="st0" d="M166 343.5c.7.4 1.5.8 2.1 1.4 4.9 3.7 6.5 10.5 4 16.1-.4 1-1 1.8-1.6 2.6-.9 1.1.3 2.7 1.7 2.2 2.8-1.1 5.3-3.3 6.9-6.2 3.1-5.9 1.3-13.4-4.2-17.2-2.5-1.7-5.3-2.5-8.1-2.4-1.9-.1-2.5 2.6-.8 3.5z"/></g></svg>