<svg id="Layer_1" xmlns="http://www.w3.org/2000/svg" xmlns:xlink="http://www.w3.org/1999/xlink" viewBox="0 0 332 405"><style>.st0{fill:#c16c37}.st1{fill:#194151}.st2{opacity:.42}.st3{fill:#e8c488}.st4{fill:#adc4be}.st5{opacity:.49}.st5,.st7{fill:#c0d5d0}.st9{fill:#f8f6e8}.st12{fill:#ece9dc}</style><path transform="rotate(-20.43 55.335 101.661)" class="st0" d="M52.7 78H58v47.3h-5.3z"/><path transform="rotate(-149.743 247.99 105.662)" class="st0" d="M245.3 82h5.3v47.3h-5.3z"/><path class="st1" d="M145.3 183.5c-19.8-8.3-41.8-12.4-61.3-3.2-16 7.6-29.3 24.2-35.4 44.4-1.9 6.4-3.2 13-4.4 19.6-.9 4.8-1.8 9.8-1.6 14.7.2 4.5 1.4 8.8 2.8 12.9 10.3 29.6 33.8 49.2 58.4 57.9 24.6 8.7 50.6 8 76.1 7.3 15.5-.4 31.1-.8 46.1-5.3 31.2-9.2 57.7-34.9 79-65.6 2.2-3.2.2-7.6-3.5-8h-.1c-17.4-1.6-30.7-19.8-40.9-37.7-10.2-17.9-20.2-37.8-36.3-46.4-6.2-3.3-13.1-4.7-19.8-5-9.8-.4-19.7 1.4-29.1 5.4"/><g class="st2"><path class="st1" d="M163 189.2c-13.1-8.9 42.2 107.6 44.5 118.8 4.3 20.6 22.5 19.6 31.1-8.9 7.4-24.5 8.7-35.5 4.8-71.3-1.8-16.5-12.8-29.3-23.2-38.1-4-3.4-8.7-5.2-13.5-6.2-6.9-1.4-14.2-.9-21.3 1.4"/></g><g class="st2"><path class="st1" d="M137.8 192c-14.3-8.3-30.2-12.4-44.3-3.2-11.6 7.6-21.2 24.2-25.6 44.4-1.4 6.4-2.3 13-3.2 19.6-.7 4.8-1.3 9.8-1.1 14.7.2 4.5 1 8.8 2 12.9C73 310 90 329.6 107.8 338.3"/></g><ellipse transform="rotate(-41.565 72.274 129.67)" class="st3" cx="72.3" cy="129.7" rx="14" ry="14"/><path class="st4" d="M61.7 137.4l22.7-11.7c1.6-.8 3.5-.2 4.3 1.4l30.4 59c3.2 6.3.8 14.1-5.5 17.4l-5.5 2.8c-6.3 3.2-14.1.8-17.4-5.5l-30.4-59c-.8-1.7-.2-3.6 1.4-4.4z"/><path class="st1" d="M89.1 126.7c-.8-1.6-2.7-2.2-4.3-1.4l-22.6 11.9c-1.9 1-2.7 3.4-1.7 5.3l.1.1c.3.5 1 .5 1.3 0 .3-.5.7-.8 1.2-1.1l23.2-12.3c1.6-.8 3.5-.2 4.3 1.4"/><ellipse transform="rotate(-48.433 225.843 129.664)" class="st3" cx="225.8" cy="129.7" rx="14" ry="14"/><path class="st4" d="M236.4 137.4l-22.7-11.7c-1.6-.8-3.5-.2-4.3 1.4l-30.4 59c-3.2 6.3-.8 14.1 5.5 17.4l5.5 2.8c6.3 3.2 14.1.8 17.4-5.5l30.4-59c.8-1.7.2-3.6-1.4-4.4z"/><path class="st1" d="M209 126.7c.8-1.6 2.7-2.2 4.3-1.4l22.6 11.9c1.9 1 2.7 3.4 1.7 5.3l-.1.1c-.3.5-1 .5-1.3 0-.3-.5-.7-.8-1.2-1.1l-23.2-12.3c-1.6-.8-3.5-.2-4.3 1.4"/><path class="st0" d="M117.3 164.5h-3c-10 1.9-16.8-4.7-18.7-14.7l-6-15.8c-1.9-10 4.7-19.8 14.7-21.7 10-1.9 19.8 4.7 21.7 14.7l3 15.8c1.9 10-1.7 19.8-11.7 21.7z"/><path class="st5" d="M117.3 170h-3c-10 1.9-16.8-4.7-18.7-14.7l-6-15.8c-1.9-10 4.7-19.8 14.7-21.7 10-1.9 19.8 4.7 21.7 14.7l3 15.8c1.9 10-1.7 19.8-11.7 21.7z"/><path d="M129 162.2l-1.3.8c-8.7 5.3-20.2 2.6-25.5-6.1l-10.5-17.2c-5.3-8.7-2.6-20.2 6.1-25.5l1.3-.8c8.7-5.3 20.2-2.6 25.5 6.1l10.5 17.2c5.3 8.7 2.6 20.2-6.1 25.5z" opacity=".55" fill="#c16c37"/><path class="st7" d="M228.4 349.6c0 2.4-1.7 4.4-3.9 4.4H78.9c-2.1 0-3.9-2-3.9-4.4 0-14.6 2.6-60.2 2.6-60.4 2.1-21.8 7.2-39.6 18.5-54.1l2.7-3.3c-2.3-4.7-3.6-10.2-3.6-15.9v-.3c0-18.2 13-33.1 28.8-33.1h52.2c15.8 0 28.8 14.9 28.8 33.1v.3c0 4.8-.9 9.3-2.5 13.4 1.6 1.6 3.1 3.4 4.5 5.2 11.8 14.7 18.2 33.5 19 55.6l2.4 59.5z"/><path class="st5" d="M155.3 230.2c15-6.1 39.7-39.8 39.7-39.8 9.6 10.1 10.2 21 10 26 0 0 .1 6-2.5 12.8 1.6 1.6-48.1 2.1-47.2 1z"/><path d="M228 349.3c0 2.4-1.7 4.4-3.9 4.4H83.5c30.8-6.5 141.3-86.1 142.2-64.1l2.3 59.7z" opacity=".5" fill="#c0d5d0"/><path class="st9" d="M212 325.7c0 1.9-1.3 3.4-3 3.4H95.6c-1.7 0-3-1.5-3-3.4 0-11.4 2-46.9 2-47 1.7-17 5.6-30.8 14.4-42.1.7-.9 1.4-1.7 2.1-2.6-1.8-3.7 82-5.2 80.7-2 1.2 1.3 2.4 2.6 3.5 4 9.2 11.5 14.1 26.1 14.8 43.2l1.9 46.5z"/><path class="st7" d="M65 289.1v.8-.8z"/><path class="st9" d="M166.7 176.7v19.5h-32.8v-19.5l-15.4 1v56.2H182v-56.2z"/><path class="st1" d="M145.6 182.1c13.2 0 14.4-.2 2 5.7-12.6 5.9-29.4.5-38.6-8.4-1.8-1.7 7.3-4.5 8.7-6.6.1 0 14.1 9.3 27.9 9.3z"/><path class="st1" d="M152.1 181.1c-13.2 0-14.4-.2-2 5.7 12.6 5.9 30.4 4.5 39.6-4.4 1.8-1.7-7.3-7.5-8.7-9.6 0 0-15 8.3-28.9 8.3z"/><path class="st3" d="M195.7 128.4c0 31.1-21.5 56.3-48 56.3s-48-24.1-48-56.3c0-31.1 21.5-56.3 48-56.3s48 25.2 48 56.3z"/><path class="st0" d="M167.2 115.5c-3.9.3-7.6 1.5-10.7 3.4-.3.2-.6-.2-.4-.5 3.9-3.6 9-6 14.7-6.4 13.3-1 24.9 8.9 25.9 22.2.6 7.3-.2 14.2-5 19-.3.3-.6-.1-.5-.4 2.8-4.3 2.3-9.7 1.9-15.2-1-13.2-12.6-23.1-25.9-22.1zm-9.6-32.9c0-3-.2-5.9-.6-8.7-3.1-.7-6.3-1.1-9.5-1.1-26.5 0-48 25.2-48 56.3 0 3 .2 5.9.6 8.7 3.1.7 6.3 1.1 9.5 1.1 26.5 0 48-25.2 48-56.3z"/><path class="st0" d="M137.7 80.7c0-3 .2-6 .6-8.9 3.2-.8 6.4-1.1 9.8-1.1 27.2 0 49.2 25.9 49.2 57.8 0 3-.2 6-.6 8.9-3.2.8-6.4 1.1-9.8 1.1-27.1 0-49.2-25.8-49.2-57.8z"/><circle class="st1" cx="130.7" cy="146.7" r="6.3"/><path class="st1" d="M124.7 145.4l-1.9-4.8 6 1.5z"/><circle class="st1" cx="163.8" cy="146.7" r="6.3"/><path class="st1" d="M169.7 145.4l2-4.8-6.1 1.5z"/><path class="st0" d="M175.5 99.3c3.9 0 7.7.9 11 2.6.3.2.6-.3.3-.5-4.1-3.3-9.4-5.3-15.1-5.3-13.3 0-24.2 10.8-24.2 24.1 0 7.3 3.3 13.9 8.5 18.3.3.2.6-.1.4-.4-3.2-4.1-5-9.2-5-14.7-.1-13.3 10.8-24.1 24.1-24.1zm-40.3-4c3.7 1.3 6.9 3.4 9.5 6 .2.3.6-.1.5-.4-2.8-4.5-7.2-8.1-12.6-9.9-12.6-4.4-26.4 2.3-30.7 14.9-2.4 6.9-1.4 14.2 2 20.1.2.3.6.1.5-.2-1.7-4.9-1.8-10.3 0-15.6 4.4-12.6 18.2-19.3 30.8-14.9z"/><path class="st0" d="M128.3 113.2c3.9.6 7.4 2.1 10.5 4.2.3.2.6-.2.4-.4-3.6-3.9-8.5-6.6-14.2-7.4-13.2-2-25.5 7.1-27.4 20.3-1.1 7.2.2 14.6 4.7 19.7.2.3.7 0 .5-.3-2.5-4.5-1.7-10.2-.8-15.7 1.8-13.2 13.1-22.3 26.3-20.4z"/><path class="st1" d="M140.4 171.2l-9.8-4.5c-1.6-1.2-1.5-3.3.6-3.3 0 0 10.5 1.3 16.2 1.6s14.9-.8 14.9-.8c2 0 1.9 2.1.5 3.3l-7.4 3.6c-4.4 2.4-10.2 2.3-15 .1z"/><path d="M145.8 160.3L143 159c-.4-.4-.4-.9.2-.9 0 0 3 .4 4.6.4s4.2-.2 4.2-.2c.6 0 .5.6.1.9l-2.1 1c-1.2.8-2.8.8-4.2.1z" fill="#bfb9a5"/><path class="st0" d="M152.1 105.6c10.4.8 20.4 2.8 29.8 5.9 2.8.9 6.8-6.9 8.6-8.9l-4.1-8.4c2-2.3-71.3 8.7-71.3 8.7 1.4 2.3 3.4 4.5 6.2 4.1 10-1.7 20.3-2.2 30.8-1.4z" opacity=".5"/><path class="st12" d="M148.3 184.8c13.2 0 14.4-.2 2 5.7-12.6 5.9-29.4.5-38.6-8.4-1.8-1.7 6.3-3.5 7.7-5.6 0-.1 15 8.3 28.9 8.3z"/><path class="st12" d="M150.8 183.8c-13.2 0-14.4-.2-2 5.7 12.6 5.9 30.4 4.5 39.6-4.4 1.8-1.7-7.3-7.5-8.7-9.6 0-.1-15 8.3-28.9 8.3z"/><path class="st1" d="M153.6 247.3h-7.1c-1.9 0-3.4-1.5-3.4-3.4v-24.6c0-1.9 1.5-3.4 3.4-3.4h7.1c1.9 0 3.4 1.5 3.4 3.4V244c-.1 1.8-1.6 3.3-3.4 3.3z"/><path class="st1" d="M165.7 228.1v7.1c0 1.9-1.5 3.4-3.4 3.4h-24.6c-1.9 0-3.4-1.5-3.4-3.4v-7.1c0-1.9 1.5-3.4 3.4-3.4h24.6c1.9 0 3.4 1.5 3.4 3.4z"/><path class="st12" d="M161.3 74.8c12.9 10.1 21.4 27.3 21.4 46.9 0 31.1-21.5 56.3-48 56.3-4.8 0-9.5-.8-13.9-2.4 7.6 5.9 16.7 9.4 26.6 9.4 26.5 0 48-25.2 48-56.3 0-25.4-14.4-46.9-34.1-53.9z"/><path class="st9" d="M148.8 101.4c9 0 17.8 1.1 26.1 3.1 2.4.6 5-.3 6.4-2.2l7.7-10.5c1.5-2.1 1.2-4.9-.8-6.6C178 76.4 164.1 71 148.8 71c-15.4 0-29.4 5.5-39.7 14.4-2 1.7-2.3 4.5-.8 6.6l7.6 10.4c1.4 1.9 4 2.7 6.4 2.2 8.5-2.1 17.4-3.2 26.5-3.2z"/><path class="st12" d="M150.1 101.4c9 0 17.8 1.1 26.1 3.1 2.4.6 5-.3 6.4-2.2l4.4-5.9c-11-5.1-24.2-6.8-37.6-4.1-10.1 2.1-19.1 6.4-26.5 12.3.3 0 .5-.1.8-.1 8.5-2 17.3-3.1 26.4-3.1z"/><path class="st9" d="M156.5 74.8c27.6 0 65.4 13 90.9 16.8 7.5 1.1 15.4-.5 19.7-4.1l12.7-24.1c4.7-4 3.7-9.3-2.5-12.7-31.4-16.7-73.9-27-120.8-27-47.3 0-90.2 10.5-121.5 27.5-6.1 3.3-7.2 8.6-2.5 12.6l10.4 19.8c4.3 3.6 12.2 5.3 19.7 4.1 25.8-3.8 65.9-12.9 93.9-12.9z"/><path class="st1" d="M149.2 78.2c15.1 0 29.4 5.1 39.8 13.5l.8-1c1.6-2.1 1.2-5-.8-6.8-10.5-9-24-14.5-39.7-14.5-15.8 0-30.8 5.6-41.3 14.8-2.1 1.8-2.4 4.6-.8 6.8l1.8 2.5c.1-.1.2-.3.4-.4 10.3-9.3 23.9-14.9 39.8-14.9z"/><path class="st12" d="M163.7 219.2c-10.8 7.5-36.2 11.8-36.2 11.8H182v-29.2c0-.1-7.5 9.9-18.3 17.4zm48.5 106.9c0 1.9-1.3 3.4-3 3.4h-83.4c29.8-11.6 83.9-55 84.6-37.9l1.8 34.5z"/><path d="M142 171.7c4.5 1.6 9.5 1.5 13.5-.7l.2-.1c-1.6-.8-3.8-1.2-6.2-1.2-3 0-5.8.8-7.5 2z" fill="#e75f67"/><path id="SVGID_x5F_1_x5F_" d="M46.3 75.7s58.7-16.3 94-17C175.7 58 255 78.3 255 78.3" fill="none"/><text><textPath xlink:href="#SVGID_x5F_1_x5F_" startOffset="14.209%"><tspan fill="#f3c74a" font-family="Geomanist-Regular" font-size="30" letter-spacing="100">GOOD JOB!</tspan></textPath></text><path class="st12" d="M101.2 81.3l-48.1 6.5c-4.9.2-7.2-.4-7.3-3-.1-2.6 3.9-3.1 8.8-3.3l47.8-4.3c4.9-.2 7.6-1.3 7.7 1.3.1 2.5-4 2.5-8.9 2.8zm148.3 9.1l-57.3-12.3c-5.7-1.6-8.1-3.1-7.4-5.6.7-2.5 5.5-1.4 11.2.2l56.2 14.2c5.7 1.6 9.1 1.6 8.4 4.2-.8 2.5-5.4.9-11.1-.7z"/></svg>