<?xml version="1.0" encoding="utf-8"?>
<!-- Generator: Adobe Illustrator 21.1.0, SVG Export Plug-In . SVG Version: 6.00 Build 0)  -->
<svg version="1.1" id="Layer_1" xmlns="http://www.w3.org/2000/svg" xmlns:xlink="http://www.w3.org/1999/xlink" x="0px" y="0px"
	 viewBox="0 0 367.5 111.5" style="enable-background:new 0 0 367.5 111.5;" xml:space="preserve">
<style type="text/css">
	.st0{fill:#F8F6E8;}
	.st1{opacity:0.17;fill:#C16C37;}
	.st2{fill:#F8EEC8;}
	.st3{fill:#F3C74A;}
	.st4{fill:#BFA6C2;}
	.st5{fill:#783361;}
	.st6{opacity:0.16;fill:#473654;}
	.st7{opacity:0.29;fill:#C0D5D0;}
	.st8{fill:#C0D5D0;}
	.st9{fill:#9FB7B2;}
	.st10{opacity:0.6;fill:#6A9A9B;}
	.st11{opacity:0.63;}
	.st12{font-family:'Geomanist-Bold';}
	.st13{font-size:30.1678px;}
</style>
<path class="st0" d="M349.6,89.2h-325c-2.5,0-4.5-2-4.5-4.5V29c0-2.5,2-4.5,4.5-4.5h325c2.5,0,4.5,2,4.5,4.5v55.7
	C354.2,87.2,352.1,89.2,349.6,89.2z"/>
<g>
	<path class="st1" d="M124.2,79.4L124.2,79.4c-2.2,0-4-1.8-4-4l0-14.6c0-2.2,1.8-4,4-4h0c2.2,0,4,1.8,4,4l0,14.6
		C128.2,77.6,126.4,79.4,124.2,79.4z"/>
	<path class="st2" d="M123.5,78.6L123.5,78.6c-2.2,0-4-1.8-4-4l0-14.6c0-2.2,1.8-4,4-4h0c2.2,0,4,1.8,4,4l0,14.6
		C127.5,76.8,125.7,78.6,123.5,78.6z"/>
	<path class="st3" d="M123.5,78.7L123.5,78.7c-2.2,0-4-1.8-4-4l0-7.8l8,0l0,7.8C127.5,76.9,125.7,78.7,123.5,78.7z"/>
	<g>
		<path class="st2" d="M125.9,57.1c0.5,0.8,0.8,1.9,0.8,3l0,12.4c0,2.8-1.8,5.1-4,5.1c-0.9,0-1.7-0.4-2.3-1c0.7,1.3,1.9,2.1,3.3,2.1
			c2.2,0,4-2.3,4-5.1l0-12.4C127.6,59.5,126.9,58,125.9,57.1z"/>
	</g>
</g>
<g>
	<path class="st1" d="M181.7,76.2L181.7,76.2c-2,0.9-4.4,0-5.3-2l-6-13.3c-0.9-2,0-4.4,2-5.3v0c2-0.9,4.4,0,5.3,2l6,13.3
		C184.6,72.9,183.7,75.3,181.7,76.2z"/>
	<path class="st2" d="M180.7,75.8L180.7,75.8c-2,0.9-4.4,0-5.3-2l-6-13.3c-0.9-2,0-4.4,2-5.3v0c2-0.9,4.4,0,5.3,2l6,13.3
		C183.6,72.5,182.7,74.9,180.7,75.8z"/>
	<path class="st3" d="M180.8,75.9L180.8,75.9c-2,0.9-4.4,0-5.3-2l-3.2-7.1l7.3-3.3l3.2,7.1C183.7,72.6,182.8,75,180.8,75.9z"/>
	<g>
		<path class="st2" d="M174,55.2c0.8,0.6,1.5,1.4,1.9,2.4l5.1,11.3c1.2,2.6,0.5,5.4-1.5,6.3c-0.8,0.4-1.7,0.4-2.5,0.1
			c1.2,0.9,2.6,1.2,3.8,0.6c2-0.9,2.7-3.8,1.5-6.3l-5.1-11.3C176.6,56.7,175.3,55.6,174,55.2z"/>
	</g>
</g>
<g>
	<path class="st1" d="M173.1,38.4L173.1,38.4c-0.6-2.1,0.6-4.4,2.7-5l14-4.2c2.1-0.6,4.4,0.6,5,2.7v0c0.6,2.1-0.6,4.4-2.7,5l-14,4.2
		C176,41.7,173.7,40.5,173.1,38.4z"/>
	<path class="st2" d="M173.6,37.5L173.6,37.5c-0.6-2.1,0.6-4.4,2.7-5l14-4.2c2.1-0.6,4.4,0.6,5,2.7v0c0.6,2.1-0.6,4.4-2.7,5l-14,4.2
		C176.5,40.8,174.2,39.6,173.6,37.5z"/>
	<path class="st3" d="M173.5,37.5L173.5,37.5c-0.6-2.1,0.6-4.4,2.7-5l7.5-2.2L186,38l-7.5,2.2C176.4,40.8,174.1,39.6,173.5,37.5z"/>
	<g>
		<path class="st2" d="M195,33.6c-0.7,0.7-1.6,1.3-2.6,1.6l-11.9,3.6c-2.7,0.8-5.4-0.3-6.1-2.4c-0.3-0.8-0.1-1.7,0.3-2.5
			c-1,1.1-1.5,2.5-1.1,3.7c0.6,2.1,3.4,3.2,6.1,2.4l11.9-3.6C193.1,35.9,194.3,34.8,195,33.6z"/>
	</g>
</g>
<g>
	<path class="st1" d="M230.1,81.1L230.1,81.1c-2.1,0.8-4.4-0.3-5.2-2.3l-5.2-13.6c-0.8-2.1,0.3-4.4,2.3-5.2v0
		c2.1-0.8,4.4,0.3,5.2,2.3l5.2,13.6C233.2,78,232.1,80.4,230.1,81.1z"/>
	<path class="st2" d="M229.1,80.7L229.1,80.7c-2.1,0.8-4.4-0.3-5.2-2.3l-5.2-13.6c-0.8-2.1,0.3-4.4,2.3-5.2l0,0
		c2.1-0.8,4.4,0.3,5.2,2.3l5.2,13.6C232.2,77.6,231.2,79.9,229.1,80.7z"/>
	<path class="st3" d="M229.1,80.8L229.1,80.8c-2.1,0.8-4.4-0.3-5.2-2.3l-2.8-7.3l7.5-2.9l2.8,7.3C232.2,77.7,231.2,80,229.1,80.8z"
		/>
	<g>
		<path class="st2" d="M223.7,59.7c0.7,0.6,1.4,1.5,1.8,2.5l4.4,11.6c1,2.6,0.1,5.4-1.9,6.2c-0.8,0.3-1.7,0.3-2.5-0.1
			c1.1,0.9,2.6,1.3,3.8,0.8c2.1-0.8,2.9-3.6,1.9-6.2L226.7,63C226.1,61.4,224.9,60.2,223.7,59.7z"/>
	</g>
</g>
<g>
	<path class="st1" d="M251.6,51.2L251.6,51.2c-1.8,1.2-4.3,0.7-5.6-1.1l-8-12.2c-1.2-1.8-0.7-4.3,1.1-5.6v0c1.8-1.2,4.3-0.7,5.6,1.1
		l8,12.2C254,47.5,253.4,50,251.6,51.2z"/>
	<path class="st2" d="M250.6,51L250.6,51c-1.8,1.2-4.3,0.7-5.6-1.1l-8-12.2c-1.2-1.8-0.7-4.3,1.1-5.6v0c1.8-1.2,4.3-0.7,5.6,1.1
		l8,12.2C252.9,47.3,252.4,49.8,250.6,51z"/>
	<path class="st3" d="M250.6,51.1L250.6,51.1c-1.8,1.2-4.3,0.7-5.6-1.1l-4.3-6.5l6.7-4.4l4.3,6.5C253,47.4,252.5,49.9,250.6,51.1z"
		/>
	<g>
		<path class="st2" d="M240.7,31.7c0.9,0.4,1.7,1.2,2.3,2.1l6.8,10.3c1.6,2.4,1.3,5.3-0.5,6.5c-0.7,0.5-1.6,0.6-2.5,0.5
			c1.3,0.7,2.8,0.7,3.9,0c1.8-1.2,2.1-4.1,0.5-6.5l-6.8-10.3C243.5,32.8,242.1,31.9,240.7,31.7z"/>
	</g>
</g>
<g>
	<path class="st1" d="M344.9,51.9L344.9,51.9c-1.8,1.2-4.3,0.7-5.6-1.1l-8-12.2c-1.2-1.8-0.7-4.3,1.1-5.6v0c1.8-1.2,4.3-0.7,5.6,1.1
		l8,12.2C347.3,48.2,346.8,50.7,344.9,51.9z"/>
	<path class="st2" d="M343.9,51.7L343.9,51.7c-1.8,1.2-4.3,0.7-5.6-1.1l-8-12.2c-1.2-1.8-0.7-4.3,1.1-5.6v0c1.8-1.2,4.3-0.7,5.6,1.1
		l8,12.2C346.3,48,345.8,50.5,343.9,51.7z"/>
	<path class="st3" d="M344,51.8L344,51.8c-1.8,1.2-4.3,0.7-5.6-1.1l-4.3-6.5l6.7-4.4l4.3,6.5C346.3,48.1,345.8,50.6,344,51.8z"/>
	<g>
		<path class="st2" d="M334.1,32.4c0.9,0.4,1.7,1.2,2.3,2.1l6.8,10.3c1.6,2.4,1.3,5.3-0.5,6.5c-0.7,0.5-1.6,0.6-2.5,0.5
			c1.3,0.7,2.8,0.7,3.9,0c1.8-1.2,2.1-4.1,0.5-6.5l-6.8-10.3C336.8,33.5,335.4,32.6,334.1,32.4z"/>
	</g>
</g>
<g>
	<path class="st1" d="M277.6,50.2L277.6,50.2c2.1,0.7,3.2,3,2.5,5.1l-4.7,13.8c-0.7,2.1-3,3.2-5.1,2.5v0c-2.1-0.7-3.2-3-2.5-5.1
		l4.7-13.8C273.2,50.6,275.5,49.5,277.6,50.2z"/>
	<path class="st2" d="M278.1,51.1L278.1,51.1c2.1,0.7,3.2,3,2.5,5.1L275.9,70c-0.7,2.1-3,3.2-5.1,2.5v0c-2.1-0.7-3.2-3-2.5-5.1
		l4.7-13.8C273.7,51.5,276,50.4,278.1,51.1z"/>
	<path class="st3" d="M278.1,51L278.1,51c2.1,0.7,3.2,3,2.5,5.1l-2.5,7.4l-7.6-2.6l2.5-7.4C273.7,51.4,276,50.3,278.1,51z"/>
	<g>
		<path class="st2" d="M268.9,70.7c-0.2-1-0.1-2,0.2-3.1l4-11.7c0.9-2.7,3.4-4.3,5.4-3.6c0.8,0.3,1.5,0.9,1.9,1.7
			c-0.3-1.5-1.1-2.6-2.4-3.1c-2.1-0.7-4.5,0.9-5.4,3.6l-4,11.7C268.1,67.9,268.2,69.5,268.9,70.7z"/>
	</g>
</g>
<g>
	<path class="st1" d="M316.5,63.1L316.5,63.1c2.1-0.5,4.3,0.9,4.8,3l3.3,14.2c0.5,2.2-0.8,4.3-3,4.8l0,0c-2.1,0.5-4.3-0.9-4.8-3
		l-3.3-14.2C313,65.7,314.4,63.6,316.5,63.1z"/>
	<path class="st2" d="M317.4,63.6L317.4,63.6c2.1-0.5,4.3,0.9,4.8,3l3.3,14.2c0.5,2.2-0.8,4.3-3,4.8l0,0c-2.1,0.5-4.3-0.9-4.8-3
		l-3.3-14.2C313.9,66.3,315.3,64.1,317.4,63.6z"/>
	<path class="st3" d="M317.4,63.5L317.4,63.5c2.1-0.5,4.3,0.9,4.8,3l1.8,7.6l-7.8,1.8l-1.8-7.6C313.9,66.2,315.2,64,317.4,63.5z"/>
	<g>
		<path class="st2" d="M319.9,85.2c-0.7-0.7-1.2-1.7-1.4-2.7l-2.8-12.1c-0.6-2.7,0.6-5.4,2.7-5.9c0.8-0.2,1.7,0,2.5,0.4
			c-1-1.1-2.4-1.6-3.7-1.3c-2.1,0.5-3.4,3.2-2.7,5.9l2.8,12.1C317.8,83.1,318.7,84.5,319.9,85.2z"/>
	</g>
</g>
<g>
	<path class="st1" d="M275.9,37.2L275.9,37.2c2.1-2.2,5.6-2.4,7.8-0.3l9.8,9.1c2.2,2.1,2.4,5.6,0.3,7.8v0c-2.1,2.2-5.6,2.4-7.8,0.3
		l-9.8-9.1C274,42.9,273.9,39.4,275.9,37.2z"/>
	<path class="st4" d="M277.2,37L277.2,37c2.1-2.2,5.6-2.4,7.8-0.3l9.8,9.1c2.2,2.1,2.4,5.6,0.3,7.8v0c-2.1,2.2-5.6,2.4-7.8,0.3
		l-9.8-9.1C275.3,42.7,275.2,39.2,277.2,37z"/>
	<path class="st5" d="M277.1,36.9L277.1,36.9c2.1-2.2,5.6-2.4,7.8-0.3l5.3,4.9l-7.5,8.1l-5.3-4.9C275.2,42.6,275.1,39.1,277.1,36.9z
		"/>
	<g>
		<path class="st6" d="M292,55.2c-1.1-0.1-2.2-0.6-3.1-1.4l-9.8-9.1c-2.2-2.1-2.4-5.6-0.3-7.8c0.8-0.9,1.9-1.4,3-1.7
			c-1.7-0.2-3.5,0.4-4.7,1.7c-2.1,2.2-1.9,5.8,0.3,7.8l9.8,9.1C288.5,55.1,290.3,55.6,292,55.2z"/>
	</g>
</g>
<g>
	<path class="st1" d="M90.2,41.4L90.2,41.4c3-0.4,5.8,1.8,6.2,4.8l1.6,13.3c0.4,3-1.8,5.8-4.8,6.2h0c-3,0.4-5.8-1.8-6.2-4.8
		l-1.6-13.3C85,44.5,87.2,41.8,90.2,41.4z"/>
	<path class="st4" d="M91.3,42.1L91.3,42.1c3-0.4,5.8,1.8,6.2,4.8L99,60.2c0.4,3-1.8,5.8-4.8,6.2l0,0c-3,0.4-5.8-1.8-6.2-4.8
		l-1.6-13.3C86.1,45.2,88.3,42.5,91.3,42.1z"/>
	<path class="st5" d="M91.3,42L91.3,42c3-0.4,5.8,1.8,6.2,4.8l0.9,7.2l-11,1.3l-0.9-7.2C86.1,45.1,88.3,42.3,91.3,42z"/>
	<g>
		<path class="st6" d="M90.7,65.6c-0.8-0.8-1.3-1.9-1.4-3.1l-1.6-13.3c-0.4-3,1.8-5.8,4.8-6.2c1.2-0.1,2.4,0.1,3.3,0.7
			c-1.2-1.3-2.9-2-4.7-1.8c-3,0.4-5.2,3.1-4.8,6.2l1.6,13.3C88.1,63.2,89.2,64.8,90.7,65.6z"/>
	</g>
</g>
<g>
	<path class="st1" d="M148.8,54.9L148.8,54.9c2.4,1.8,2.9,5.3,1,7.8l-8.1,10.6c-1.8,2.4-5.3,2.9-7.8,1v0c-2.4-1.8-2.9-5.3-1-7.8
		l8.1-10.6C142.9,53.5,146.4,53,148.8,54.9z"/>
	<path class="st4" d="M149.1,56.1L149.1,56.1c2.4,1.8,2.9,5.3,1,7.8L142,74.5c-1.8,2.4-5.3,2.9-7.8,1v0c-2.4-1.8-2.9-5.3-1-7.8
		l8.1-10.6C143.2,54.8,146.7,54.3,149.1,56.1z"/>
	<path class="st5" d="M149.2,56.1L149.2,56.1c2.4,1.8,2.9,5.3,1,7.8l-4.4,5.7l-8.8-6.7l4.4-5.7C143.3,54.7,146.8,54.2,149.2,56.1z"
		/>
	<g>
		<path class="st6" d="M132.3,72.6c0-1.1,0.4-2.2,1.1-3.2l8.1-10.6c1.8-2.4,5.3-2.9,7.8-1c1,0.7,1.6,1.7,1.9,2.8
			c0-1.7-0.7-3.4-2.2-4.6c-2.4-1.8-5.9-1.4-7.8,1l-8.1,10.6C132.1,69.1,131.8,71,132.3,72.6z"/>
	</g>
</g>
<g>
	<path class="st1" d="M240.9,60.1L240.9,60.1c3-0.4,5.8,1.8,6.2,4.8l1.6,13.3c0.4,3-1.8,5.8-4.8,6.2h0c-3,0.4-5.8-1.8-6.2-4.8
		L236,66.2C235.7,63.2,237.8,60.4,240.9,60.1z"/>
	<path class="st4" d="M242,60.8L242,60.8c3-0.4,5.8,1.8,6.2,4.8l1.6,13.3c0.4,3-1.8,5.8-4.8,6.2h0c-3,0.4-5.8-1.8-6.2-4.8l-1.6-13.3
		C236.8,63.9,239,61.1,242,60.8z"/>
	<path class="st5" d="M242,60.6L242,60.6c3-0.4,5.8,1.8,6.2,4.8l0.9,7.2L238,74l-0.9-7.2C236.8,63.8,239,61,242,60.6z"/>
	<g>
		<path class="st6" d="M241.4,84.3c-0.8-0.8-1.3-1.9-1.4-3.1l-1.6-13.3c-0.4-3,1.8-5.8,4.8-6.2c1.2-0.1,2.4,0.1,3.3,0.7
			c-1.2-1.3-2.9-2-4.7-1.8c-3,0.4-5.2,3.1-4.8,6.2l1.6,13.3C238.8,81.9,239.9,83.4,241.4,84.3z"/>
	</g>
</g>
<g>
	<ellipse transform="matrix(0.7157 -0.6984 0.6984 0.7157 12.2832 113.9511)" class="st7" cx="146.1" cy="41.9" rx="5.4" ry="5.4"/>
	<ellipse transform="matrix(0.7157 -0.6984 0.6984 0.7157 12.9807 113.786)" class="st8" cx="146.3" cy="40.9" rx="5.4" ry="5.4"/>
	<g>
		<path class="st9" d="M151.7,39.9c-0.1,1.6-0.9,3.2-2.4,4.2c-1.7,1.2-4.1,1.2-5.8,0.1c-1.4-0.8-2.2-2.1-2.5-3.5
			c-0.1,1.8,0.7,3.7,2.4,4.8c1.7,1.2,4.1,1.2,5.9,0.1C151.3,44.3,152.1,42,151.7,39.9z"/>
	</g>
	<g>
		<path class="st10" d="M151.1,43.3l-9.2-5.5c-0.2,0.2-0.2,0.1-0.3,0.4c-0.1,0.3-0.1,0.2-0.2,0.4l9.2,5.5c0.2-0.2,0.2-0.1,0.3-0.4
			C151.1,43.5,151,43.5,151.1,43.3z"/>
	</g>
	<ellipse transform="matrix(0.7157 -0.6984 0.6984 0.7157 4.106 106.1636)" class="st7" cx="132.5" cy="48" rx="5.4" ry="5.4"/>
	<ellipse transform="matrix(0.7157 -0.6984 0.6984 0.7157 4.8035 105.9985)" class="st8" cx="132.6" cy="47.1" rx="5.4" ry="5.4"/>
	<g>
		<path class="st9" d="M138,46c-0.1,1.6-0.9,3.2-2.4,4.2c-1.7,1.2-4.1,1.2-5.8,0.1c-1.4-0.8-2.2-2.1-2.5-3.5
			c-0.1,1.8,0.7,3.7,2.4,4.8c1.7,1.2,4.1,1.2,5.9,0.1C137.7,50.5,138.5,48.1,138,46z"/>
	</g>
	<g>
		<path class="st10" d="M135.2,51.8l-4.4-9.8c-0.3,0.1-0.2,0-0.5,0.1c-0.3,0.1-0.2,0.1-0.4,0.3l4.4,9.8c0.3-0.1,0.2,0,0.5-0.1
			C135.1,51.9,135,51.9,135.2,51.8z"/>
	</g>
</g>
<g>
	<ellipse transform="matrix(0.6905 -0.7233 0.7233 0.6905 14.1154 157.8784)" class="st7" cx="191.6" cy="62.4" rx="5.4" ry="5.4"/>
	<ellipse transform="matrix(0.6905 -0.7233 0.7233 0.6905 14.326 158.596)" class="st8" cx="192.5" cy="62.6" rx="5.4" ry="5.4"/>
	<g>
		<path class="st9" d="M193.8,67.9c-1.6,0-3.2-0.8-4.3-2.2c-1.2-1.7-1.4-4-0.3-5.8c0.8-1.4,2-2.2,3.4-2.6c-1.8,0-3.7,0.8-4.8,2.6
			c-1.1,1.8-1.1,4.1,0.1,5.9C189.3,67.7,191.7,68.5,193.8,67.9z"/>
	</g>
	<g>
		<path class="st10" d="M190.4,67.5l5.1-9.4c-0.2-0.2-0.1-0.2-0.4-0.3c-0.3-0.1-0.2-0.1-0.5-0.2l-5.1,9.4c0.2,0.2,0.1,0.2,0.4,0.3
			C190.2,67.4,190.1,67.4,190.4,67.5z"/>
	</g>
	<ellipse transform="matrix(0.6905 -0.7233 0.7233 0.6905 21.7758 148.9265)" class="st7" cx="184.9" cy="49" rx="5.4" ry="5.4"/>
	<ellipse transform="matrix(0.6905 -0.7233 0.7233 0.6905 21.9864 149.6441)" class="st8" cx="185.9" cy="49.1" rx="5.4" ry="5.4"/>
	<g>
		<path class="st9" d="M187.1,54.5c-1.6,0-3.2-0.8-4.3-2.2c-1.2-1.7-1.4-4-0.3-5.8c0.8-1.4,2-2.2,3.4-2.6c-1.8,0-3.7,0.8-4.8,2.6
			c-1.1,1.8-1.1,4.1,0.1,5.9C182.7,54.3,185.1,55,187.1,54.5z"/>
	</g>
	<g>
		<path class="st10" d="M181.3,51.9l9.6-4.7c-0.1-0.3,0-0.2-0.1-0.5c-0.1-0.3-0.1-0.2-0.3-0.4l-9.6,4.7c0.1,0.3,0,0.2,0.1,0.5
			C181.1,51.8,181.1,51.7,181.3,51.9z"/>
	</g>
</g>
<g>
	<ellipse transform="matrix(0.6905 -0.7233 0.7233 0.6905 34.8975 183.7852)" class="st7" cx="232.2" cy="51.1" rx="5.4" ry="5.4"/>
	<ellipse transform="matrix(0.6905 -0.7233 0.7233 0.6905 35.1082 184.5028)" class="st8" cx="233.2" cy="51.2" rx="5.4" ry="5.4"/>
	<g>
		<path class="st9" d="M234.4,56.6c-1.6,0-3.2-0.8-4.3-2.2c-1.2-1.7-1.4-4-0.3-5.8c0.8-1.4,2-2.2,3.4-2.6c-1.8,0-3.7,0.8-4.8,2.6
			c-1.1,1.8-1.1,4.1,0.1,5.9C230,56.4,232.3,57.1,234.4,56.6z"/>
	</g>
	<g>
		<path class="st10" d="M231,56.1l5.1-9.4c-0.2-0.2-0.1-0.2-0.4-0.3c-0.3-0.1-0.2-0.1-0.5-0.2l-5.1,9.4c0.2,0.2,0.1,0.2,0.4,0.3
			C230.8,56.1,230.8,56,231,56.1z"/>
	</g>
	<ellipse transform="matrix(0.6905 -0.7233 0.7233 0.6905 42.5579 174.8333)" class="st7" cx="225.6" cy="37.7" rx="5.4" ry="5.4"/>
	<ellipse transform="matrix(0.6905 -0.7233 0.7233 0.6905 42.7686 175.5509)" class="st8" cx="226.5" cy="37.8" rx="5.4" ry="5.4"/>
	<g>
		<path class="st9" d="M227.8,43.2c-1.6,0-3.2-0.8-4.3-2.2c-1.2-1.7-1.4-4-0.3-5.8c0.8-1.4,2-2.2,3.4-2.6c-1.8,0-3.7,0.8-4.8,2.6
			c-1.1,1.8-1.1,4.1,0.1,5.9C223.4,43,225.7,43.7,227.8,43.2z"/>
	</g>
	<g>
		<path class="st10" d="M221.9,40.6l9.6-4.7c-0.1-0.3,0-0.2-0.1-0.5c-0.1-0.3-0.1-0.2-0.3-0.4l-9.6,4.7c0.1,0.3,0,0.2,0.1,0.5
			C221.8,40.4,221.8,40.3,221.9,40.6z"/>
	</g>
</g>
<g>
	<ellipse transform="matrix(0.6905 -0.7233 0.7233 0.6905 48.2783 263.0597)" class="st7" cx="331.6" cy="75.1" rx="5.4" ry="5.4"/>
	<ellipse transform="matrix(0.6905 -0.7233 0.7233 0.6905 48.4889 263.7773)" class="st8" cx="332.5" cy="75.2" rx="5.4" ry="5.4"/>
	<g>
		<path class="st9" d="M333.8,80.6c-1.6,0-3.2-0.8-4.3-2.2c-1.2-1.7-1.4-4-0.3-5.8c0.8-1.4,2-2.2,3.4-2.6c-1.8,0-3.7,0.8-4.8,2.6
			c-1.1,1.8-1.1,4.1,0.1,5.9C329.3,80.4,331.7,81.1,333.8,80.6z"/>
	</g>
	<g>
		<path class="st10" d="M330.4,80.1l5.1-9.4c-0.2-0.2-0.1-0.2-0.4-0.3c-0.3-0.1-0.2-0.1-0.5-0.2l-5.1,9.4c0.2,0.2,0.1,0.2,0.4,0.3
			S330.1,80,330.4,80.1z"/>
	</g>
	<ellipse transform="matrix(0.6905 -0.7233 0.7233 0.6905 55.9387 254.1077)" class="st7" cx="324.9" cy="61.7" rx="5.4" ry="5.4"/>
	<ellipse transform="matrix(0.6905 -0.7233 0.7233 0.6905 56.1493 254.8253)" class="st8" cx="325.9" cy="61.8" rx="5.4" ry="5.4"/>
	<g>
		<path class="st9" d="M327.1,67.2c-1.6,0-3.2-0.8-4.3-2.2c-1.2-1.7-1.4-4-0.3-5.8c0.8-1.4,2-2.2,3.4-2.6c-1.8,0-3.7,0.8-4.8,2.6
			c-1.1,1.8-1.1,4.1,0.1,5.9C322.7,67,325.1,67.7,327.1,67.2z"/>
	</g>
	<g>
		<path class="st10" d="M321.3,64.6l9.6-4.7c-0.1-0.3,0-0.2-0.1-0.5c-0.1-0.3-0.1-0.2-0.3-0.4l-9.6,4.7c0.1,0.3,0,0.2,0.1,0.5
			S321.1,64.3,321.3,64.6z"/>
	</g>
</g>
<g>
	<ellipse transform="matrix(0.9948 -0.1023 0.1023 0.9948 -6.4476 29.3146)" class="st7" cx="282.6" cy="77.5" rx="5.4" ry="5.4"/>
	<ellipse transform="matrix(0.9948 -0.1023 0.1023 0.9948 -6.5156 29.3843)" class="st8" cx="283.2" cy="78.2" rx="5.4" ry="5.4"/>
	<g>
		<path class="st9" d="M280.7,83.1c-1.2-1.1-1.9-2.7-1.8-4.5c0.2-2.1,1.6-3.9,3.5-4.6c1.5-0.5,3-0.4,4.3,0.2
			c-1.4-1.2-3.3-1.7-5.3-1.1c-2,0.6-3.5,2.5-3.7,4.6C277.5,80.1,278.8,82.2,280.7,83.1z"/>
	</g>
	<g>
		<path class="st10" d="M278.4,80.6l10-3.8c-0.1-0.3,0-0.2-0.1-0.5c-0.1-0.3-0.1-0.2-0.2-0.4l-10,3.8c0.1,0.3,0,0.2,0.1,0.5
			C278.3,80.4,278.3,80.3,278.4,80.6z"/>
	</g>
	<ellipse transform="matrix(0.9948 -0.1023 0.1023 0.9948 -4.943 29.6136)" class="st7" cx="286.3" cy="63" rx="5.4" ry="5.4"/>
	<ellipse transform="matrix(0.9948 -0.1023 0.1023 0.9948 -5.011 29.6832)" class="st8" cx="286.9" cy="63.7" rx="5.4" ry="5.4"/>
	<g>
		<path class="st9" d="M284.4,68.6c-1.2-1.1-1.9-2.7-1.8-4.5c0.2-2.1,1.6-3.9,3.5-4.6c1.5-0.5,3-0.4,4.3,0.2
			c-1.4-1.2-3.3-1.7-5.3-1.1c-2,0.6-3.5,2.5-3.7,4.6C281.1,65.6,282.5,67.7,284.4,68.6z"/>
	</g>
	<g>
		<path class="st10" d="M281.6,62.8l10.4,2.7c0.1-0.3,0.1-0.2,0.2-0.4c0.1-0.3,0-0.2,0-0.5l-10.4-2.7c-0.1,0.3-0.1,0.2-0.2,0.4
			C281.6,62.6,281.6,62.6,281.6,62.8z"/>
	</g>
</g>
<g class="st11">
	<path class="st3" d="M349.6,23.8h-233v64.8h233c2.5,0,4.5-2,4.5-4.5V28.3C354.2,25.8,352.1,23.8,349.6,23.8z"/>
	<path class="st3" d="M24.7,23.8c-2.5,0-4.5,2-4.5,4.5V84c0,2.5,2,4.5,4.5,4.5H68V23.8H24.7z"/>
</g>
<path class="st2" d="M70.6,80.8V37.6c0-1.2-0.5-2.2-1.2-2.2h0c-0.6,0-1.2,1-1.2,2.2v43.3C69.3,80.8,69.9,80.8,70.6,80.8z"/>
<path class="st2" d="M115.8,80.8V37.6c0-1.2-0.5-2.2-1.2-2.2l0,0c-0.6,0-1.2,1-1.2,2.2v43.3C114.5,80.8,115.1,80.8,115.8,80.8z"/>
<path class="st2" d="M164,80.8V37.6c0-1.2-0.5-2.2-1.2-2.2l0,0c-0.6,0-1.2,1-1.2,2.2v43.3C162.7,80.8,163.3,80.8,164,80.8z"/>
<path class="st2" d="M212.2,80.8V37.6c0-1.2-0.5-2.2-1.2-2.2l0,0c-0.6,0-1.2,1-1.2,2.2v43.3C210.9,80.8,211.5,80.8,212.2,80.8z"/>
<path class="st2" d="M260.4,80.8V37.6c0-1.2-0.5-2.2-1.2-2.2l0,0c-0.6,0-1.2,1-1.2,2.2v43.3C259.1,80.8,259.7,80.8,260.4,80.8z"/>
<path class="st2" d="M308.6,80.8V37.6c0-1.2-0.5-2.2-1.2-2.2l0,0c-0.6,0-1.2,1-1.2,2.2v43.3C307.3,80.8,307.9,80.8,308.6,80.8z"/>
<text transform="matrix(1 0 0 1 35.332 67.8081)" class="st2 st12 st13">S              T    W    T      F     S</text>
</svg>
