<svg xmlns="http://www.w3.org/2000/svg" viewBox="0 0 662.74 321.16"><defs><style>.cls-1{isolation:isolate;}.cls-2{fill:#e85f67;}.cls-3{fill:#f58878;}.cls-4,.cls-7{mix-blend-mode:multiply;}.cls-5{fill:#f7c2b7;}.cls-6,.cls-7,.cls-8{fill:#966992;}.cls-7{opacity:0.42;}.cls-8{opacity:0.6;}.cls-9{fill:#184e67;}</style></defs><title>title</title><g class="cls-1"><g id="Layer_2" data-name="Layer 2"><g id="Layer_1-2" data-name="Layer 1"><rect class="cls-2" x="333.44" y="122.48" width="29.12" height="77.96" rx="14.56" ry="14.56" transform="translate(0.26 -0.55) rotate(0.09)"/><path class="cls-3" d="M333.41,160.08h29.12a0,0,0,0,1,0,0v26.17A14.56,14.56,0,0,1,348,200.8h0a14.56,14.56,0,0,1-14.56-14.56V160.08A0,0,0,0,1,333.41,160.08Z" transform="translate(0.29 -0.55) rotate(0.09)"/><g class="cls-4"><path class="cls-5" d="M348.16,122.77a12.66,12.66,0,0,0-2,.13,14.55,14.55,0,0,1,5.29,11.23L351.41,183a14.6,14.6,0,0,1-12.62,14.4,14.43,14.43,0,0,0,9.24,3.35,14.6,14.6,0,0,0,14.58-14.53l.08-48.84A14.59,14.59,0,0,0,348.16,122.77Z"/></g><circle class="cls-6" cx="327.29" cy="40.44" r="40.44"/><path class="cls-7" d="M355.72,11.53a40.43,40.43,0,0,1-60.33,53.6,40.43,40.43,0,1,0,60.33-53.6Z"/><g class="cls-4"><path class="cls-8" d="M342,3,302.05,72.09c1.64,1.33.91,1.16,2.8,2.25s1.37.54,3.34,1.3L348.12,6.58c-1.63-1.33-.9-1.16-2.79-2.25S344,3.79,342,3Z"/></g><path class="cls-9" d="M10.18,2.73h8.91v77H10.18Z"/><path class="cls-9" d="M86.41,62.68,114.13,2.73h11.33v77h-8.58V15.6L90.81,72.69H82L55.94,15.6V79.73H47.36v-77H58.8Z"/><path class="cls-9" d="M153.84,2.73H175c14,0,23,8.25,23,22.22S188.48,47.5,175,47.5H162.74V79.73h-8.9Zm20.35,36.85c9.24,0,14.62-5.72,14.62-14.63s-5.38-14.3-14.62-14.3H162.74V39.58Z"/><path class="cls-9" d="M220.71,2.73h19.58c15.74,0,24,7.92,24,21.34,0,9.13-4.51,17.49-13.42,20.35L270,79.73h-9.9L242.71,46.29H229.62V79.73h-8.91Zm19.58,35.75c9,0,14.64-4.18,14.64-14.3,0-8.14-4.3-13.53-15.19-13.53H229.62V38.48Z"/><path class="cls-9" d="M408.15,79.73l-29.26-77h9.79l24.2,66.44L437.19,2.73H447l-29.26,77Z"/><path class="cls-9" d="M467.66,2.73h8.91v77h-8.91Z"/><path class="cls-9" d="M504.84,2.73h8.91l42.46,62.92V2.73H565v77h-8.8L513.75,17v62.7h-8.91Z"/><path class="cls-9" d="M656.31,12.52l-5.72,5.94c-3.52-3.41-10.34-8.8-22.44-8.8-17.71,0-29.81,13.64-29.81,31.68,0,18.59,12.54,31.57,29.7,31.57,12.87,0,20.13-5.61,22.55-8V48.71H633.43V40.9h25.74V68.73c-8.36,8.47-18.37,12.43-31.46,12.43C605.82,81.16,589,64.77,589,41.34c0-22.55,16.39-40,38.94-40C643.22,1.3,652.35,8.45,656.31,12.52Z"/><path class="cls-9" d="M125.29,182.68,153,122.73h11.33v77h-8.58V135.6l-26.07,57.09h-8.8L94.82,135.6v64.13H86.24v-77H97.68Z"/><path class="cls-9" d="M192.72,122.73h36.52v8.14H201.63V156.5h24.09v8H201.63V191.7h28.82v8H192.72Z"/><path class="cls-9" d="M255.86,122.73H271.7c26.29,0,41.25,14.41,41.25,38.5,0,25.52-15.51,38.5-41.25,38.5H255.86Zm17.6,69.08c18.48,0,30.36-10.45,30.36-30.58,0-19.25-11.88-30.47-30.36-30.47h-8.69v61.05Z"/><path class="cls-9" d="M444.73,192.36a38.64,38.64,0,0,1-24.86,8.8c-22.55,0-39.05-17.16-39.05-39.93s17.05-39.93,38.83-39.93a38.21,38.21,0,0,1,23.87,8l-2.86,7.92a33.84,33.84,0,0,0-20.79-7.59c-17.05,0-29.81,13.64-29.81,31.57s12.21,31.57,30,31.57A33.82,33.82,0,0,0,442,184.55Z"/><path class="cls-9" d="M479.27,174.76l-9.24,25h-9l28.82-77h9l28.82,77h-9l-9.24-25Zm15.07-42.24L482,167.06h24.75Z"/><path class="cls-9" d="M548.79,122.73h8.91v69h28.82v8H548.79Z"/><path class="cls-9" d="M18.26,294.76,9,319.73H0l28.82-77h9l28.82,77h-9l-9.24-25Zm15.07-42.24L21,287.06H45.76Z"/><path class="cls-9" d="M87.78,242.73h15.84c26.29,0,41.25,14.41,41.25,38.5,0,25.52-15.51,38.5-41.25,38.5H87.78Zm17.6,69.08c18.48,0,30.36-10.45,30.36-30.58,0-19.25-11.88-30.47-30.36-30.47H96.69v61.05Z"/><path class="cls-9" d="M168.85,242.73h8.91V276.5h40.92V242.73h8.91v77h-8.91V284.64H177.76v35.09h-8.91Z"/><path class="cls-9" d="M256,242.73h36.52v8.14H264.88V276.5H289v8H264.88V311.7H293.7v8H256Z"/><path class="cls-9" d="M319.11,242.73h19.58c15.73,0,24,7.92,24,21.34,0,9.13-4.51,17.49-13.42,20.35l19.14,35.31h-9.9l-17.38-33.44H328v33.44h-8.91Zm19.58,35.75c9,0,14.63-4.18,14.63-14.3,0-8.14-4.29-13.53-15.18-13.53H328v27.83Z"/><path class="cls-9" d="M390.28,242.73H426.8v8.14H399.19V276.5h24.09v8H399.19V311.7H428v8H390.28Z"/><path class="cls-9" d="M453.31,242.73h8.91l42.46,62.92V242.73h8.8v77h-8.8L462.22,257v62.7h-8.91Z"/><path class="cls-9" d="M601.37,312.36a38.64,38.64,0,0,1-24.86,8.8c-22.55,0-39-17.16-39-39.93s17-39.93,38.83-39.93a38.21,38.21,0,0,1,23.87,8l-2.87,7.92a33.77,33.77,0,0,0-20.78-7.59c-17,0-29.81,13.64-29.81,31.57s12.21,31.57,30,31.57a33.82,33.82,0,0,0,21.89-8.25Z"/><path class="cls-9" d="M625,242.73h36.52v8.14H633.92V276.5H658v8h-24.1V311.7h28.82v8H625Z"/></g></g></g></svg>