<?xml version="1.0" encoding="utf-8"?>
<!-- Generator: Adobe Illustrator 21.1.0, SVG Export Plug-In . SVG Version: 6.00 Build 0)  -->
<svg version="1.1" id="Layer_1" xmlns="http://www.w3.org/2000/svg" xmlns:xlink="http://www.w3.org/1999/xlink" x="0px" y="0px"
	 viewBox="0 0 657.1 255" style="enable-background:new 0 0 657.1 255;" xml:space="preserve">
<style type="text/css">
	.st0{fill:#F3C74A;}
	.st1{opacity:0.53;}
	.st2{opacity:0.58;}
	.st3{fill:#F8EEC8;}
	.st4{fill:#77A7AA;}
	.st5{opacity:0.26;}
	.st6{fill:#9FB7B2;}
	.st7{opacity:0.6;}
	.st8{fill:#6A9A9B;}
	.st9{fill:#FFFFFF;}
</style>
<circle class="st0" cx="137" cy="54" r="29.8"/>
<g class="st1">
	<path class="st0" d="M158,32.7c3.9,5,6.3,11.4,6.3,18.3c0,16.4-13.3,29.8-29.8,29.8c-8.2,0-15.6-3.3-20.9-8.6
		c5.4,7,13.9,11.5,23.5,11.5c16.4,0,29.8-13.3,29.8-29.8C166.8,45.6,163.4,38.1,158,32.7z"/>
</g>
<g class="st2">
	<path class="st3" d="M113,37l44.8,38c1.2-1,1-0.5,2-1.7s0.6-0.9,1.4-2.3l-44.8-38c-1.2,1-1,0.5-2,1.7C113.3,36,113.8,35.7,113,37z"
		/>
</g>
<ellipse transform="matrix(8.074153e-03 -1 1 8.074153e-03 -60.7473 196.0474)" class="st4" cx="68.4" cy="128.6" rx="56.6" ry="56.6"/>
<g class="st5">
	<path class="st6" d="M108.5,88.5c7.4,9.7,11.8,21.8,11.7,34.9c-0.3,31.3-25.8,56.4-57,56.1c-15.5-0.1-29.5-6.5-39.7-16.7
		c10.2,13.3,26.3,22,44.4,22.1c31.3,0.3,56.8-24.9,57-56.1C125.1,113.1,118.8,98.9,108.5,88.5z"/>
</g>
<g class="st7">
	<path class="st8" d="M82.1,72.9l-47.6,101c2.4,1.7,1.4,1.5,4.2,2.8c2.8,1.3,2,0.6,4.8,1.4l47.6-101c-2.4-1.7-1.4-1.5-4.2-2.8
		C84.2,73,85,73.7,82.1,72.9z"/>
</g>
<path class="st9" d="M322.1,62.4c0-2.3,2.1-4.4,4.4-4.4h8.2c2.3,0,4.4,2.1,4.4,4.4v91c0,2.3-2.1,4.4-4.4,4.4h-8.2
	c-2.3,0-4.4-2.1-4.4-4.4V62.4"/>
<path class="st9" d="M507.3,58c25,0,44.3,18.6,44.3,43.6c0,1.7-0.2,4.8-0.5,6.4c-0.2,2.4-2.1,4-4.3,4h-69.7
	c1,16,14.7,29.7,33.7,29.7c10,0,17.6-3.3,23.8-7.8c2.1-1.6,3.3-1.6,4.9-0.2c1.7,1.6,3.7,3.5,5.4,5.2c2,1.8,2.7,3.4,0.5,5.9
	c-4.8,5.5-17.5,13.2-33.9,13.2c-28.8,0-51-22.6-51-50c0-26.9,19.2-50,48-50 M535.2,98.8c-0.7-13.8-14.4-26.2-28.9-26.2
	c-15.9,0-27.8,12.7-28.8,26.2H535.2z"/>
<path class="st9" d="M624.4,146.2l-6.9-6.8c-0.5-0.5-2.2-1.2-4,0.4c0,0-3.5,3.2-9.5,3.2c-4.1,0-7.5-1.5-9.9-4c-2.4-2.5-4-6.2-4-10.8
	c0-0.2-0.1-0.5-0.1-0.7V71.8h25.2c2.5,0,4.4-2.1,4.4-4.4v-5c0-2.5-1.8-4.4-4.4-4.4h-25.2V32.7c0-2.3-1.8-4.4-4.1-4.4l-7.3,0.8
	c-2.3,0.3-4.4,2.1-4.4,4.4V58h-11.9c-2.5,0-4.4,1.8-4.4,4.4v5c0,2.3,1.8,4.4,4.4,4.4h11.9V129h0.1c0.2,7,2.8,12.4,4.4,15
	c1.4,2.3,4.6,6.7,9.5,10.2v0c0.1,0.1,0.2,0.1,0.3,0.2c2.3,1.4,7.5,3.6,15.4,3.6h0.1c8.3,0,15.3-3,20.4-7.9c0.5-0.5,0.8-1.2,0.9-2
	C625.2,147.5,624.9,146.7,624.4,146.2"/>
<path class="st9" d="M301.3,58.2h-9l-1.1,0c-2,0-3.3,1.2-4,2.5L256,134.9l-30.8-74.4c-0.7-1.3-2-2.5-4-2.5l-1.1,0H211
	c-3.4,0-4.8,2.3-3.4,5.3l1.6,3.8l37.5,86.3c0.8,2,2.5,4.4,4.8,4.4h9.1c2.3,0,3.9-2.4,4.8-4.4l37.8-86.2l1.6-3.8
	C306.1,60.5,304.7,58.2,301.3,58.2"/>
<path class="st9" d="M418.2,158.1h-33.4c-8.6,0-12.7-6-12.7-11.8c0-9.3,10.2-13.9,10.2-13.9s10.9,6.7,23.7,6.7
	c24.5,0,41.2-19.3,41.2-40.4c0-15.8-9.5-25-9.5-25l12.6-3.6c1.6-0.2,2.5-2.3,2.5-3.9v-3.9c0-2.5-1.9-4.4-4.4-4.4h-44
	c-24.1,0-39.2,19.3-39.2,40.8c0,13.7,7.4,23.2,7.4,23.2s-15.5,9-15.5,26.7c0,14.4,10.9,20.4,16.9,22v0.7
	c-2.3,1.4-13.4,7.7-13.4,21.6c0,15.3,13.4,32,44.5,32c28.1,0,48-18.3,48-37.6C453,167.2,437.7,158.1,418.2,158.1 M405.9,72.9
	c13.9,0,25.2,11.3,25.2,25.3c0,13.9-11.3,25.2-25.2,25.2c-13.9,0-25.2-11.3-25.2-25.2C380.7,84.2,392,72.9,405.9,72.9z M404.8,209.8
	c-15.8,0-27.8-8.1-27.8-19.2c0-13.7,15.5-17.9,15.5-17.9h25.7c16.2,0,17.6,12.1,17.6,15.1C435.9,201.2,420.1,209.8,404.8,209.8z"/>
<path class="st9" d="M320.9,31c0-5.6,4.3-9.9,9.7-9.9c5.6,0,9.9,4.3,9.9,9.9c0,5.3-4.3,9.7-9.9,9.7C325.2,40.7,320.9,36.3,320.9,31"
	/>
</svg>
