<svg xmlns="http://www.w3.org/2000/svg" viewBox="0 0 657.1 255"><circle cx="137" cy="54" r="29.8" fill="#f3c74a"/><path d="M113 37l44.8 38c1.2-1 1-.5 2-1.7s.6-.9 1.4-2.3l-44.8-38c-1.2 1-1 .5-2 1.7-1.1 1.3-.6 1-1.4 2.3z" opacity=".58" fill="#f8eec8"/><ellipse cx="68.4" cy="128.7" rx="56.6" ry="56.6" fill="#77a7aa"/><path d="M108.5 88.5c7.4 9.7 11.8 21.8 11.7 34.9-.3 31.3-25.8 56.4-57 56.1-15.5-.1-29.5-6.5-39.7-16.7 10.2 13.3 26.3 22 44.4 22.1 31.3.3 56.8-24.9 57-56.1.2-15.7-6.1-29.9-16.4-40.3z" opacity=".26" fill="#657f79"/><path d="M158 32.7c3.9 5 6.3 11.4 6.3 18.3 0 16.4-13.3 29.8-29.8 29.8-8.2 0-15.6-3.3-20.9-8.6 5.4 7 13.9 11.5 23.5 11.5 16.4 0 29.8-13.3 29.8-29.8-.1-8.3-3.5-15.8-8.9-21.2z" opacity=".53" fill="#a38843"/><path d="M82.1 72.9l-47.6 101c2.4 1.7 1.4 1.5 4.2 2.8s2 .6 4.8 1.4l47.6-101c-2.4-1.7-1.4-1.5-4.2-2.8-2.7-1.3-1.9-.6-4.8-1.4z" opacity=".6" fill="#6a9a9b"/><path d="M322.1 62.4c0-2.3 2.1-4.4 4.4-4.4h8.2c2.3 0 4.4 2.1 4.4 4.4v91c0 2.3-2.1 4.4-4.4 4.4h-8.2c-2.3 0-4.4-2.1-4.4-4.4v-91M507.3 58c25 0 44.3 18.6 44.3 43.6 0 1.7-.2 4.8-.5 6.4-.2 2.4-2.1 4-4.3 4h-69.7c1 16 14.7 29.7 33.7 29.7 10 0 17.6-3.3 23.8-7.8 2.1-1.6 3.3-1.6 4.9-.2 1.7 1.6 3.7 3.5 5.4 5.2 2 1.8 2.7 3.4.5 5.9-4.8 5.5-17.5 13.2-33.9 13.2-28.8 0-51-22.6-51-50 0-26.9 19.2-50 48-50m26.7 40.8c-.7-13.8-14.4-26.2-28.9-26.2-15.9 0-27.8 12.7-28.8 26.2h57.7zm89.2 47.4l-6.9-6.8c-.5-.5-2.2-1.2-4 .4 0 0-3.5 3.2-9.5 3.2-4.1 0-7.5-1.5-9.9-4s-4-6.2-4-10.8c0-.2-.1-.5-.1-.7V71.8h25.2c2.5 0 4.4-2.1 4.4-4.4v-5c0-2.5-1.8-4.4-4.4-4.4H590V32.7c0-2.3-1.8-4.4-4.1-4.4l-7.3.8c-2.3.3-4.4 2.1-4.4 4.4V58h-11.9c-2.5 0-4.4 1.8-4.4 4.4v5c0 2.3 1.8 4.4 4.4 4.4h11.9V129h.1c.2 7 2.8 12.4 4.4 15 1.4 2.3 4.6 6.7 9.5 10.2.1.1.2.1.3.2 2.3 1.4 7.5 3.6 15.4 3.6h.1c8.3 0 15.3-3 20.4-7.9.5-.5.8-1.2.9-2-.1-.6-.4-1.4-.9-1.9m-323.1-88h-10.1c-2 0-3.3 1.2-4 2.5L256 134.9l-30.8-74.4c-.7-1.3-2-2.5-4-2.5H211c-3.4 0-4.8 2.3-3.4 5.3l1.6 3.8 37.5 86.3c.8 2 2.5 4.4 4.8 4.4h9.1c2.3 0 3.9-2.4 4.8-4.4l37.8-86.2 1.6-3.8c1.3-2.9-.1-5.2-3.5-5.2m116.9 99.9h-33.4c-8.6 0-12.7-6-12.7-11.8 0-9.3 10.2-13.9 10.2-13.9s10.9 6.7 23.7 6.7c24.5 0 41.2-19.3 41.2-40.4 0-15.8-9.5-25-9.5-25l12.6-3.6c1.6-.2 2.5-2.3 2.5-3.9v-3.9c0-2.5-1.9-4.4-4.4-4.4h-44c-24.1 0-39.2 19.3-39.2 40.8 0 13.7 7.4 23.2 7.4 23.2s-15.5 9-15.5 26.7c0 14.4 10.9 20.4 16.9 22v.7c-2.3 1.4-13.4 7.7-13.4 21.6 0 15.3 13.4 32 44.5 32 28.1 0 48-18.3 48-37.6-.1-20.1-15.4-29.2-34.9-29.2m-12.3-85.2c13.9 0 25.2 11.3 25.2 25.3 0 13.9-11.3 25.2-25.2 25.2-13.9 0-25.2-11.3-25.2-25.2 0-14 11.3-25.3 25.2-25.3zm-1.1 136.9c-15.8 0-27.8-8.1-27.8-19.2 0-13.7 15.5-17.9 15.5-17.9h25.7c16.2 0 17.6 12.1 17.6 15.1.1 13.4-15.7 22-31 22zM320.9 31c0-5.6 4.3-9.9 9.7-9.9 5.6 0 9.9 4.3 9.9 9.9 0 5.3-4.3 9.7-9.9 9.7-5.4 0-9.7-4.4-9.7-9.7" fill="#fff"/></svg>