<?xml version="1.0" encoding="utf-8"?>
<!-- Generator: Adobe Illustrator 21.1.0, SVG Export Plug-In . SVG Version: 6.00 Build 0)  -->
<svg version="1.1" id="Layer_1" xmlns="http://www.w3.org/2000/svg" xmlns:xlink="http://www.w3.org/1999/xlink" x="0px" y="0px"
	 viewBox="0 0 92 138" style="enable-background:new 0 0 92 138;" xml:space="preserve">
<style type="text/css">
	.st0{fill:#F8EEC8;}
	.st1{fill:#F3C74A;}
</style>
<path class="st0" d="M50,121L50,121c-13.3,1-25-9-26.1-22.3l-4.6-58.3c-1-13.3,9-25,22.3-26.1l0,0c13.3-1,25,9,26.1,22.3L72.3,95
	C73.4,108.2,63.3,120,50,121z"/>
<path class="st1" d="M50.1,121.5L50.1,121.5c-13.3,1-25-9-26.1-22.3l-2.5-31.6l48.4-3.8l2.5,31.6C73.4,108.7,63.4,120.5,50.1,121.5z
	"/>
<g>
	<path class="st0" d="M56.7,18.3C59.9,22,62,26.8,62.4,32L67,90.4c1,13.3-9,25-22.3,26.1c-5.3,0.4-10.3-0.9-14.5-3.5
		c4.9,5.7,12.3,9.2,20.4,8.5c13.3-1,23.3-12.8,22.3-26.1l-4.6-58.3C67.7,29,63.1,22.2,56.7,18.3z"/>
</g>
</svg>
